<svg xmlns="http://www.w3.org/2000/svg" viewBox="0 0 49 50" fill="none" preserveAspectRatio="xMidYMid meet"><style xmlns="">
      @keyframes bounce {
        0%, 100% { transform: translateY(0); }
        50% { transform: translateY(-20px); }
      }

          #element-0 {
            animation: bounce 2.2s ease-in-out 0s infinite alternate forwards;
          }
        
      @keyframes bounce {
        0%, 100% { transform: translateY(0); }
        50% { transform: translateY(-20px); }
      }

          #element-1 {
            animation: bounce 2.2s ease-in-out 0s infinite alternate forwards;
          }
        
      @keyframes bounce {
        0%, 100% { transform: translateY(0); }
        50% { transform: translateY(-20px); }
      }

          #element-2 {
            animation: bounce 2.2s ease-in-out 0s infinite alternate forwards;
          }
        
      @keyframes bounce {
        0%, 100% { transform: translateY(0); }
        50% { transform: translateY(-20px); }
      }

          #element-3 {
            animation: bounce 2.2s ease-out 0s infinite alternate forwards;
          }
        </style>
<path d="M40.1182 41.8006L37.6882 44.0606C32.8582 48.5606 21.9282 44.6806 13.2582 35.3906C4.59822 26.1006 1.47821 14.9206 6.30821 10.4206L8.73823 8.16064" fill="white" id="element-0"/>
<path d="M40.1182 41.8006L37.6882 44.0606C32.8582 48.5606 21.9282 44.6806 13.2582 35.3906C4.59822 26.1006 1.47821 14.9206 6.30821 10.4206L8.73823 8.16064" stroke="black" stroke-miterlimit="10" id="element-1"/>
<path d="M40.1161 41.7881C44.9421 37.2862 41.8301 26.1069 33.1654 16.8183C24.5007 7.52978 13.5643 3.64942 8.73826 8.15132C3.91226 12.6532 7.02416 23.8326 15.6889 33.1211C24.3536 42.4097 35.2901 46.29 40.1161 41.7881Z" fill="white" stroke="black" stroke-miterlimit="10" id="element-2"/>
<path d="M20.8315 17.061C22.7925 15.8697 24.8111 16.256 26.2183 17.8804C27.4343 19.2793 27.7962 21.1458 26.4126 23.1294C28.8755 21.6555 30.8854 22.173 32.2583 23.7407C33.5536 25.22 34.0664 27.6488 32.1089 30.0288L33.3462 31.4526L32.9683 31.7808L32.5913 32.1089L31.4214 30.7622C31.3239 30.8548 31.2235 30.9485 31.1177 31.0405L30.269 31.7808L31.436 33.1226L31.0581 33.4507L30.6812 33.7788L29.5298 32.4546L28.1978 33.6206C28.195 33.6172 28.1918 33.6142 28.189 33.6108L26.7378 34.8706L26.0376 34.0708L27.3306 32.5864C25.9131 30.9026 24.4425 29.1997 22.9575 27.4907L22.1274 26.5308H22.1177C20.6465 24.8423 19.1662 23.1419 17.6636 21.4722L16.0142 22.5454L15.3179 21.7505L17.5767 19.7905L17.5679 19.7808L18.103 19.314L16.9409 17.979L17.6948 17.3228L18.8569 18.6587L19.9478 17.7104C19.9714 17.6899 19.9954 17.67 20.019 17.6499L18.8608 16.3188L19.6147 15.6626L20.8315 17.061ZM30.6782 25.1206C29.0982 23.3006 27.3374 23.2211 25.1274 25.1411L24.2329 25.9204C25.9168 27.8569 27.4477 29.614 28.9702 31.3042L29.9575 30.4507C32.0075 28.6707 32.1681 26.8506 30.6782 25.1206ZM22.6978 25.6802L22.7065 25.6714L22.6978 25.6606V25.6802ZM24.8276 19.3208C23.2677 17.5309 21.898 17.6307 20.2681 19.0405L19.1528 20.0142C20.5447 21.6695 21.9883 23.3436 23.4478 25.0239L24.2876 24.2905C26.2176 22.6105 26.3876 21.1108 24.8276 19.3208ZM16.0181 22.5503H16.0083L16.0142 22.5454L16.0181 22.5503Z" fill="black" id="element-3"/>
</svg>