<svg xmlns="http://www.w3.org/2000/svg" width="500" height="190" fill="none"><path fill="#afafaf" d="M65.655 67.494c-2.175 12.68-7.664 24.391-13.785 35.43-3.243 5.839-6.834 11.721-12.021 15.517-9.082 6.642-22.413 4.962-29.8-3.752-6.322-7.457-7.944-18.379-7.83-28.607.234-20.7 6.563-41.315 17.83-58.009 7.144-10.566 16.524-19.78 27.877-23.944 5.217-1.914 11.091-2.679 16.088-.222 5.97 2.941 9.539 10.064 10.42 17.194.88 7.143-.497 14.376-2.05 21.397a428 428 0 0 1-6.493 25.673"/><path fill="#afafaf" d="M64.367 67.103c-1.836 10.5-5.891 20.38-10.775 29.769-4.23 8.13-8.922 18.011-17.455 22.218-7.162 3.526-16.1 2.348-22.3-2.614-7.154-5.727-9.555-15.649-10.121-24.485-1.263-19.8 4.009-40.388 13.893-57.451 4.724-8.17 10.6-15.79 17.924-21.708 6.81-5.5 17.023-11.19 25.938-8.46s12.104 13.877 11.87 22.501c-.14 5.644-1.336 11.182-2.565 16.67a432 432 0 0 1-3.986 16.299 597 597 0 0 1-2.186 7.938c-.483 1.701 2.103 2.486 2.586.784a428 428 0 0 0 4.64-17.643c1.42-5.912 2.76-11.483 3.614-17.32 1.41-9.69.666-21.254-6.963-28.249s-18.804-4.305-27.118.273C32.818 10.334 25.835 17.58 20.18 25.534 7.73 43.035 1.05 64.794.858 86.3c-.075 9.556 1.237 19.873 6.962 27.734 5.143 7.068 13.785 10.721 22.367 9.631 9.894-1.247 16.333-8.857 21.167-17.122 5.609-9.594 10.679-19.785 13.734-30.541a79 79 0 0 0 1.854-8.128c.304-1.73-2.283-2.526-2.587-.784z"/><path fill="#fff" d="M42.77 34.709c2.72-2.88 6.14-5.453 9.924-6.637 1.801-.563 3.822-.72 5.504.267s2.563 2.862 2.112 4.748c-.278 1.143 1.45 1.666 1.729.523.504-2.092-.105-4.353-1.631-5.863-1.632-1.608-3.973-2.144-6.188-1.87-2.468.306-4.836 1.494-6.942 2.797-2.107 1.303-4.04 2.915-5.75 4.727-.8.852.442 2.172 1.242 1.32zM32.071 102.235c-1.81-.133-3.667-.256-5.342-1.022s-2.9-2.294-3.834-3.95c-1.823-3.238-3.349-6.86-4.19-10.495-1.823-7.931-.027-16.17 1.675-23.957.254-1.144-1.474-1.68-1.728-.523-1.878 8.627-3.816 17.829-1.29 26.519 1.091 3.737 2.702 7.826 4.983 10.987s5.861 4.015 9.684 4.286c1.15.084 1.192-1.749.042-1.833zM24.02 51.496c2.81-9.526 8.684-18.1 16.83-23.683.951-.653.1-2.259-.876-1.606-8.548 5.856-14.729 14.766-17.682 24.766-.338 1.13 1.39 1.653 1.729.523"/><path fill="#fff" d="M52.872 34.502c-33.148 23.827-24.558 49.81-14.396 62.173l.827.04c20.127 11.227 44.566 28.161 64.962 41.287 5.773 3.72 13.671 8.459 19.985 11.102 5.423 2.27 24.593 11.253 30.194 13.014 18.677 5.869 24.702-.918 42.943 6.189 7.71 3 18.297 5.678 26.511 6.598s16.844-.108 24.057-4.243l2.333-.162c-14.108-8.309-30.911-9.997-46.776-13.891s-32.465-11.324-39.749-26.171c3.057-3.533 8.131-4.399 12.737-4.222s9.253 1.148 13.808.358c4.556-.79 9.203-3.986 9.717-8.657.059-.476.059-.977-.075-1.432-.679-2.348-3.935-2.192-6.299-1.725-22.079 4.343-44.81-7.962-66.899-3.717-2.424.466-4.924 1.138-7.324.589-3.678-.843-6.146-4.228-8.319-7.363A512 512 0 0 0 52.884 34.49"/><path fill="#000" d="M52.215 33.302c-8.922 6.448-17.149 14.5-21.433 24.938a36.96 36.96 0 0 0-1.63 23.02c.826 3.28 2.098 6.458 3.687 9.423a46 46 0 0 0 2.418 3.958c.756 1.091 1.813 3.153 3.176 3.4.191.028.778.1.659.062.19.065 1.136.707 1.539.935 1.256.709 2.5 1.43 3.744 2.164a440 440 0 0 1 7.697 4.625c5.446 3.334 10.841 6.778 16.2 10.244 10.694 6.922 21.276 14.024 31.957 20.97 5.039 3.277 10.116 6.494 15.38 9.372 3.841 2.093 7.812 3.809 11.793 5.574 7.653 3.403 15.23 6.987 23.01 10.11a56.6 56.6 0 0 0 13.208 3.525c4.535.639 9.364.502 14.07.497 5.162-.02 10.191.544 15.15 2.072 2.885.888 5.666 2.079 8.538 3.028s5.769 1.777 8.694 2.507c11.554 2.892 23.974 4.641 35.298-.232a33 33 0 0 0 2.099-.998c.134-.071.975-.641.503-.454.073-.036.252.005.312-.019.616-.134 1.335-.096 1.972-.132 1.25-.085 1.986-1.819.743-2.552-22.711-13.233-51.372-9.753-73.208-25.01-5.365-3.748-9.887-8.605-12.849-14.53l-.254 1.657c5.345-5.907 14.181-3.325 21.008-3.19 6.024.119 13.721-2.113 15.425-8.899.726-2.883-.27-5.518-3.306-6.091s-6.618.651-9.804.894c-7.709.605-15.416-.451-22.997-1.75s-14.749-2.784-22.226-3.384c-3.787-.307-7.603-.358-11.392-.005a59 59 0 0 0-5.275.751c-2.207.433-4.539 1.072-6.769.429-3.267-.945-5.403-4.165-7.251-6.829a495 495 0 0 0-6.85-9.62 520 520 0 0 0-14.944-19.52A512 512 0 0 0 53.83 33.553c-1.232-1.235-3.196.658-1.952 1.904a514 514 0 0 1 31.887 35.073 520 520 0 0 1 14.712 18.624 447 447 0 0 1 7.23 9.86c2.106 2.938 4.064 6.02 6.304 8.851 1.949 2.459 4.395 4.658 7.552 5.209 3.719.648 7.558-.853 11.252-1.244 7.497-.793 15.064.089 22.467 1.311s14.415 2.705 21.708 3.484c3.617.377 7.25.571 10.878.423a58 58 0 0 0 5.257-.471c1.638-.224 3.281-.693 4.938-.697 1.777-.014 2.93.461 2.499 2.506-.35 1.692-1.404 3.126-2.689 4.225-3.171 2.7-7.333 3.07-11.302 2.869-7.314-.364-16.13-2.25-21.783 3.995-.418.468-.529 1.089-.254 1.657 5.384 10.789 15.501 17.76 26.263 22.213 12.368 5.121 25.691 6.765 38.583 9.941 7.688 1.9 15.266 4.372 22.161 8.394l.742-2.552c-.817.058-1.705.003-2.513.183-.965.213-1.906.928-2.804 1.35a32 32 0 0 1-3.27 1.292c-4.246 1.408-8.7 1.967-13.152 1.892-8.448-.155-17.006-2.279-25.039-4.821-4.052-1.29-7.962-3.018-12.091-4.089-3.449-.899-6.979-1.385-10.53-1.516-6.753-.243-13.428.334-20.119-1.045-5.771-1.189-11.097-3.47-16.481-5.813s-11.004-4.923-16.518-7.379c-6.572-2.916-12.884-6.145-19.028-9.933-7.304-4.508-14.445-9.33-21.611-14.055-14.783-9.752-29.527-19.613-44.909-28.375-1.256-.721-2.308-1.427-3.759-1.516l.951.422c-4.39-5.38-7.434-11.966-8.428-18.904-1.304-9.107 1.494-18.108 6.646-25.56 4.246-6.15 9.871-11.221 15.865-15.552 1.403-1.01.114-3.432-1.314-2.397z"/><g clip-path="url(#a)"><path fill="#ff4c29" stroke="#ff4c29" stroke-miterlimit="10" stroke-width=".5" d="M214.889 149.432c0-.196-5.66-.356-8.988-.417a2.433 2.433 0 0 1-2.382-2.382c-.074-5.254-.221-8.826-.393-8.826s-.319 3.56-.393 8.826a2.424 2.424 0 0 1-2.382 2.382c-3.327.061-5.734.221-5.734.417 0 .197 2.37.356 5.685.418a2.426 2.426 0 0 1 2.382 2.431v2.516c0 9.379.197 13.185.442 13.185.246 0 .442-3.806.442-13.185v-2.516a2.426 2.426 0 0 1 2.382-2.431c3.303-.062 8.939-.221 8.939-.418Z"/><path fill="#ff4c29" d="M219.946 166.406c27.644 0 50.054-22.446 50.054-50.134 0-27.69-22.41-50.135-50.054-50.135s-50.054 22.446-50.054 50.135 22.41 50.134 50.054 50.134" opacity=".45"/><path fill="#ff4c29" d="M221.623 116.568s-.086-.148-.111-.16c.321.247-.111.136-.049.099-.321.173-.617.185-.987.049-1.11-.42-1.431-1.767-1.197-2.706.703-2.767 3.725-3.484 6.118-2.409 2.813 1.273 4.983 4.658 4.256 7.796-.728 3.138-3.257 5.535-6.143 6.461-3.207 1.026-7.006.05-8.98-2.779-.567-.816-1.615-1.199-2.528-.667-.814.469-1.246 1.717-.666 2.532 2.935 4.201 8.4 6.079 13.297 4.448 4.896-1.631 9.115-6.301 8.831-11.576s-4.699-10.218-10.127-10.415c-4.909-.186-9.436 4.954-7.289 9.772 1.171 2.644 4.378 4.225 7.08 2.829 2.837-1.457 2.75-5.967-.518-6.819-2.307-.606-3.294 2.977-.987 3.57z" opacity=".7"/><path fill="#000" stroke="#000" stroke-miterlimit="10" stroke-width=".25" d="M267.173 127.343c0-.148-1.814-.271-4.33-.321a1.83 1.83 0 0 1-1.801-1.804c-.061-3.99-.172-6.683-.296-6.683-.123 0-.234 2.705-.296 6.683a1.836 1.836 0 0 1-1.801 1.804c-2.516.05-4.329.173-4.329.321s1.788.272 4.292.322c.999.012 1.801.84 1.801 1.841v1.902c0 7.116.148 7.153.333 7.153s.333-.037.333-7.153v-1.902c0-1.001.802-1.817 1.801-1.841 2.504-.05 4.293-.173 4.293-.322ZM212.733 86.142c0-.062-.765-.111-1.838-.136a.777.777 0 0 1-.764-.766c-.025-1.693-.074-2.842-.124-2.842-.049 0-.098 1.15-.123 2.842 0 .42-.346.754-.765.766-1.073.025-1.838.074-1.838.136s.765.111 1.826.136a.78.78 0 0 1 .765.778v.816c0 3.026.061 3.039.148 3.039.086 0 .148-.013.148-3.04v-.815c0-.42.333-.778.764-.778 1.061-.025 1.826-.074 1.826-.136z"/><path fill="#000" stroke="#000" stroke-miterlimit="10" stroke-width=".5" d="M213.025 147.136c0-.198-5.687-.358-9.029-.42a2.446 2.446 0 0 1-2.393-2.397c-.074-5.288-.222-8.883-.395-8.883s-.321 3.583-.395 8.883a2.437 2.437 0 0 1-2.393 2.397c-3.342.062-5.76.222-5.76.42s2.381.358 5.711.42a2.44 2.44 0 0 1 2.393 2.446v2.533c0 9.439.197 13.269.444 13.269s.444-3.83.444-13.269v-2.533a2.44 2.44 0 0 1 2.393-2.446c3.318-.062 8.98-.223 8.98-.42Z"/></g><path fill="#afafaf" d="M427.331 95.592c.95-10.611 5.803-20.793 11.474-30.482 2.997-5.133 6.39-10.33 11.865-13.984 9.584-6.414 25.036-6.457 34.542-.107 8.134 5.435 11.333 14.2 12.441 22.594 2.253 16.981-2.492 34.54-13.357 49.406-6.885 9.419-16.498 17.959-28.97 22.58-5.732 2.129-12.367 3.374-18.375 1.89-7.198-1.779-12.138-7.218-14.006-12.967-1.88-5.748-1.18-11.825-.263-17.745a266 266 0 0 1 4.311-21.72"/><path fill="#afafaf" d="M428.675 95.58c.94-9.89 5.209-19.077 10.031-27.598 4.274-7.563 9.172-15.01 17.542-18.213 7.278-2.79 15.707-2.855 23.003-.21 7.718 2.788 13.082 9.25 15.509 17.094 5.266 17.015.636 36.503-8.633 51.245-4.586 7.297-10.448 13.873-17.395 18.932-7.318 5.331-16.357 9.688-25.469 9.942-8.416.236-16.499-4.467-19.132-12.883-1.517-4.872-1.138-10.079-.422-15.069s1.695-10.361 2.771-15.488a285 285 0 0 1 1.787-7.895c.414-1.726-2.193-2.423-2.608-.709a264 264 0 0 0-3.534 17.01c-.943 5.42-2.005 10.999-1.699 16.517.498 9.01 5.615 16.879 14.089 19.965 9.437 3.444 20.291-.148 28.776-4.733 7.982-4.311 14.962-10.482 20.569-17.69 11.944-15.34 18.193-35.441 14.696-54.855-1.541-8.56-5.674-16.584-13.049-21.317-7.376-4.733-16.059-5.522-24.134-4.092-4.02.708-8.002 2.137-11.428 4.428-3.894 2.6-6.992 6.159-9.596 10.054-5.675 8.48-10.71 18.175-13.151 28.152a52.4 52.4 0 0 0-1.248 7.462c-.162 1.76 2.539 1.724 2.701-.024z"/><path fill="#fff" d="M457.654 119.829c-2.944 2.824-6.563 5.117-10.4 6.422-1.943.665-4.043 1.026-6.062.605-1.598-.327-4.063-1.477-3.697-3.545.2-1.15-1.531-1.635-1.743-.473-.377 2.117.854 3.962 2.646 4.948 2.165 1.189 4.783 1.263 7.158.814 4.944-.937 9.761-4.01 13.375-7.488.85-.814-.427-2.097-1.277-1.283M461.444 63.721c3.518-.154 7.167-.26 10.104 1.985 2.624 2.015 4.94 5.06 6.606 7.915 3.707 6.355 2.735 13.887 1.677 20.871-.176 1.15 1.566 1.635 1.743.473 1.163-7.693 2.109-15.824-2.14-22.736-1.859-3.024-4.355-6.275-7.255-8.312-3.165-2.231-7.043-2.172-10.741-2.016-1.152.048-1.158 1.88.006 1.832zM477.054 104.141c-2.288 9.011-8.712 16.3-16.38 21.121-.982.62-.077 2.2.918 1.58 8.064-5.069 14.798-12.765 17.204-22.228.297-1.139-1.446-1.612-1.742-.473"/><path fill="#000" d="M366.9 102.655c-9.948 9.007-21.51 16.649-34.479 19.675-4.883 1.131-9.888 1.605-14.746 2.858-13.292 3.431-24.717 12.514-38.082 15.628-1.379.318-2.867.564-4.154.001-2.309-1.005-2.932-4.297-1.859-6.628s3.301-3.865 5.506-5.119c6.28-3.563 13.452-5.974 18.309-11.38 1.543-1.712 2.785-3.678 4.413-5.318 2.417-2.44 5.534-4.02 8.59-5.562 4.867-2.451 9.758-4.902 14.939-6.549 13.062-4.15 27.39-2.864 40.252 1.746"/><path fill="#fff" d="M365.947 101.687c-9.9 8.934-21.389 16.526-34.443 19.442-6.886 1.541-13.8 2.203-20.443 4.767-6.152 2.377-11.94 5.569-17.886 8.408-3.033 1.445-6.115 2.792-9.293 3.859-2.291.766-7.59 3.172-9.064.181s1.11-5.617 3.338-7.103c2.612-1.746 5.525-3.043 8.318-4.449s5.574-2.848 8.089-4.728 4.489-4.242 6.486-6.74c2.212-2.781 4.895-4.662 7.999-6.291 3.105-1.628 6.401-3.283 9.674-4.742 7.349-3.304 15.051-5.133 23.084-5.181 8.032-.05 15.925 1.54 23.462 4.208 1.647.583 2.335-2.074.712-2.657-14.16-5.026-29.904-6.092-44.15-.624-3.61 1.388-7.11 3.082-10.574 4.811-3.201 1.605-6.485 3.149-9.239 5.495s-4.544 5.636-7.238 8.067c-2.538 2.283-5.57 3.935-8.578 5.477-3.009 1.542-5.982 2.852-8.786 4.6-2.492 1.549-5.006 3.747-5.537 6.83-.447 2.569.487 5.516 2.928 6.691 3.006 1.439 7.143-.285 10.069-1.276 6.716-2.285 12.972-5.725 19.338-8.825 3.26-1.581 6.557-3.064 9.987-4.232 3.67-1.255 7.438-1.997 11.254-2.643 4.128-.697 8.232-1.431 12.237-2.75 3.778-1.243 7.447-2.865 10.959-4.741 6.987-3.753 13.347-8.599 19.249-13.93 1.304-1.184-.623-3.097-1.916-1.924z"/><path fill="#000" d="M295.309 82.107a29.6 29.6 0 0 0-9.213 9.844c-.692 1.203-1.36 2.516-2.547 3.199-1.977 1.142-4.382.076-6.569-.49-6.633-1.735-13.467 1.295-19.992 3.468a83.6 83.6 0 0 1-14.612 3.431c-4.153.588-8.823.704-11.99-2.065-.265-.23-.542-.52-.591-.874-.098-.67.573-1.178 1.16-1.513 8.545-4.805 17.658-8.43 26.747-12.044 2.314-.925 4.652-1.85 7.088-2.324 2.988-.59 6.062-.495 9.112-.389 7.097.241 14.205.47 21.302.71"/><path fill="#fff" d="M294.62 80.929c-3.402 2.303-6.322 5.188-8.628 8.63-.992 1.474-1.836 4.108-3.683 4.638-2.027.593-4.565-.862-6.56-1.186-4.36-.681-8.727.324-12.877 1.656-4.15 1.333-8.527 2.985-12.93 4.051s-8.71 2.046-13.045 1.768c-1.573-.095-3.964-.428-5.144-1.639-.711-.726-.481.005-.122-.56.203-.308 1.162-.646 1.486-.82a106 106 0 0 1 3.5-1.828c4.099-2.065 8.295-3.911 12.54-5.672s8.728-3.769 13.214-5.19c5.277-1.672 10.838-1.088 16.254-.905s11.047.363 16.571.545c1.741.058 1.732-2.69-.009-2.748-5.428-.183-10.855-.366-16.271-.536-5.415-.17-10.544-.747-15.619.52-5.074 1.269-9.677 3.521-14.354 5.457-4.712 1.95-9.4 3.983-13.955 6.296-1.09.548-2.181 1.12-3.248 1.703-.971.522-2.158 1.022-2.827 1.969-1.195 1.696.107 3.211 1.479 4.164 3.393 2.351 7.847 2.249 11.748 1.725a84.6 84.6 0 0 0 15.201-3.51c4.677-1.557 9.401-3.604 14.359-3.893 2.869-.16 5.273.746 8.036 1.27 2.343.456 4.515.02 6.081-1.936 1.567-1.957 2.52-4.213 4.098-6.12a29 29 0 0 1 6.058-5.492c1.449-.978.085-3.348-1.377-2.357z"/><path fill="#000" d="M467.53 70.931c-21.033 4.382-43.3 2.276-63.114-5.972-1.852-.777-3.715-1.603-5.698-1.94-3.652-.613-7.346.532-10.908 1.566-25.406 7.353-51.884 9.817-78.234 11.144-2.569.133-5.234.28-7.524 1.498-1.63.882-2.946 2.25-4.238 3.605L283.276 96.1c-2.309 2.427-4.642 4.892-6.218 7.85-1.861 3.474-2.569 7.45-3.24 11.341a2089 2089 0 0 0-6.756 41.336c1.337 1.233 3.533.981 5.006-.095s2.381-2.758 3.18-4.414a101.6 101.6 0 0 0 6.749-17.847c1.862-6.784 3.028-13.781 5.576-20.327 4.905-12.578 14.622-22.658 25.329-30.707-8.441 7.137-17.253 14.778-21.001 25.268-1.392 3.885-2.014 8.007-2.469 12.116a170 170 0 0 0-.417 33.888c5.874-2.68 10.227-8.204 12.5-14.32 2.273-6.128 2.647-12.825 2.169-19.344-.276-3.638-.578-7.873 2.092-10.328.897-.827 2.048-1.338 2.898-2.201 1.268-1.294 1.719-3.167 2.253-4.907 2.067-6.7 6.334-12.675 11.952-16.77a35.7 35.7 0 0 0-9.957 13.747c-2.108 5.199-2.978 10.813-3.824 16.367l-3.456 22.678c-.047.318-.093.672.076.952.301.498 1.021.406 1.573.218 7.412-2.584 10.769-11.202 12.629-18.939 1.872-7.737 3.656-16.377 10.028-21.028 4.863-3.55 11.346-3.829 17.232-2.868 5.887.96 11.573 3.021 17.506 3.688 7.891.881 15.87-.731 23.819-.547 7.637.175 15.135 2.024 22.514 3.997a592 592 0 0 1 36.163 10.908s11.821-8.988 17.325-22.01c6.732-15.916 2.999-22.845 2.999-22.845z"/><path fill="#fff" d="M467.165 69.602c-16.138 3.323-32.948 2.828-48.835-1.388a106 106 0 0 1-11.551-3.779c-3.775-1.48-7.394-3.28-11.632-2.899s-8.158 1.882-12.164 2.957a232 232 0 0 1-12.658 2.986c-17.169 3.564-34.633 5.311-52.099 6.386-4.069.245-8.224.21-12.268.784-1.764.248-3.48.716-5.025 1.646-1.714 1.042-3.102 2.557-4.49 4.01l-9.141 9.6c-3.051 3.203-6.175 6.163-8.866 9.571s-4.322 7.393-5.244 11.738c-1.005 4.797-1.721 9.665-2.534 14.498a2189 2189 0 0 0-4.906 30.57c-.071.452-.045 1.014.352 1.328 1.963 1.57 4.58 1.558 6.652.098 2.312-1.621 3.48-4.441 4.636-6.931a106.3 106.3 0 0 0 6.567-18.639c1.611-6.403 2.862-13.17 5.543-19.338 2.336-5.384 5.585-10.324 9.365-14.756 4.365-5.109 9.393-9.6 14.723-13.62l-1.64-2.146c-7.172 6.063-14.595 12.421-19.13 20.878-2.434 4.554-3.691 9.501-4.37 14.588-.762 5.687-1.199 11.42-1.361 17.15-.182 6.549.019 13.107.593 19.624.1 1.099 1.074 1.627 2.033 1.167 9.638-4.522 14.37-15.07 15.297-25.327.278-3.081.256-6.183.042-9.259-.164-2.381-.473-4.894.216-7.221.784-2.67 3.399-3.268 4.929-5.31 1.447-1.919 1.811-4.426 2.644-6.632a31.57 31.57 0 0 1 10.724-14.133l-1.64-2.147c-3.832 3.296-7.024 7.368-9.242 11.957-2.433 5.03-3.58 10.501-4.45 15.993-.953 5.994-1.834 12-2.75 17.994-.224 1.492-.459 2.984-.682 4.477-.188 1.26-.652 2.742-.515 4.023.248 2.502 2.84 2.075 4.459 1.364 7.973-3.493 10.907-12.9 12.802-20.772 2.121-8.839 4.753-18.964 14.65-21.436 5.159-1.293 10.517-.365 15.587.835 5.54 1.317 10.972 2.819 16.699 2.963 5.728.143 11.812-.719 17.731-.809s11.769.845 17.525 2.185c11.367 2.657 22.604 6.061 33.734 9.599a720 720 0 0 1 8.57 2.793c1.214.404 1.658.315 2.544-.402a61 61 0 0 0 5.327-4.898c6.533-6.692 11.466-14.58 14.198-23.607 1.556-5.132 2.855-11.556.977-16.792a8 8 0 0 0-.375-.9c-.821-1.556-3.146-.143-2.325 1.413.037.061.061.122.085.183-.158-.487.061.158.109.329.243.767.414 1.547.512 2.353.432 3.477-.109 7.06-.95 10.428-2.453 9.77-7.708 18.233-14.745 25.272a71 71 0 0 1-3.555 3.319c-.359.308-.719.617-1.09.913-.179.149.084-.049-.215.173l1.044-.144a622 622 0 0 0-23.293-7.312c-7.752-2.262-15.551-4.573-23.469-6.15-3.857-.771-7.773-1.334-11.699-1.47-3.927-.134-8.14.221-12.209.503-4.069.281-8.139.489-12.175.038-4.035-.452-7.809-1.554-11.666-2.496-6.501-1.565-13.625-2.746-20.064-.135-5.887 2.387-9.364 7.573-11.482 13.431s-2.806 12.058-5.152 17.796c-1.12 2.734-2.588 5.398-4.658 7.505a13.6 13.6 0 0 1-3.21 2.424c-.288.149-1.558.918-1.87.774.613.276.855-2.841.914-3.16 1.387-9.112 2.413-18.393 4.34-27.413 1.774-8.322 5.532-15.649 11.997-21.192 1.162-1-.394-3.063-1.64-2.147-4.072 3.017-7.493 6.847-9.94 11.34-1.229 2.271-2.146 4.661-2.906 7.136-.368 1.212-.748 2.498-1.646 3.423-.849.875-2.012 1.374-2.898 2.2-3.723 3.491-2.503 9.307-2.332 13.825.224 6.007-.356 12.254-2.811 17.822-2.312 5.249-6.152 9.706-11.318 12.135l2.032 1.167c-.96-11.071-.865-22.236.347-33.302.572-5.184 1.407-10.42 3.673-15.167 1.979-4.159 4.764-7.837 7.875-11.176 3.59-3.856 7.589-7.263 11.6-10.66 1.173-.987-.407-3.073-1.64-2.146-8.708 6.577-16.774 14.334-22.302 23.912-6.232 10.794-7.32 23.324-11.412 34.929a98 98 0 0 1-4.062 9.785c-.656 1.362-1.299 2.858-2.34 3.979-.969 1.059-2.779 2.041-4.103.99l.353 1.328a2034 2034 0 0 1 6.543-40.137c.684-3.952 1.259-8.098 3.072-11.73s4.757-6.468 7.509-9.352l9.142-9.598c1.495-1.578 2.991-3.167 4.498-4.732 1.376-1.43 2.813-2.81 4.696-3.487s3.827-.731 5.748-.834c2.113-.105 4.238-.222 6.35-.34 17.034-.985 34.078-2.582 50.877-5.788a253 253 0 0 0 12.418-2.69c4.115-1.003 8.109-2.249 12.176-3.288 2.027-.519 4.115-.904 6.217-.74s4.025 1.013 5.925 1.814a110 110 0 0 0 11.203 4.003c17.198 5.083 35.547 5.796 53.136 2.179 1.704-.346.975-2.99-.729-2.644zM203.24 182.698c6.67.193 13.52.364 19.837-1.834 1.912-.659 3.732-1.541 5.565-2.397 5.327-2.512 10.714-4.985 16.434-6.291 4.175-.957 8.563-1.249 12.747-.482 1.495.274 1.65 2.404.221 2.938-8.186 3.104-16.384 6.207-24.57 9.31-1.913.72-3.838 1.452-5.808 2.001-8.203 2.308-17.806.688-25.425-3.142"/><path fill="#000" d="M203.208 184.077c7.33.218 14.806.328 21.736-2.469 7.015-2.821 13.549-6.629 21.004-8.231a32.4 32.4 0 0 1 7.988-.735c.804.028 2.811-.103 3.509.363.639.416-.385.542-.833.717-.932.361-1.865.709-2.797 1.057-1.865.709-3.718 1.407-5.582 2.116-3.912 1.475-7.823 2.963-11.722 4.439-3.476 1.313-6.956 2.834-10.587 3.631-7.674 1.707-15.968.113-22.948-3.35-1.555-.764-2.977 1.58-1.422 2.344 6.885 3.412 14.673 5.094 22.33 4.12 4.238-.54 8.189-2.174 12.16-3.673 4.287-1.627 8.562-3.243 12.848-4.87 2.047-.779 4.093-1.558 6.14-2.324 1.538-.581 3.959-.961 4.906-2.471a3.04 3.04 0 0 0-.139-3.353c-1.037-1.377-3.139-1.333-4.685-1.449-8.436-.643-16.549 2.425-24.119 5.895-4.416 2.028-8.643 4.182-13.463 4.98-4.82.797-9.51.619-14.248.477-1.74-.046-1.803 2.703-.063 2.75z"/><path fill="#fff" d="M168.93 178.462c18.811 5.237 38.61 6.642 57.122.294 2.057-.705 4.092-1.484 6.023-2.486 2.272-1.19 4.371-2.677 6.47-4.176 3.283-2.332 6.553-4.676 9.836-7.008.024-.011.037-.023.061-.035 1.696-1.214.822-3.933-1.243-3.912-9.654.103-17.026 3.32-26.409 6.779-3.499 1.288-8.624 2.336-12.299 2.912-3.277.522-7.825-.081-11.015.846-2.55.745-4.839 2.143-7.219 3.331-6.521 3.27-14.065 3.488-21.327 3.443"/><path fill="#000" d="M168.54 179.778c11.834 3.265 24.143 5.133 36.44 4.409 5.974-.347 11.926-1.293 17.69-2.94 2.924-.835 5.827-1.805 8.605-3.07 2.778-1.266 5.242-2.978 7.707-4.727 2.697-1.915 5.394-3.843 8.091-5.77 1.733-1.238 3.981-2.416 3.559-4.955-.37-2.22-2.236-3.015-4.242-2.957a47.4 47.4 0 0 0-8.415 1.021c-10.856 2.304-20.841 8.477-32.11 8.879-2.824.103-5.748-.113-8.513.615-3.104.819-5.788 2.673-8.686 3.973-6.162 2.764-13.103 2.86-19.704 2.828-1.741-.01-1.804 2.74-.063 2.749 5.305.019 10.697-.07 15.877-1.374 2.56-.647 4.983-1.638 7.316-2.864s4.741-2.584 7.414-2.947c2.396-.319 4.829-.125 7.233-.273s4.6-.631 6.856-1.1c5.186-1.084 10.02-3.018 14.995-4.815s10.053-3.36 15.321-3.806c.914-.08 2.894-.555 3.686-.05.994.631-.068 1.417-.605 1.798-2.538 1.808-5.088 3.616-7.627 5.437-2.355 1.677-4.688 3.428-7.217 4.834s-5.265 2.402-8.01 3.265a77.8 77.8 0 0 1-16.642 3.316c-12.87 1.128-25.781-.691-38.175-4.114-1.671-.461-2.451 2.177-.781 2.638"/><path fill="#fff" d="M147.4 147.847c11.119-1.713 23.086 13.009 33.976 13.969 8.686.77 16.387-5.288 24.73-7.936a32.7 32.7 0 0 1 17.468-.597c1.492.359 1.999 2.325.871 3.391-1.951 1.832-4.277 3.278-6.589 4.626a161.2 161.2 0 0 1-37.71 15.993c-3.685 1.028-7.499 1.943-11.28 1.404-3.111-.44-5.881-2.145-8.834-3.218-25.549-9.268-44.397-17.561-65.222-34.438-1.71-1.39-3.84-2.19-5.413-3.725-1.456-1.422-2.568-3.168-3.754-4.841-10.639-15.088-29.21-26.077-45.236-34.974"/><path fill="#000" d="M147.731 149.171c3.745-.513 7.467 1.003 10.717 2.705 3.725 1.956 7.187 4.372 10.799 6.521 3.256 1.959 6.754 3.874 10.519 4.559 4.459.809 8.926-.277 13.081-1.943 4.495-1.794 8.74-4.241 13.36-5.739 5.225-1.695 11.092-2.117 16.44-.814 1.111.267 1.327.76.469 1.562-1.092 1.018-2.36 1.873-3.615 2.667-2.229 1.411-4.539 2.698-6.848 3.949a160 160 0 0 1-14.577 6.974 156 156 0 0 1-15.383 5.492c-5.209 1.56-11.026 3.438-16.467 1.473-2.477-.892-4.839-2.064-7.315-2.968a634 634 0 0 1-7.26-2.698 321 321 0 0 1-13.144-5.295c-8.44-3.626-16.676-7.761-24.524-12.598a173 173 0 0 1-12.01-8.134 193 193 0 0 1-5.862-4.528c-1.815-1.466-4.063-2.403-5.755-4.001-1.81-1.71-3.078-3.973-4.557-5.97a66 66 0 0 0-4.474-5.394c-3.174-3.448-6.668-6.586-10.31-9.506-7.497-6.015-15.687-11.091-23.994-15.839a350 350 0 0 0-5.902-3.319c-1.517-.849-2.939 1.495-1.422 2.344 8.712 4.841 17.36 9.84 25.424 15.745 4.086 2.99 7.998 6.196 11.613 9.764 3.616 3.567 6.47 7.328 9.392 11.346 1.524 2.108 3.205 3.682 5.407 5.009s4.169 3.003 6.21 4.584a176 176 0 0 0 12.427 8.765c8.092 5.184 16.622 9.582 25.393 13.446 9.495 4.197 19.296 7.63 28.906 11.535 5.483 2.235 10.98 1.194 16.514-.372a159 159 0 0 0 16.043-5.491 160 160 0 0 0 15.238-7.035 147 147 0 0 0 7.162-4.003 44 44 0 0 0 3.608-2.374c.94-.703 2.122-1.462 2.793-2.451.969-1.448.667-3.459-.676-4.549-.931-.752-2.213-.875-3.349-1.068a35 35 0 0 0-4.202-.474c-5.48-.279-10.764.888-15.819 3.002-4.702 1.973-9.192 4.586-14.142 5.834-4.358 1.087-8.428.567-12.453-1.346-7.576-3.609-14.199-10.071-22.561-11.825a16 16 0 0 0-5.554-.207c-1.722.235-1.05 2.901.66 2.665"/><defs><clipPath id="a"><path fill="#fff" d="M169.892 66.137H270v100.579H169.892z"/></clipPath></defs></svg>
