<svg xmlns="http://www.w3.org/2000/svg" width="387" height="150" fill="none"><path fill="#afafaf" d="M55.648 57.262c-.049 9.875-2.693 19.458-5.893 28.616-1.696 4.846-3.647 9.77-7.049 13.33-5.956 6.228-16.119 6.731-22.716 1.127-5.646-4.797-8.214-12.837-9.4-20.584-2.395-15.679-.23-32.106 6.11-46.224 4.021-8.937 9.881-17.15 17.841-21.809 3.657-2.14 7.949-3.5 11.985-2.307 4.822 1.43 8.372 6.339 9.915 11.612 1.545 5.282 1.415 10.933 1.127 16.448-.348 6.775-.9 13.545-1.66 20.27"/><path fill="#afafaf" d="M54.637 57.138c-.068 8.18-1.868 16.19-4.348 23.935-2.15 6.709-4.425 14.802-10.274 19.118-4.909 3.617-11.729 3.916-16.973.989-6.053-3.377-9.078-10.558-10.598-17.162-3.401-14.8-2.022-31.063 3.239-45.276 2.512-6.804 5.952-13.346 10.686-18.794 4.402-5.064 11.32-10.723 18.315-9.846s10.76 8.881 11.657 15.432c.595 4.285.39 8.63.154 12.941-.236 4.313-.553 8.58-.951 12.851-.2 2.098-.418 4.199-.647 6.292-.15 1.35 1.88 1.599 2.029.248.52-4.64.948-9.296 1.273-13.953.326-4.658.635-9.048.547-13.574-.15-7.512-2.142-16.155-8.706-20.427-6.565-4.273-14.574-.754-20.213 3.813-5.795 4.696-10.11 11.101-13.343 17.867-7.123 14.886-9.407 32.221-6.88 48.505 1.13 7.233 3.392 14.858 8.642 20.039 4.718 4.658 11.623 6.271 17.896 4.305 7.232-2.259 11.094-8.868 13.677-15.758 2.996-7.999 5.516-16.377 6.46-24.914.234-2.122.365-4.256.376-6.39.012-1.348-2.018-1.606-2.029-.25z"/><path fill="#fff" d="M34.37 35.47c1.659-2.53 3.876-4.918 6.538-6.307 1.266-.661 2.747-1.043 4.119-.52 1.372.524 2.26 1.823 2.161 3.304-.064.899 1.285 1.067 1.349.168.112-1.644-.622-3.27-1.944-4.208-1.412-1-3.216-1.096-4.826-.6-1.794.555-3.404 1.761-4.805 3.02a22 22 0 0 0-3.677 4.319c-.488.747.6 1.58 1.087.832zM35.034 88.029c-1.366.136-2.766.288-4.111-.071-1.345-.36-2.45-1.356-3.354-2.487-1.765-2.212-3.357-4.755-4.44-7.397-2.355-5.766-2.05-12.24-1.758-18.363.046-.9-1.31-1.077-1.354-.168-.317 6.78-.608 14.004 2.366 20.252 1.282 2.686 2.996 5.571 5.093 7.665s4.874 2.269 7.758 1.97c.868-.087.669-1.48-.2-1.392zM22.578 50.624c.898-7.578 4.194-14.838 9.556-20.134.626-.62-.209-1.723-.853-1.1-5.627 5.555-9.11 13.11-10.055 21.066-.11.9 1.242 1.068 1.352.168M41.87 34.389C20.23 56.73 29.859 75.222 38.95 83.223l.62-.078c16.351 5.836 36.617 15.415 53.405 22.65 4.753 2.05 11.211 4.592 16.231 5.759 4.31 1.003 19.67 5.27 24.05 5.864 14.604 1.981 18.23-3.934 32.665-.962 6.101 1.254 14.298 1.886 20.513 1.503s12.497-2.291 17.336-6.361l1.713-.428c-11.516-4.422-24.206-3.492-36.475-4.35-12.269-.859-25.526-4.29-32.792-14.545 1.829-3.069 5.489-4.388 8.932-4.86 3.442-.47 7.015-.347 10.299-1.541 3.285-1.194 6.336-4.218 6.135-7.812-.016-.367-.079-.745-.235-1.071-.798-1.684-3.197-1.139-4.894-.476-15.854 6.176-34.274-.131-50.148 5.973-1.741.67-3.514 1.505-5.365 1.405-2.837-.153-5.093-2.386-7.099-4.468a384.3 384.3 0 0 0-51.964-45.047"/><path fill="#000" d="M41.23 33.568c-5.82 6.04-10.923 13.199-12.8 21.643a28.75 28.75 0 0 0 1.668 17.596c1.023 2.368 2.365 4.601 3.916 6.632a35 35 0 0 0 2.29 2.671c.698.725 1.741 2.143 2.784 2.15.146-.003.59-.025.497-.04.15.025.932.386 1.26.505 1.022.37 2.036.752 3.051 1.142q3.164 1.21 6.295 2.483c4.461 1.803 8.898 3.695 13.312 5.61 8.807 3.822 17.554 7.796 26.354 11.639 4.152 1.814 8.325 3.576 12.594 5.059 3.115 1.076 6.278 1.851 9.455 2.661 6.109 1.565 12.184 3.277 18.352 4.615a41.8 41.8 0 0 0 10.25.927c3.448-.112 7.017-.849 10.512-1.47 3.831-.693 7.636-.927 11.51-.424 2.254.292 4.468.826 6.72 1.166s4.506.584 6.77.752c8.942.667 18.385.358 26.185-4.808.493-.323.965-.671 1.435-1.029.09-.071.644-.611.316-.409.05-.036.188-.029.23-.055.44-.182.979-.247 1.448-.358.918-.229 1.247-1.634.232-2.025-18.52-7.012-39.371-.623-57.495-9.277-4.453-2.127-8.419-5.2-11.359-9.285l.018 1.284c3.231-5.162 10.116-4.372 15.204-5.166 4.488-.7 9.926-3.396 10.343-8.744.178-2.272-.891-4.13-3.217-4.165-2.327-.034-4.833 1.36-7.169 1.962-5.65 1.469-11.505 1.682-17.298 1.697-5.792.014-11.302-.167-16.93.36-2.85.266-5.691.728-8.461 1.492-1.292.363-2.567.78-3.824 1.26-1.584.617-3.236 1.404-4.973 1.212-2.544-.285-4.533-2.436-6.238-4.205a371 371 0 0 0-6.29-6.365 383.578 383.578 0 0 0-45.715-38.715c-1.07-.77-2.292.917-1.212 1.695a385 385 0 0 1 41.32 34.43 337 337 0 0 1 6.602 6.496c1.931 1.943 3.77 4.013 5.788 5.856 1.755 1.601 3.847 2.94 6.26 2.943 2.843.001 5.507-1.636 8.201-2.417 5.469-1.582 11.198-1.909 16.849-1.958s11.044.15 16.558-.218c2.733-.19 5.455-.52 8.131-1.108a43 43 0 0 0 3.845-1.046c1.189-.384 2.35-.953 3.58-1.174 1.318-.243 2.234-.036 2.17 1.564-.049 1.324-.652 2.545-1.469 3.544-2.017 2.454-5.062 3.28-8.035 3.65-5.477.684-12.26.417-15.678 5.874-.252.409-.257.892.019 1.285 5.347 7.44 13.731 11.376 22.281 13.326 9.825 2.244 19.925 1.737 29.897 2.443 5.947.426 11.884 1.298 17.507 3.43l.233-2.024c-.601.15-1.266.226-1.844.468-.69.287-1.299.95-1.914 1.387q-1.097.768-2.267 1.405c-2.977 1.62-6.215 2.627-9.531 3.154-6.293.992-12.915.511-19.198-.354-3.171-.443-6.291-1.234-9.491-1.501a36.2 36.2 0 0 0-8.009.237c-5.046.703-9.931 2.015-15.073 1.852-4.434-.141-8.675-1.164-12.967-2.227s-8.787-2.273-13.189-3.404c-5.245-1.339-10.337-2.949-15.373-5.003-5.988-2.446-11.894-5.15-17.807-7.777-12.198-5.424-24.38-10.935-36.9-15.532-1.022-.38-1.892-.774-2.98-.652l.758.194c-3.933-3.485-7.016-8.06-8.622-13.168-2.107-6.705-1.154-13.87 1.74-20.172 2.385-5.201 5.929-9.768 9.838-13.825.916-.948-.344-2.607-1.275-1.638z"/><g clip-path="url(#a)"><path fill="#ff4c29" stroke="#ff4c29" stroke-miterlimit="10" stroke-width=".5" d="M169.285 107.283c0-.151-4.257-.274-6.759-.321-.979-.019-1.773-.831-1.791-1.833-.056-4.042-.167-6.79-.296-6.79s-.24 2.739-.295 6.79c-.019 1.002-.804 1.814-1.792 1.833-2.502.047-4.312.17-4.312.321s1.782.274 4.275.321c.998.019 1.792.85 1.792 1.87v1.936c0 7.216.147 10.143.332 10.143s.333-2.927.333-10.143v-1.936c0-1.02.794-1.851 1.791-1.87 2.484-.047 6.722-.17 6.722-.321Z"/><path fill="#ff4c29" d="M173.088 120.341c20.79 0 37.644-17.268 37.644-38.57 0-21.3-16.854-38.569-37.644-38.569s-37.643 17.268-37.643 38.57c0 21.301 16.853 38.569 37.643 38.569" opacity=".45"/><path fill="#ff4c29" d="M177.272 84.319c.241-1.065.037.513.056.01-.019.522-.177-.647-.167-.343-.019-.484.194-.865.565-1.16.752-.617 1.781-.408 2.524.105 1.948 1.322 1.465 4.04.185 5.684-1.503 1.92-3.998 2.7-6.206 1.673-1.929-.884-3.46-2.7-3.979-4.8-.993-3.944 1.586-6.644 5.092-7.651 1.893-.542 3.989-.751 5.937-.437 2.598.408 4.379 2.024 5.594 4.343s2.096 5.123 1.697 7.718c-.333 2.195-1.558 4.125-3.107 5.636-3.488 3.403-8.868 4.79-13.506 3.45-4.24-1.226-7.561-4.885-8.859-9.143-1.401-4.562-.39-9.533 2.133-13.468 4.861-7.556 15.417-10.027 23.108-5.712 6.298 3.526 9.564 10.35 9.007 17.612s-5.232 14.447-11.837 17.878c-8.089 4.201-18.302 3.231-25.426-2.538-7.087-5.731-11.354-15.692-9.379-24.902 1.058-4.942 4.156-9.704 7.635-13.22s8.154-6.369 12.959-7.633c2.356-.618 4.833-.846 7.245-.466 1.753.276 2.504-2.47.742-2.746-12.412-1.94-24.258 7.47-29.527 18.353-5.222 10.778-1.039 24.37 7.57 31.964s21.103 8.772 30.816 2.956c7.866-4.715 12.829-14.096 11.948-23.458s-8.368-17.63-17.996-18.657c-11.169-1.188-21.976 7.309-22.431 19.095-.222 5.721 2.477 11.281 7.004 14.618 4.889 3.602 11.493 3.564 16.781.893 5.287-2.67 8.701-7.813 7.811-13.715-.455-3.022-1.735-6.225-3.739-8.526-2.003-2.3-5.037-3.298-8.079-3.298-4.203 0-9.453 1.426-11.42 5.656-2.309 4.98.659 10.996 5.464 12.954 5.39 2.205 12.18-3.07 10.668-9.134-.622-2.5-3.052-4.448-5.603-4.315-2.681.143-5.046 2.985-3.877 5.703 1.02 2.376 4.628 2.557 5.268-.228.409-1.787-2.272-2.547-2.68-.76z" opacity=".7"/><path fill="#000" stroke="#000" stroke-miterlimit="10" stroke-width=".25" d="M208.01 88.736c0-.127-1.535-.233-3.666-.275a1.557 1.557 0 0 1-1.525-1.544c-.052-3.416-.147-5.722-.251-5.722s-.198 2.316-.251 5.722a1.564 1.564 0 0 1-1.525 1.544c-2.131.042-3.666.148-3.666.275s1.514.233 3.635.275c.846.01 1.525.719 1.525 1.576v1.628c0 6.092.125 6.124.282 6.124s.282-.032.282-6.124v-1.628c0-.857.679-1.555 1.525-1.576 2.121-.042 3.635-.148 3.635-.275ZM168.538 60.993c0-.034-.443-.06-1.065-.074a.437.437 0 0 1-.443-.417c-.015-.922-.043-1.547-.072-1.547s-.057.626-.071 1.547c0 .228-.2.41-.444.417-.622.013-1.065.04-1.065.074s.443.06 1.058.074a.44.44 0 0 1 .444.423v.444c0 1.648.035 1.654.085 1.654s.086-.006.086-1.654v-.444c0-.228.193-.423.444-.423.614-.014 1.058-.04 1.058-.074z"/><path fill="#000" stroke="#000" stroke-miterlimit="10" stroke-width=".5" d="M167.43 105.979c0-.152-4.277-.275-6.791-.323-.983-.019-1.781-.836-1.799-1.844-.056-4.068-.167-6.834-.297-6.834s-.241 2.757-.297 6.834c-.018 1.008-.807 1.825-1.799 1.844-2.514.048-4.332.171-4.332.323s1.79.276 4.294.323c1.002.019 1.8.856 1.8 1.882v1.949c0 7.261.148 10.208.334 10.208s.334-2.947.334-10.208v-1.949c0-1.026.798-1.863 1.8-1.882 2.495-.047 6.753-.171 6.753-.323Z"/></g><path fill="#afafaf" d="M323.219 50.036c-.904-8.1 1.152-16.52 3.889-24.708 1.445-4.336 3.173-8.785 6.68-12.422 6.135-6.38 17.589-8.958 25.602-5.77 6.857 2.727 10.558 8.761 12.653 14.862 4.245 12.34 3.388 26.266-2.416 39.184-3.678 8.185-9.513 16.161-18.062 21.675-3.929 2.538-8.662 4.563-13.343 4.442-5.608-.146-10.097-3.404-12.353-7.399-2.266-3.993-2.668-8.657-2.886-13.24a206 206 0 0 1-.095-16.968"/><path fill="#afafaf" d="M324.216 49.807c-.802-7.558.97-15.138 3.255-22.31 2.023-6.366 4.527-12.747 10.248-16.524 4.976-3.287 11.217-4.724 17.029-3.946 6.146.815 11.104 4.768 14.093 10.24 6.486 11.869 6.006 27.218 1.367 39.78-2.295 6.218-5.645 12.106-10.031 17.037-4.619 5.196-10.662 9.947-17.381 11.638-6.206 1.563-12.914-.625-16.143-6.491-1.863-3.397-2.371-7.357-2.597-11.21s-.314-8.035-.293-12.05c.011-2.07.06-4.14.128-6.204.046-1.36-1.994-1.452-2.041-.101-.157 4.44-.175 8.875-.042 13.315.122 4.212.18 8.563 1.244 12.643 1.735 6.662 6.722 11.709 13.476 12.623 7.52 1.023 15.025-3.454 20.623-8.283 5.267-4.542 9.507-10.311 12.573-16.63 6.533-13.451 8.12-29.527 2.583-43.482-2.441-6.154-6.722-11.48-12.91-13.807s-12.746-1.487-18.519.913c-2.874 1.193-5.61 2.918-7.804 5.197-2.493 2.588-4.251 5.762-5.592 9.107-2.924 7.282-5.188 15.37-5.485 23.24a40.4 40.4 0 0 0 .205 5.79c.147 1.345 2.145.872 2-.463z"/><path fill="#fff" d="M349.538 63.265c-1.743 2.58-4.063 4.876-6.695 6.472-1.332.81-2.826 1.42-4.378 1.436-1.228.016-3.22-.439-3.264-2.037-.027-.888-1.377-.968-1.357-.068.043 1.636 1.231 2.81 2.702 3.251 1.777.533 3.718.162 5.402-.559 3.503-1.501 6.588-4.572 8.726-7.748.503-.744-.633-1.49-1.136-.747M343.526 20.522c2.583-.693 5.273-1.37 7.792-.169 2.253 1.081 4.433 2.984 6.104 4.852 3.717 4.156 4.146 9.963 4.427 15.372.045.89 1.41.969 1.364.069-.311-5.959-.851-12.21-5.054-16.694-1.84-1.963-4.186-3.991-6.646-5.043-2.687-1.154-5.552-.474-8.269.25-.847.223-.572 1.598.284 1.372zM361.401 48.369c-.321 7.124-3.967 13.637-8.91 18.504-.633.625.278 1.66.92 1.033 5.198-5.118 9.012-11.985 9.352-19.469.046-.901-1.316-.97-1.362-.068"/><path fill="#000" d="M280.238 64.753c-5.98 8.326-13.356 15.9-22.469 20.27-3.432 1.639-7.054 2.808-10.45 4.535-9.29 4.724-16.347 13.347-25.739 17.847-.97.462-2.031.888-3.066.68-1.855-.371-2.812-2.718-2.373-4.627s1.852-3.415 3.289-4.708c4.096-3.676 9.024-6.641 11.791-11.457.88-1.526 1.499-3.19 2.452-4.676 1.415-2.21 3.476-3.895 5.499-5.542 3.22-2.618 6.459-5.24 10.033-7.312 9.012-5.222 19.779-6.606 29.967-5.278"/><path fill="#fff" d="M279.392 64.183c-5.956 8.265-13.287 15.792-22.48 20.095-4.849 2.272-9.852 3.894-14.367 6.888-4.18 2.775-7.97 6.096-11.929 9.18-2.02 1.57-4.09 3.077-6.274 4.39-1.575.944-5.122 3.6-6.662 1.616-1.541-1.985-.03-4.361 1.39-5.831 1.663-1.726 3.617-3.167 5.466-4.67 1.849-1.502 3.683-3.03 5.255-4.84s2.671-3.89 3.767-6.075c1.212-2.43 2.908-4.269 4.953-5.988s4.227-3.489 6.422-5.11c4.925-3.659 10.332-6.279 16.253-7.628s11.986-1.456 17.951-.703c1.304.165 1.41-1.924.124-2.093-11.21-1.426-22.99.354-32.677 6.75-2.454 1.624-4.781 3.456-7.077 5.309-2.119 1.717-4.31 3.403-5.987 5.599-1.678 2.195-2.502 4.936-4.122 7.185-1.528 2.114-3.516 3.838-5.503 5.478s-3.984 3.1-5.789 4.858c-1.605 1.56-3.128 3.606-3.053 5.987.058 1.985 1.193 4.025 3.172 4.5 2.436.579 5.228-1.379 7.238-2.595 4.611-2.798 8.708-6.38 12.937-9.727 2.168-1.709 4.376-3.352 6.731-4.78 2.519-1.534 5.187-2.703 7.906-3.807 2.941-1.193 5.859-2.41 8.616-4.046 2.6-1.543 5.062-3.349 7.37-5.319 4.59-3.934 8.55-8.58 12.1-13.51.784-1.095-.928-2.203-1.704-1.12z"/><path fill="#000" d="M224.266 60.737a22.9 22.9 0 0 0-5.302 8.8c-.328 1.005-.622 2.088-1.393 2.787-1.285 1.169-3.219.77-4.917.705-5.152-.208-9.731 3.151-14.211 5.824a64 64 0 0 1-10.252 4.922c-2.972 1.11-6.397 1.956-9.15.418-.23-.127-.478-.298-.568-.552-.174-.482.244-.967.626-1.311 5.572-4.954 11.741-9.125 17.894-13.283 1.566-1.063 3.15-2.13 4.873-2.877 2.113-.923 4.394-1.353 6.658-1.77 5.267-.976 10.542-1.963 15.809-2.939"/><path fill="#fff" d="M223.584 59.964a24.6 24.6 0 0 0-5.056 7.81c-.508 1.256-.731 3.349-2.013 4.043-1.405.77-3.496.103-5.015.187-3.318.204-6.386 1.661-9.244 3.326-2.858 1.664-5.835 3.603-8.919 5.111s-6.112 2.937-9.351 3.436c-1.174.185-2.986.328-4.04-.38-.634-.423-.353.082-.175-.395.104-.262.76-.67.972-.85.761-.66 1.526-1.302 2.304-1.927 2.71-2.2 5.524-4.254 8.387-6.252s5.865-4.218 8.957-6.003c3.638-2.1 7.826-2.572 11.846-3.318s8.2-1.528 12.3-2.292c1.292-.241.87-2.28-.423-2.039-4.029.748-8.058 1.496-12.076 2.25-4.019.756-7.887 1.163-11.436 2.93s-6.603 4.188-9.757 6.387c-3.18 2.213-6.328 4.486-9.336 6.945a78 78 0 0 0-2.137 1.792c-.637.546-1.437 1.11-1.787 1.921-.624 1.454.564 2.367 1.72 2.85 2.857 1.194 6.126.393 8.922-.63a64.4 64.4 0 0 0 10.676-5.08c3.213-1.918 6.386-4.206 9.997-5.228 2.091-.586 4.001-.304 6.117-.365 1.796-.043 3.332-.72 4.19-2.427s1.221-3.537 2.096-5.21a22.5 22.5 0 0 1 3.635-5.062c.921-.962-.444-2.5-1.371-1.526z"/><path fill="#000" d="M349.55 24.818c-14.859 6.697-31.61 8.769-47.478 5.87-1.484-.276-2.984-.586-4.498-.512-2.788.14-5.341 1.596-7.814 2.947-17.637 9.622-36.804 15.782-56.049 21.075-1.876.52-3.82 1.064-5.326 2.344-1.069.922-1.834 2.155-2.582 3.375l-8.421 13.734c-1.337 2.183-2.686 4.398-3.402 6.856-.848 2.888-.769 5.962-.677 8.966.314 10.622.739 21.247 1.263 31.858 1.173.699 2.756.153 3.68-.888.925-1.042 1.34-2.441 1.679-3.804a78.7 78.7 0 0 0 2.283-14.38c.349-5.352.152-10.749 1.042-16.035 1.719-10.159 7.366-19.246 14.05-26.985-5.15 6.69-10.498 13.815-11.677 22.231-.44 3.118-.277 6.287.009 9.418a129.7 129.7 0 0 0 4.815 25.28c3.93-2.953 6.306-7.775 7.059-12.696.751-4.93.015-9.975-1.323-14.746-.753-2.662-1.617-5.764-.018-8.026.538-.762 1.31-1.33 1.806-2.111.741-1.17.79-2.637.921-4.019.513-5.323 2.758-10.465 6.285-14.43a27.76 27.76 0 0 0-5.269 11.855c-.77 4.212-.563 8.531-.348 12.801l.878 17.437c.013.244.032.516.199.696.298.321.816.135 1.194-.095 5.079-3.133 6.254-10.093 6.457-16.153.212-6.062.223-12.782 4.222-17.284 3.052-3.435 7.794-4.702 12.283-4.95 4.489-.247 8.997.358 13.476-.116 5.957-.634 11.601-3.137 17.495-4.3 5.662-1.117 11.475-.966 17.218-.704a440 440 0 0 1 28.337 2.206s7.364-8.618 9.458-19.206c2.561-12.942-1.241-17.487-1.241-17.487z"/><path fill="#fff" d="M349.083 23.883c-11.407 5.11-23.888 7.489-36.25 6.948a79 79 0 0 1-9.095-.924c-3.01-.485-5.953-1.232-9.023-.256-3.069.975-5.736 2.733-8.53 4.188a177 177 0 0 1-8.89 4.29c-12.132 5.458-24.756 9.612-37.484 13.266-2.966.847-6.037 1.5-8.935 2.588-1.264.473-2.46 1.102-3.46 2.046-1.107 1.055-1.902 2.41-2.706 3.718l-5.296 8.636c-1.767 2.883-3.625 5.596-5.095 8.571-1.471 2.976-2.073 6.207-2.096 9.59-.017 3.735.191 7.474.321 11.202q.418 11.78 1.001 23.548c.016.349.12.762.461.931 1.685.848 3.615.411 4.924-1.014 1.461-1.584 1.896-3.873 2.373-5.915a82.3 82.3 0 0 0 2.028-14.942c.222-5.028.122-10.266 1.168-15.295.91-4.387 2.561-8.594 4.681-12.51 2.449-4.514 5.481-8.678 8.807-12.54l-1.535-1.329c-4.377 5.684-8.894 11.628-10.962 18.662-1.108 3.786-1.288 7.672-1.02 11.568.298 4.356.841 8.694 1.589 12.984a129 129 0 0 0 3.404 14.505c.239.801 1.038 1.035 1.676.535 6.43-4.94 8.327-13.561 7.461-21.345-.261-2.337-.746-4.642-1.369-6.896-.481-1.745-1.089-3.564-.932-5.408.175-2.115 2.014-2.987 2.835-4.757.777-1.664.667-3.589.948-5.367a24.55 24.55 0 0 1 5.778-12.268l-1.535-1.33c-2.329 3.08-4.07 6.631-5.013 10.408-1.035 4.14-1.054 8.398-.866 12.627.203 4.616.461 9.228.69 13.838.061 1.147.113 2.296.174 3.442.052.969-.066 2.147.228 3.078.561 1.821 2.41 1.08 3.497.287 5.356-3.902 6.099-11.382 6.308-17.548.229-6.923.64-14.888 7.571-18.345 3.611-1.805 7.706-1.99 11.629-1.926 4.288.075 8.523.305 12.772-.524 4.249-.83 8.609-2.465 12.963-3.5 4.355-1.034 8.813-1.294 13.264-1.237 8.79.119 17.598.815 26.346 1.63 2.25.212 4.501.434 6.747.676.957.103 1.271-.036 1.817-.714a47 47 0 0 0 3.19-4.515c3.81-6.047 6.259-12.722 6.91-19.886.372-4.073.36-9.065-1.817-12.654a6 6 0 0 0-.413-.609c-.842-1.023-2.344.409-1.502 1.432.036.04.063.08.09.122-.19-.337.069.108.13.227a10 10 0 0 1 .734 1.667c.844 2.517.987 5.272.875 7.914-.334 7.67-2.932 14.827-7.061 21.215a56 56 0 0 1-2.122 3.05c-.219.288-.437.576-.666.858-.111.14.054-.05-.133.164l.749-.278a460 460 0 0 0-18.296-1.634c-6.063-.417-12.168-.862-18.25-.741-2.962.056-5.937.278-8.856.819s-5.973 1.494-8.934 2.369c-2.96.874-5.932 1.694-8.979 2.017s-5.998.12-8.987.05c-5.034-.103-10.47.183-14.827 3.178-3.984 2.738-5.766 7.166-6.444 11.87-.677 4.705-.248 9.43-1.112 14.084-.413 2.217-1.093 4.439-2.303 6.346a10.6 10.6 0 0 1-2.002 2.327c-.19.158-1.011.938-1.263.882.494.105.201-2.254.196-2.5-.354-7.008-.999-14.08-.94-21.107.05-6.483 1.716-12.548 5.65-17.73.705-.933-.754-2.214-1.535-1.329-2.549 2.91-4.495 6.32-5.622 10.063-.564 1.89-.879 3.819-1.066 5.784-.088.963-.174 1.981-.697 2.816-.495.79-1.277 1.351-1.806 2.111-2.22 3.206-.44 7.334.369 10.667 1.073 4.434 1.59 9.177.62 13.721-.913 4.284-3.073 8.227-6.519 10.879l1.677.536c-2.383-8.08-4-16.404-4.778-24.836-.363-3.95-.538-7.983.417-11.886.832-3.418 2.331-6.61 4.123-9.602 2.065-3.456 4.502-6.645 6.948-9.827.717-.927-.764-2.221-1.535-1.33-5.431 6.318-10.212 13.408-12.843 21.438-2.968 9.05-1.876 18.55-3.142 27.854a76 76 0 0 1-1.518 7.945c-.278 1.12-.527 2.338-1.126 3.343-.555.946-1.742 1.972-2.878 1.407l.461.931a1567 1567 0 0 1-1.238-30.935c-.093-3.052-.296-6.23.493-9.23.789-2.998 2.533-5.59 4.128-8.185l5.295-8.636c.866-1.418 1.729-2.845 2.605-4.256.8-1.288 1.651-2.55 2.938-3.362 1.287-.811 2.714-1.17 4.116-1.56 1.544-.424 3.094-.858 4.636-1.29 12.422-3.517 24.759-7.49 36.671-12.622a192 192 0 0 0 8.758-4.031c2.885-1.419 5.644-2.998 8.489-4.436 1.417-.718 2.9-1.346 4.476-1.567s3.124.096 4.647.382c2.938.54 5.891.932 8.873 1.147 13.46.972 27.109-1.496 39.544-7.062 1.205-.536.267-2.384-.938-1.848zM172.06 126.48c4.976-.734 10.083-1.508 14.501-3.987 1.338-.746 2.581-1.645 3.835-2.529 3.645-2.583 7.338-5.146 11.423-6.877 2.982-1.267 6.203-2.064 9.404-2.04 1.144.008 1.522 1.584.528 2.173-5.694 3.403-11.397 6.807-17.09 10.21-1.332.792-2.671 1.594-4.065 2.264-5.805 2.81-13.134 2.861-19.265.994"/><path fill="#000" d="M172.204 127.523c5.469-.802 11.034-1.705 15.835-4.716 4.86-3.04 9.24-6.757 14.578-8.94a24 24 0 0 1 3.766-1.212 22 22 0 0 1 2.074-.392c.6-.085 2.075-.448 2.65-.191.526.228-.218.458-.529.648q-.972.588-1.947 1.162c-1.297.777-2.586 1.544-3.883 2.322-2.722 1.622-5.442 3.253-8.155 4.874-2.418 1.442-4.814 3.041-7.412 4.117-5.487 2.292-11.843 2.19-17.453.513-1.25-.369-2.016 1.576-.767 1.945 5.534 1.651 11.525 1.886 17.09.147 3.08-.964 5.812-2.71 8.576-4.357 2.982-1.786 5.956-3.56 8.938-5.345 1.423-.854 2.846-1.708 4.271-2.552 1.07-.639 2.821-1.243 3.337-2.5.345-.854.128-1.873-.518-2.496-.94-.896-2.495-.586-3.657-.469-6.344.629-11.989 3.999-17.181 7.599-3.028 2.103-5.9 4.275-9.381 5.508-3.48 1.234-6.984 1.718-10.52 2.236-1.298.194-1.004 2.265.293 2.07z"/><path fill="#fff" d="M146.065 127.71c14.613 1.447 29.486-.107 42.444-7.3 1.44-.799 2.854-1.65 4.164-2.655 1.54-1.191 2.914-2.581 4.287-3.981 2.149-2.179 4.287-4.366 6.436-6.545.016-.012.024-.022.04-.034 1.11-1.133.124-3.055-1.406-2.768-7.154 1.348-12.23 4.729-18.768 8.556-2.438 1.425-6.114 2.886-8.77 3.801-2.369.822-5.82.969-8.073 2.084-1.802.894-3.328 2.242-4.948 3.446-4.437 3.308-10.01 4.465-15.407 5.387"/><path fill="#000" d="M145.935 128.753c9.19.889 18.56.669 27.601-1.494 4.393-1.047 8.695-2.54 12.771-4.534 2.068-1.011 4.103-2.121 6.009-3.436s3.524-2.923 5.138-4.558c1.765-1.791 3.529-3.592 5.294-5.392 1.133-1.156 2.656-2.336 2.029-4.184-.549-1.615-2.033-1.965-3.515-1.657a35.6 35.6 0 0 0-6.121 1.873c-7.776 3.158-14.426 9.101-22.744 10.887-2.083.449-4.281.672-6.245 1.582-2.203 1.023-3.966 2.767-5.957 4.123-4.233 2.884-9.375 3.87-14.28 4.715-1.294.222-1 2.292.293 2.07 3.942-.685 7.934-1.462 11.619-3.122 1.82-.822 3.497-1.884 5.077-3.11s3.201-2.562 5.141-3.186c1.739-.556 3.569-.73 5.336-1.158s3.338-1.079 4.954-1.728c3.717-1.495 7.067-3.582 10.539-5.585s7.048-3.843 10.904-4.872c.669-.18 2.08-.796 2.731-.522.816.342.125 1.071-.227 1.427-1.661 1.69-3.331 3.382-4.991 5.081-1.541 1.568-3.056 3.188-4.76 4.574-1.704 1.387-3.612 2.495-5.543 3.504a58.7 58.7 0 0 1-11.947 4.678c-9.416 2.541-19.227 2.878-28.853 1.944-1.297-.125-1.55 1.955-.253 2.08"/><path fill="#fff" d="M126.277 107.148c8.048-2.755 18.759 6.723 26.968 6.006 6.547-.569 11.519-6.137 17.391-9.228a24.5 24.5 0 0 1 12.902-2.756c1.154.072 1.773 1.482 1.067 2.432-1.223 1.634-2.772 3.027-4.323 4.345a122.8 122.8 0 0 1-26.038 16.996c-2.61 1.258-5.331 2.45-8.206 2.544-2.366.08-4.634-.834-6.96-1.25-20.127-3.588-35.155-7.327-52.712-17.254-1.442-.819-3.123-1.139-4.482-2.084-1.258-.876-2.3-2.04-3.388-3.141-9.769-9.928-24.924-15.73-37.93-20.296"/><path fill="#000" d="M126.686 108.101c2.719-.88 5.672-.233 8.297.616 3.009.978 5.88 2.335 8.829 3.473 2.661 1.041 5.496 2.018 8.379 2.035 3.413.019 6.596-1.387 9.478-3.188 3.117-1.941 5.969-4.341 9.216-6.077 3.672-1.963 7.979-3.055 12.113-2.782.858.053 1.08.395.541 1.111-.685.909-1.521 1.719-2.355 2.481-1.482 1.355-3.039 2.627-4.6 3.871a122 122 0 0 1-9.967 7.166 119 119 0 0 1-10.75 6.158c-3.677 1.86-7.766 4.04-12.052 3.282-1.95-.343-3.849-.911-5.801-1.263-1.951-.353-3.82-.699-5.728-1.068a238 238 0 0 1-10.419-2.242c-6.718-1.609-13.349-3.628-19.777-6.225a128 128 0 0 1-9.928-4.524 142 142 0 0 1-4.916-2.627c-1.53-.862-3.315-1.269-4.77-2.246-1.555-1.046-2.778-2.578-4.123-3.883a49 49 0 0 0-3.991-3.461c-2.785-2.172-5.768-4.067-8.835-5.78-6.314-3.529-13.026-6.26-19.784-8.73a259 259 0 0 0-4.796-1.713c-1.232-.438-1.998 1.51-.766 1.948 7.07 2.486 14.114 5.1 20.835 8.47 3.405 1.707 6.707 3.6 9.835 5.802 3.127 2.202 5.713 4.65 8.38 7.283 1.393 1.383 2.836 2.343 4.636 3.049s3.469 1.706 5.18 2.624a130 130 0 0 0 10.317 4.943c6.653 2.825 13.534 5.002 20.528 6.747 7.573 1.899 15.279 3.183 22.901 4.847 4.35.955 8.305-.553 12.223-2.461a121 121 0 0 0 11.24-6.244 122 122 0 0 0 10.451-7.299 113 113 0 0 0 4.826-3.953 34 34 0 0 0 2.387-2.261c.611-.652 1.395-1.378 1.771-2.21.542-1.216.069-2.687-1.064-3.328-.785-.442-1.752-.365-2.62-.36-1.06.006-2.122.06-3.181.199-4.105.514-7.887 2.089-11.381 4.345-3.249 2.103-6.262 4.66-9.785 6.251-3.104 1.393-6.191 1.54-9.418.634-6.075-1.71-11.794-5.691-18.224-5.903a11.9 11.9 0 0 0-4.151.578c-1.25.404-.422 2.318.819 1.915"/><defs><clipPath id="a"><path fill="#fff" d="M135.445 43.202h75.287v77.376h-75.287z"/></clipPath></defs></svg>
