<svg xmlns="http://www.w3.org/2000/svg" width="527" height="364" fill="none"><g clip-path="url(#a)"><path fill="#fff" d="M524.467 347.394c-11.974 6.142-27.569 11.729-40.942 13.125-9.019.954-18.238 1.53-27.058-.51-8.841-2.039-19.837-5.232-21.015-14.211-2.221-16.872-11.44-32.192-23.103-44.586-11.685-12.393-25.769-22.193-39.765-31.903-19.66-13.658-39.342-27.315-59.002-40.972-5.931-4.124-11.907-8.27-16.95-13.458-5.576-5.742-9.885-12.593-13.373-19.798a113 113 0 0 1-7.464-19.954c12.529-1.552 23.925 6.984 32.811 15.919s17.527 19.2 29.635 22.769c9.574 2.816 20.481.71 28.301-5.498 6.776-5.366 15.195-20.508 13.462-28.977-.178-9.822-9.663-26.384-8.397-36.117a70.5 70.5 0 0 1-20.26-4.434c-4.554-1.729-9.752-5.964-7.731-10.376-7.019 10.066-20.37 15.32-32.389 12.749-.288 7.538-4.02 14.898-9.974 19.554s-13.995 6.541-21.393 5.011l-.777-1.397c2.732-13.768 10.974-26.006 21.415-35.407s22.992-16.14 35.854-21.794c2.311-1.02 4.688-2.017 7.198-2.261 5.465-.532 10.219 3.193 15.35 5.099 10.508 3.924 21.415 6.94 32.434 14.101l-2.933-1.973c-7.286-7.627-16.972-14.256-19.993-31.04-15.173-9.732-32.789-15.896-50.338-20.064-7.42-1.751-15.24-3.104-21.393-7.605-6.154-4.5-9.886-13.435-5.887-19.909a588 588 0 0 1 86.704 17.05c4.598 1.263 9.308 2.66 12.996 5.653 3.443 2.793 5.731 6.74 7.93 10.62 6.043 10.62 12.085 21.24 18.127 31.881a73.5 73.5 0 0 1-8.508-31.549c-18.505-10.82-35.632-23.789-52.715-36.737-3.755-2.838-7.664-5.875-9.486-10.22-1.822-4.324-.644-10.31 3.688-12.15 3.798-1.618 8.086.466 11.685 2.505 20.459 11.551 40.897 23.124 61.357 34.675 3.709 2.084 7.486 4.235 10.329 7.405 4.732 5.21 6.954 12.394 8.375 19.267 2.044 12.992 4.754 25.94 6.798 38.932 2.133-1.464 3.466-3.814 4.599-6.142 12.218-25.075 9.419-54.384 10.663-82.231.266-5.964.799-12.105 3.687-17.315s8.797-9.223 14.662-8.115c-3.51 28.49 1.977 57.334 1.022 86.023-.356 10.775-1.622 21.505-2.488 32.258a452 452 0 0 0 4.176 108.282c.978 6.119 2.133 12.372 5.176 17.781 3.466 6.142 9.219 10.908 11.841 17.427 2.132 5.321 1.955 11.218 2.243 16.938 1.067 21.217 7.198 45.361 20.86 61.657z"/><path fill="#000" d="M523.201 345.244c-9.641 4.899-19.882 8.801-30.456 11.196s-22.77 3.592-33.589 1.574c-6.775-1.264-18.305-3.392-20.882-10.908-.688-2.04-.755-4.346-1.199-6.452-.511-2.505-1.2-4.988-2-7.427a80 80 0 0 0-5.931-13.458c-10.53-19-27.613-32.99-45.051-45.428-19.749-14.078-39.832-27.713-59.736-41.548-10.419-7.227-21.77-13.967-29.79-23.988-8.019-10.022-13.062-22.193-16.394-34.343l-2.4 3.148c14.062-1.463 25.103 9.046 34.145 18.358 9.041 9.311 17.949 18.623 30.634 20.951 11.529 2.129 24.214-1.729 31.744-10.886 6.576-8.026 11.197-17.98 10.086-28.467-.622-5.853-2.844-11.44-4.71-16.983s-4.198-11.484-3.554-17.36c.156-1.419-1.266-2.394-2.488-2.483a70.2 70.2 0 0 1-16.661-3.303c-3.243-1.064-10.685-3.68-8.93-8.359 1.066-2.837-3.044-4.057-4.577-1.928-6.575 9.156-18.504 13.812-29.567 11.595-1.644-.333-3.066.709-3.155 2.394-.777 14.301-14.062 24.809-28.213 22.171l1.489 1.153-.778-1.397.245 1.929c3.621-17.47 15.617-31.638 30.034-41.592 7.375-5.077 15.328-9.268 23.481-12.948 4.465-2.018 8.664-4.057 13.595-2.372 4.066 1.396 7.798 3.636 11.863 5.121 10.241 3.703 20.415 7.139 29.635 13.059 2.732 1.751 5.176-2.528 2.532-4.301-4.732-3.193-9.019-7.738-12.751-12.128-2.577-3.015-4.754-6.385-6.309-10.043-.911-2.129-1.6-4.368-2.155-6.607-.222-.953-.289-2.173-.711-3.06-.533-1.108-1.666-1.618-2.688-2.239-9.019-5.565-18.794-9.91-28.812-13.369-9.953-3.459-20.216-5.41-30.301-8.27-5.088-1.44-10.375-3.547-13.796-7.76-3.088-3.813-4.709-9.222-2.155-13.723l-2.154 1.242a591 591 0 0 1 59.357 10.265c9.664 2.194 19.327 4.522 28.835 7.294 4.154 1.22 8.264 2.749 11.374 5.897s5.087 7.183 7.242 10.953l16.794 29.531c1.6 2.794 5.798.31 4.31-2.527-4.11-7.871-6.842-16.473-7.797-25.297-.2-1.752.155-4.324-.578-5.942-.777-1.73-3.51-2.66-5.02-3.592a288 288 0 0 1-11.352-7.25c-7.487-4.988-14.795-10.22-22.015-15.564a1055 1055 0 0 1-11.196-8.402c-3.31-2.506-6.864-4.878-9.708-7.915-2.421-2.594-4.221-5.986-3.243-9.622 1.288-4.7 5.953-4.257 9.574-2.528 8.62 4.102 16.817 9.4 25.125 14.1 8.308 4.701 16.617 9.401 24.925 14.08l12.462 7.05c3.71 2.084 7.62 4.101 10.641 7.16 6.576 6.652 7.931 16.54 9.442 25.32 1.866 10.82 3.998 21.594 5.731 32.436.244 1.485 2.466 2.416 3.665 1.485 5.954-4.523 8.553-13.302 10.597-20.197 2.355-7.893 3.621-16.096 4.376-24.3 1.511-16.716.356-33.566 1.8-50.283.666-7.782 4.642-20.33 14.928-18.779l-1.844-2.394c-2.91 24.343.533 48.731 1.066 73.12.533 24.387-3.487 48.864-3.954 73.384-.466 24.521 1.089 48.976 4.554 73.231 1.577 11.085 3.066 21.86 10.063 30.972 3.066 3.991 6.776 7.849 8.464 12.682 1.888 5.432 1.533 11.351 1.888 17.005 1.378 21.816 7.331 44.608 21.504 61.746 2.044 2.483 5.576-1.065 3.532-3.526-12.529-15.164-18.105-35.539-19.771-54.828-.466-5.277-.333-10.62-1.022-15.852-.688-5.232-2.554-9.644-5.62-13.835-2.888-3.946-6.309-7.516-8.575-11.883-2.621-5.033-3.576-10.775-4.465-16.318-3.865-24.077-5.687-48.51-5.576-72.897a449 449 0 0 1 1.577-35.806c1-11.906 2.4-23.967 2.511-36.028.266-27.092-4.354-54.14-1.133-81.19.111-.975-.844-2.26-1.844-2.394-7.242-1.086-13.951 2.971-17.483 9.246-4.11 7.316-4.021 16.273-4.243 24.432-.489 17.626.222 35.495-3.044 52.921-.91 4.856-2.154 9.667-3.798 14.345-1.489 4.19-3.266 10.287-6.976 13.103l3.666 1.485c-1.489-9.4-3.31-18.734-4.976-28.112-1.444-8.07-2.4-16.207-5.932-23.7-3.532-7.495-9.041-11.441-15.772-15.277-8.308-4.7-16.617-9.4-24.925-14.078s-16.306-9.2-24.436-13.812c-4.132-2.328-8.242-4.723-12.396-7.006-3.354-1.84-7.131-3.636-11.063-3.06-6.509.931-9.397 7.804-8.175 13.724 1.533 7.427 8.953 11.994 14.573 16.251 15.994 12.083 32.1 24.055 49.405 34.232l-1.244-2.15a78 78 0 0 0 8.842 32.79l4.309-2.528a28828 28828 0 0 0-15.728-27.647c-4.442-7.826-8.419-15.453-17.149-19.11-8.731-3.66-19.083-5.632-28.546-7.872a597 597 0 0 0-31.145-6.496 634 634 0 0 0-35.322-5.298c-.844-.111-1.755.554-2.155 1.241-3.709 6.518-1.688 14.256 2.933 19.754 5.487 6.54 14.306 8.78 22.259 10.598 18.705 4.301 37.032 10.287 53.315 20.619l-1.155-1.486c1.6 8.425 5.287 15.919 10.974 22.348 3.91 4.435 8.197 8.847 13.107 12.15l2.532-4.301c-6.442-4.146-13.417-7.25-20.593-9.888-3.11-1.153-6.242-2.217-9.352-3.348-3.466-1.242-6.687-2.86-10.041-4.345-2.866-1.264-5.865-2.218-9.064-1.974-3.465.266-6.664 1.796-9.774 3.193-6.576 2.926-13.018 6.141-19.172 9.888-11.684 7.117-22.281 16.251-29.634 27.891-3.443 5.454-6.153 11.44-7.731 17.692-.555 2.239-1.044 3.991.445 5.92 1.621 2.106 5.82 1.818 8.219 1.729 15.106-.532 26.991-12.615 27.813-27.558l-3.155 2.394c13.418 2.683 27.258-2.815 35.211-13.901l-4.576-1.929c-2.2 5.876 3.287 10.731 8.152 12.904 6.931 3.081 14.729 4.5 22.259 5.077l-2.488-2.483c-1.066 9.977 4.666 20.042 7.22 29.42 1.111 4.124 1.911 8.625.978 12.859-1.155 5.233-3.688 10.199-6.731 14.589-6.62 9.6-18.461 14.411-29.968 11.772-12.107-2.793-20.66-12.836-28.99-21.306-9.419-9.577-21.504-19.399-35.833-17.914-1.599.156-2.865 1.464-2.399 3.149 2.999 11.019 7.487 21.904 13.884 31.393s14.951 16.274 24.259 22.748c21.015 14.632 42.097 29.176 63.112 43.809 18.549 12.904 37.454 26.76 49.117 46.559 2.732 4.656 5.042 9.533 6.709 14.677a66 66 0 0 1 1.954 7.449c.467 2.306.578 4.723 1.444 6.918 3.022 7.604 11.93 10.553 19.216 12.393 24.325 6.186 50.916-1.131 72.709-12.194 2.866-1.463.333-5.764-2.533-4.301z"/><path fill="#fff" d="M2.533 342.96c11.973 6.141 27.568 11.728 40.941 13.125 9.02.953 18.239 1.53 27.058-.51 8.842-2.04 19.838-5.232 21.015-14.211 2.222-16.872 11.441-32.192 23.103-44.586 11.685-12.393 25.77-22.193 39.765-31.904 19.66-13.657 39.342-27.314 59.002-40.971 5.931-4.124 11.907-8.27 16.95-13.458 5.576-5.742 9.886-12.593 13.373-19.798a113 113 0 0 0 7.464-19.954c-12.529-1.552-23.925 6.984-32.811 15.918-8.886 8.935-17.527 19.2-29.634 22.77-9.575 2.816-20.482.709-28.302-5.498-6.775-5.366-15.195-20.508-13.462-28.978.178-9.821 9.663-26.383 8.397-36.116a70.5 70.5 0 0 0 20.26-4.434c4.554-1.729 9.752-5.964 7.731-10.376 7.02 10.066 20.371 15.32 32.389 12.748.289 7.538 4.021 14.899 9.974 19.555s13.996 6.54 21.393 5.01l.778-1.396c-2.733-13.768-10.974-26.007-21.415-35.407s-22.993-16.14-35.855-21.794c-2.31-1.02-4.687-2.018-7.198-2.261-5.464-.532-10.218 3.192-15.35 5.099-10.508 3.924-21.415 6.939-32.433 14.101l2.932-1.974c7.286-7.626 16.972-14.256 19.993-31.039 15.173-9.733 32.789-15.896 50.339-20.064 7.419-1.752 15.239-3.104 21.393-7.605 6.153-4.5 9.885-13.435 5.886-19.91a588 588 0 0 0-86.704 17.05c-4.598 1.264-9.308 2.66-12.995 5.654-3.444 2.793-5.732 6.74-7.931 10.62-6.042 10.62-12.085 21.239-18.127 31.881a73.5 73.5 0 0 0 8.508-31.549c18.505-10.82 35.633-23.79 52.716-36.737 3.754-2.838 7.664-5.875 9.485-10.22 1.822-4.346.645-10.31-3.687-12.15-3.799-1.619-8.086.465-11.685 2.505-20.46 11.55-40.898 23.124-61.357 34.675-3.71 2.084-7.487 4.235-10.33 7.405-4.732 5.21-6.953 12.394-8.375 19.266-2.044 12.993-4.754 25.94-6.798 38.932-2.133-1.463-3.465-3.813-4.598-6.141-12.218-25.075-9.42-54.385-10.663-82.231-.267-5.964-.8-12.106-3.688-17.316s-8.797-9.223-14.662-8.114c3.51 28.49-1.977 57.333-1.022 86.022.356 10.775 1.622 21.506 2.488 32.259a452 452 0 0 1-4.176 108.282c-.977 6.119-2.133 12.371-5.176 17.781-3.465 6.141-9.22 10.908-11.84 17.426-2.133 5.321-1.955 11.219-2.244 16.939-1.066 21.217-7.198 45.361-20.86 61.657z"/><path fill="#000" d="M1.266 345.11c19.705 9.999 42.897 16.762 65.178 13.724 7.93-1.086 18.083-3.325 23.814-9.378 3.044-3.237 3.488-6.829 4.288-10.997a66.5 66.5 0 0 1 5.131-15.719c9.664-20.641 27.569-35.517 45.763-48.487 20.482-14.611 41.341-28.756 62.001-43.123 10.663-7.405 21.837-14.388 29.812-24.831s13.018-22.548 16.395-34.897c.466-1.685-.822-2.993-2.4-3.148-12.551-1.308-23.614 6.208-32.322 14.433-8.708 8.226-16.639 19.001-28.324 23.501-10.929 4.213-24.214 1.508-31.9-7.538-6.242-7.338-10.619-17.005-8.864-26.693 1.044-5.72 3.288-11.219 5.11-16.717 1.71-5.188 3.576-10.886 2.976-16.407l-2.488 2.484c7.509-.577 15.328-1.974 22.259-5.078 4.865-2.172 10.375-7.028 8.153-12.903l-4.576 1.929c7.953 11.085 21.793 16.584 35.21 13.901l-3.154-2.394c.711 12.992 9.863 24.365 22.814 26.959 3.977.798 12.53 2.239 14.129-2.838.777-2.461-.911-6.119-1.733-8.513a62 62 0 0 0-4.198-9.578c-6.487-12.017-16.573-21.661-27.88-29.177-5.842-3.902-12.062-7.25-18.416-10.265-5.798-2.749-12.174-6.451-18.794-5.1-3.82.777-7.153 2.927-10.707 4.457s-7.242 2.639-10.841 3.924c-8.108 2.905-16.017 6.208-23.281 10.864l2.533 4.301c4.909-3.303 9.197-7.715 13.106-12.149 5.687-6.43 9.375-13.924 10.974-22.348l-1.155 1.485c16.284-10.354 34.611-16.318 53.316-20.619 7.975-1.84 16.772-4.057 22.259-10.597 4.62-5.499 6.642-13.236 2.932-19.755-.4-.687-1.311-1.33-2.155-1.241-20.926 2.527-41.719 6.097-62.268 10.797-9.819 2.24-19.815 4.456-29.412 7.605-4.065 1.33-8.019 3.17-11.107 6.207s-5.176 6.74-7.265 10.398c-5.953 10.465-11.907 20.93-17.86 31.416l4.31 2.528a78 78 0 0 0 8.841-32.79l-1.244 2.15c15.35-9.024 29.79-19.466 44.03-30.175 6.042-4.545 13.639-8.912 17.838-15.364 3.288-5.055 3.51-12.815-1.622-16.805-6.686-5.21-15.239 1.064-21.193 4.434-8.308 4.7-16.616 9.4-24.924 14.078s-16.306 9.201-24.437 13.813c-6.997 3.946-14.773 7.449-19.593 14.122-5.265 7.273-6.665 16.252-8.153 24.854-1.844 10.642-3.932 21.24-5.642 31.904l3.665-1.486c-3.266-2.483-4.932-7.627-6.309-11.307-1.533-4.035-2.732-8.18-3.665-12.393-1.933-8.603-2.755-17.427-3.155-26.228s-.4-17.693-.578-26.539c-.177-8.27.223-17.404-2.887-25.208S53.36-1.131 44.696.177c-.978.156-1.955 1.42-1.844 2.395 2.866 23.989-.444 48.022-1.044 72.033-.6 24.01 3.31 48.132 3.888 72.276s-.778 48.843-4.177 73.009c-.777 5.609-1.51 11.285-2.866 16.805-1.355 5.521-3.598 9.933-6.997 14.256-3.021 3.858-6.287 7.583-8.197 12.15-2.089 4.966-2.266 10.353-2.466 15.652-.822 21.772-6.043 45.251-20.238 62.433-2.021 2.461 1.489 6.009 3.532 3.525 12.552-15.187 18.505-34.763 20.793-54.052.6-5.144.756-10.287 1.044-15.453.334-5.853 1.666-10.864 5.11-15.653 2.932-4.079 6.509-7.737 8.841-12.238 2.533-4.855 3.755-10.221 4.665-15.564 4.066-24.055 6.02-48.532 6.087-72.92a454 454 0 0 0-1.422-36.892c-.977-12.26-2.465-24.343-2.665-36.56-.467-27.624 4.398-55.227 1.11-82.807l-1.843 2.394c8.663-1.308 13.328 8.248 14.506 15.21 1.377 8.291 1 17.049 1.11 25.43.223 16.539.4 33.366 4.577 49.485a88 88 0 0 0 4.398 12.859c1.8 4.168 3.555 7.87 7.109 10.575 1.2.909 3.443 0 3.665-1.485 1.489-9.401 3.31-18.735 4.977-28.113 1.488-8.403 2.31-17.315 6.642-24.876 4.332-7.56 12.662-11.063 19.949-15.187 8.463-4.788 16.927-9.577 25.413-14.366 8.486-4.79 16.617-9.4 24.925-14.079 3.399-1.906 8.531-5.942 12.707-4.722 3.443.998 4.11 5.432 3.177 8.38-1.178 3.747-4.554 6.519-7.553 8.847-3.51 2.749-7.109 5.387-10.686 8.07-7.331 5.498-14.706 10.93-22.259 16.14-4.132 2.838-8.286 5.61-12.529 8.292-2.199 1.375-4.398 2.75-6.62 4.057-2.066 1.242-2.91 1.752-3.066 4.213-.688 10.265-3.354 20.153-8.13 29.287-1.489 2.838 2.71 5.321 4.31 2.528 4.976-8.758 9.952-17.493 14.928-26.25 2.221-3.925 4.287-8.026 6.953-11.684 2.666-3.659 5.998-5.876 10.108-7.339 9.041-3.237 18.705-5.232 28.057-7.427a608 608 0 0 1 29.568-6.12 585 585 0 0 1 34.01-5.12l-2.154-1.242c5.065 8.89-4.421 17.426-12.019 20.22-4.776 1.75-9.796 2.682-14.728 3.88s-10.219 2.638-15.261 4.256c-10.108 3.237-20.016 7.294-29.235 12.527-1.844 1.042-4.909 2.217-6.176 3.946-1.266 1.73-1.31 4.944-1.977 6.984-1.266 3.902-3.177 7.538-5.576 10.841-2.399 3.304-5.109 5.942-7.908 8.669-2.244 2.173-4.177 4.146-6.753 5.875s-.2 6.053 2.532 4.301c8.131-5.232 17.017-8.58 26.102-11.794 4.043-1.419 7.931-2.949 11.796-4.811 4.71-2.284 8.486-2.861 13.418-.843 16.439 6.718 32.811 16.229 44.318 29.975 6.354 7.605 10.975 16.517 12.974 26.228l.244-1.929-.777 1.397 1.488-1.153c-14.151 2.661-27.435-7.848-28.213-22.171-.088-1.707-1.51-2.727-3.154-2.394-11.041 2.195-22.992-2.461-29.568-11.596-1.511-2.106-5.642-.931-4.576 1.929 1.755 4.678-5.687 7.294-8.93 8.359a69.8 69.8 0 0 1-16.662 3.303c-1.244.089-2.643 1.064-2.488 2.483.556 5.122-1.221 10.288-2.799 15.099-1.755 5.321-3.865 10.575-4.976 16.073-.933 4.634-1.133 9.246.111 13.835 1.422 5.232 3.999 10.265 7.109 14.699 6.753 9.622 17.616 15.232 29.501 14.566 13.196-.731 23.281-9.356 32.123-18.335 9.996-10.154 21.526-23.19 37.254-21.55l-2.399-3.148c-2.999 10.93-7.442 21.639-13.929 30.995s-15.395 15.63-24.547 21.971c-20.171 13.99-40.342 27.957-60.491 41.991-17.794 12.394-35.699 25.497-47.984 43.699-5.598 8.314-9.952 17.648-11.996 27.514-.866 4.168-.866 7.893-4.376 10.819-3.132 2.594-7.242 3.925-11.107 4.989-23.526 6.518-49.428-.466-70.621-11.219-2.866-1.463-5.398 2.86-2.533 4.301z"/></g><defs><clipPath id="a"><path fill="#fff" d="M0 0h527v364H0z"/></clipPath></defs></svg>
