<svg xmlns="http://www.w3.org/2000/svg" width="678" height="195" fill="none"><g clip-path="url(#a)"><path fill="#1c1c1c" stroke="#1c1c1c" stroke-miterlimit="10" d="M640.418 179.419c-2.785 2.573-15.077 13.951-27.695 14.235-9.1.204-17.575-5.39-15.253-14.384 3.423-13.288 27.885-24.314 30.724-25.574 2.173-.961 25.154-10.876 28.604-2.356 2.73 6.759-8.516 20.791-16.38 28.079Z"/><path fill="#fff" d="m401.763 102.496 2.879 1.828c5.732 3.631 4.985 15.049-1.67 25.506s-16.693 15.997-22.425 12.367l-2.879-1.829"/><path stroke="#000" stroke-miterlimit="10" d="m401.763 102.496 2.879 1.828c5.732 3.631 4.985 15.049-1.67 25.506s-16.693 15.997-22.425 12.367l-2.879-1.829"/><path fill="#fff" stroke="#000" stroke-miterlimit="10" d="M400.111 128.021c6.658-10.458 7.409-21.878 1.678-25.507-5.732-3.628-15.775 1.908-22.433 12.367-6.658 10.458-7.409 21.878-1.678 25.507 5.731 3.628 15.775-1.908 22.433-12.367Z"/><path fill="#ff4c29" d="M408.881 131.184c1.331 7.396-4.93 13.64-12.292 12.787l.272 1.991c2.689-.542 5.677-1.178 8.258.108 2.716 1.355 2.798 4.118 3.042 6.8.517 5.513.693 11.039.557 16.579h2.038c.108-5.716.095-11.445.339-17.161.285-6.665 6.601-7.261 11.953-7.125 1.317.027 1.29-1.937 0-2.032-2.364-.162-4.741-.325-7.104-.501-1.345-.095-2.553-.163-3.083-1.653-.367-1.029-.557-2.167-.747-3.25-.774-4.579-.53-9.252-.299-13.857.054-1.124-1.834-1.409-1.996-.271-.598 4.064-.87 8.168-1.467 12.231-.191 1.274 1.779 1.829 1.969.542.598-4.063.869-8.168 1.467-12.231l-1.997-.271c-.271 5.608-.543 11.364.897 16.85.529 2.005 1.453 3.441 3.613 3.779 2.865.447 5.867.447 8.76.65v-2.031c-4.957-.122-11.558.298-13.473 5.865-1.019 2.952-.584 6.542-.639 9.63l-.204 10.823c-.027 1.314 2.011 1.3 2.038 0 .081-3.536.054-7.084-.136-10.62-.163-3.237-.217-6.664-.91-9.833-1.372-6.326-8.435-6.001-13.419-4.998-1.223.243-.774 1.869.271 1.991 8.802 1.016 15.797-6.8 14.248-15.361-.231-1.286-2.2-.744-1.969.542z"/><path fill="#ff4c29" stroke="#ff4c29" stroke-miterlimit="10" stroke-width=".5" d="M198.641 78.4c0-.218-6.261-.394-9.942-.461a2.69 2.69 0 0 1-2.635-2.628c-.082-5.798-.245-9.74-.435-9.74s-.353 3.929-.434 9.74a2.68 2.68 0 0 1-2.635 2.628c-3.681.067-6.343.243-6.343.46s2.621.393 6.288.46a2.68 2.68 0 0 1 2.635 2.683v2.776c0 10.349.218 14.548.489 14.548.272 0 .489-4.2.489-14.548v-2.776a2.68 2.68 0 0 1 2.635-2.682c3.654-.068 9.888-.244 9.888-.46Z"/><path fill="#ef4f29" d="M157.949 62.633c.761 11.58 3.518 23.202 7.389 34.12s8.991 21.902 20.564 25.559c5.487 1.734 11.409 1.707 17.045.732 5.311-.921 10.73-2.709 14.914-6.217 3.708-3.102 5.908-7.613 5.446-12.475-.394-4.118-2.689-8.344-6.9-9.563-2.309-.664-4.984-.244-6.546 1.706s-1.617 4.863-1.522 7.315c.204 5.35 1.535 10.592 3.736 15.468 4.414 9.82 12.292 18.002 21.514 23.487 20.387 12.123 46.261 10.579 68.631 5.825 18.581-3.942 37.066-8.981 55.185-14.642a285 285 0 0 0 4.74-1.531c1.236-.42.706-2.37-.543-1.964-15.932 5.337-32.299 9.617-48.625 13.572-19.558 4.741-40.122 8.439-60.101 3.996-10.703-2.384-20.659-7.22-28.523-14.913-7.185-7.03-12.55-16.281-13.745-26.359-.299-2.519-.72-5.702.312-8.1 1.277-2.953 4.958-2.465 7.104-.8 3.422 2.656 3.979 7.898 2.635 11.744-1.725 4.972-6.792 8.06-11.505 9.726-5.011 1.774-10.458 2.587-15.755 2.262-5.582-.339-11.151-2.194-15.28-6.068s-6.75-9.211-8.896-14.385c-4.089-9.875-6.832-20.467-8.394-31.019a93 93 0 0 1-.815-7.503c-.082-1.3-2.119-1.314-2.038 0zM417.029 120.579c11.871-3.996 23.973-8.06 36.604-8.507 11.301-.406 23.674 2.018 31.851 10.376 3.966 4.063 6.642 9.346 6.438 15.116-.041 1.314 1.996 1.3 2.037 0 .394-10.822-8.217-19.654-17.602-23.717-11.735-5.066-25.1-4.538-37.352-1.87-7.66 1.666-15.09 4.159-22.505 6.651-1.236.42-.707 2.384.543 1.964z"/><path fill="#fff" d="M131.055 14.737c1.317 0 1.317-2.032 0-2.032-1.318 0-1.318 2.032 0 2.032"/><path fill="#1c1c1c" d="M46.111 65.572c2.527 8.587 2.472 17.703 1.78 26.616-.367 4.727-.965 9.576-3.314 13.694-4.116 7.206-13.746 10.714-21.542 7.843-6.682-2.465-11.246-8.656-14.397-15.022C2.24 85.822.068 70.91 2.485 56.74c1.535-8.966 5.04-17.866 11.477-24.313 2.961-2.966 6.737-5.445 10.92-5.621 5.012-.217 9.698 2.966 12.55 7.084s4.197 9.062 5.365 13.938a283 283 0 0 1 3.681 18.096"/><path fill="#1c1c1c" d="M44.631 65.978c2.146 7.49 2.377 15.28 1.943 23.027-.38 6.529-.707 14.127-5.556 19.099-3.816 3.914-9.738 5.919-15.144 4.849-6.207-1.233-10.757-6.136-13.908-11.324-7.267-12.014-10.024-26.86-8.53-40.73.72-6.732 2.486-13.505 5.76-19.478 2.987-5.459 7.931-11.825 14.478-12.963 8.054-1.395 13.555 6.475 15.796 13.071 2.717 7.965 4.129 16.525 5.528 24.801.326 1.924 3.273 1.111 2.947-.812-1.412-8.358-2.838-17.04-5.623-25.072-2.282-6.57-6.736-13.193-13.976-14.819-7.24-1.625-13.745 3.238-18.05 8.642-4.578 5.757-7.39 12.733-8.87 19.884-3.192 15.36-.991 31.804 6.112 45.796 3.043 6.001 7.416 11.92 13.745 14.724 5.718 2.533 12.428 1.923 17.78-1.219 7.225-4.24 9.48-11.879 10.213-19.776.87-9.509.938-19.261-1.697-28.499-.544-1.883-3.491-1.084-2.948.813z"/><path fill="#fff" d="M20.456 53.165c.95-2.71 2.499-5.378 4.631-7.328 1.005-.921 2.268-1.626 3.667-1.572 1.195.041 2.255.8 2.5 1.978.271 1.273 2.227.731 1.969-.542-.34-1.612-1.684-2.871-3.246-3.305-1.82-.487-3.803.095-5.297 1.165-2.975 2.14-5.012 5.662-6.194 9.062-.435 1.232 1.535 1.774 1.97.542M28.619 89.276c1.983.501 4.604.19 6.52-.515 7.17-2.655 14.342-5.296 21.5-7.95 6.003-2.222 12.55-4.457 18.675-2.588 3.301 1.002 6.14 3.129 9.277 4.592 3.722 1.72 7.796 2.478 11.817 3.21 5.202.948 10.431 1.91 15.714 1.842 2.88-.04 5.773-.393 8.652-.108 2.703.27 5.338 1.097 8.055 1.34 7.035.65 14.519-2.492 20.971.38.706.311 1.535.69 2.186.27.449-.284.612-.852.666-1.38.462-3.902-2.676-7.518-6.343-8.94-3.667-1.423-7.755-1.179-11.681-.908l.299.068c-7.389-.99-15.375-2.669-22.017-6.041-2.105-1.07-4.455-3.55-2.961-5.364.394-.474.978-.745 1.562-.99 4.944-1.99 10.527-2.234 15.28-4.632 2.649-1.327 4.917-3.264 7.348-4.943 10.934-7.532 24.639-9.482 37.732-11.703 4.523-.772 9.1-1.612 13.202-3.644-.014-1.504-2.078-1.896-3.586-1.815-19.844 1.07-39.769 2.14-59.286 5.892-1.399.27-3.315.27-3.736-1.084 13.949-5.296 29.189-7.165 44.007-5.431-7.728-5.107-17.44-7.152-26.581-5.608-5.229.88-10.281 2.885-15.578 3.02-1.087.028-2.567-.446-2.418-1.516a564 564 0 0 1 19.477-4.579c4.034-.866 8.353-1.68 12.197-.162 1.725.677 3.314 1.828 5.175 1.95 1.141.082 2.268-.257 3.354-.596a126 126 0 0 0 10.948-3.968c2.214-.921 4.441-1.937 6.166-3.59 1.739-1.652 2.907-4.063 2.486-6.42a5681 5681 0 0 1-56.122 12.353c-1.617.352-4.129-.15-3.722-1.734 12.577-2.343 24.258-9.265 32.326-19.18 1.861-2.289 3.586-5.513 1.997-8.005-17.399 13.843-39.552 20.074-58.92 31.045-7.09 4.01-13.868 8.697-21.501 11.568-6.384 2.398-13.188 3.44-19.966 4.253a328 328 0 0 1-18.608 1.707c-2.54.162-5.27.352-7.266 1.95-3.056 2.438-5.433 7.18-6.411 10.958-2.526 9.793 2.88 19.98 9.1 26.996z"/><path fill="#000" d="M28.401 90.061c4.835 1.057 9.494-1.462 13.908-3.088 5.528-2.045 11.043-4.145 16.598-6.122 5.215-1.842 10.988-3.535 16.462-1.761 2.499.813 4.713 2.262 7.008 3.508s4.496 2.086 6.9 2.736c5.175 1.409 10.635 2.29 15.945 2.926 2.853.339 5.705.474 8.571.366 3.124-.136 6.153-.285 9.249.284 2.513.46 4.985 1.057 7.552 1.097s5.175-.325 7.742-.61c2.567-.284 5.311-.555 7.932-.108 1.25.204 2.377.623 3.545 1.084.788.311 1.576.542 2.377.162 1.589-.745 1.44-3.101 1.141-4.537-.448-2.127-1.793-4.01-3.45-5.391-4.251-3.522-10.078-3.25-15.267-2.899-.869.055-1.168 1.395-.217 1.599l.299.067.435-1.57c-7.09-.963-14.289-2.385-20.795-5.46-1.399-.663-3.097-1.503-3.803-2.98-1.059-2.248 2.472-2.898 3.98-3.332 3.422-.988 6.967-1.49 10.309-2.736s5.949-3.278 8.747-5.282a48.6 48.6 0 0 1 8.855-5.04c6.37-2.79 13.229-4.347 20.048-5.607 7.674-1.422 15.877-1.964 22.994-5.377.231-.108.435-.447.408-.705-.231-1.72-1.576-2.41-3.205-2.587-2.731-.311-5.732.203-8.476.352-6.288.353-12.577.732-18.852 1.233s-12.536 1.124-18.771 1.95c-2.92.38-5.827.813-8.733 1.287-1.521.258-3.043.515-4.564.8-1.154.216-3.477.975-4.115-.46l-.489 1.191a94.2 94.2 0 0 1 43.789-5.404c.869.094 1.019-1.111.408-1.517-6.248-4.05-13.61-6.245-21.067-6.231-3.83 0-7.538.731-11.232 1.652-1.29.325-11.83 3.224-11.885 1.165l-.597.786a558 558 0 0 1 18.825-4.43c3.015-.65 6.125-1.368 9.236-1.056 2.893.284 5.107 2.208 7.905 2.655 2.635.42 5.487-.908 7.918-1.747 2.771-.962 5.528-2.005 8.217-3.17 4.252-1.842 8.978-5.12 8.299-10.39-.068-.527-.462-.907-1.032-.785a5661 5661 0 0 1-30.03 6.678c-4.958 1.084-9.902 2.167-14.86 3.25a1374 1374 0 0 1-7.266 1.572c-.53.108-6.913 1.87-6.682.108l-.571.57c8.312-1.6 16.217-5.067 22.995-10.132 3.3-2.466 6.343-5.283 9.005-8.425 2.268-2.669 4.754-6.299 2.811-9.82-.271-.502-.882-.475-1.276-.163-18.703 14.777-42.404 21.13-62.71 33.226-5.433 3.237-10.852 6.65-16.774 8.953-6.302 2.438-13.012 3.549-19.68 4.375-6.67.826-13.365 1.355-20.075 1.842-2.445.176-4.944.529-6.94 2.073s-3.437 3.738-4.578 5.919c-2.757 5.31-3.463 11.148-1.983 16.959 1.562 6.108 5.04 11.594 9.168 16.294.693.786 1.847-.365 1.155-1.151-7.538-8.601-12.605-20.345-6.927-31.276 1.195-2.289 2.825-4.917 5.202-6.122 2.757-1.395 6.37-1.138 9.385-1.368 6.343-.474 12.672-1.097 18.975-1.978 6.302-.88 12.156-2.086 17.86-4.443 5.705-2.356 10.459-5.336 15.498-8.343 9.86-5.892 20.278-10.552 30.736-15.28 11.491-5.173 22.9-10.673 32.829-18.515l-1.277-.163c2.01 3.644-2.431 7.856-4.74 10.254a54.2 54.2 0 0 1-8.707 7.328 55.1 55.1 0 0 1-20.4 8.411c-.245.04-.53.312-.571.569-.57 4.267 5.963 2.465 8.027 2.032 5.841-1.26 11.681-2.533 17.508-3.806a5300 5300 0 0 0 35.314-7.843l-1.032-.786c.801 6.163-6.506 8.683-11.07 10.444a108 108 0 0 1-7.945 2.763c-1.549.474-2.934.785-4.537.244-1.195-.407-2.295-1.098-3.463-1.558-4.713-1.883-9.943-.501-14.683.542a588 588 0 0 0-17.521 4.145.814.814 0 0 0-.598.785c.082 3.278 5.121 2.262 7.09 1.95 4.523-.717 8.856-2.33 13.42-2.884 8.556-1.043 17.276 1.07 24.488 5.743l.408-1.517a95.5 95.5 0 0 0-44.224 5.472c-.53.203-.72.69-.489 1.192.72 1.585 2.513 1.734 4.048 1.558 2.825-.34 5.623-1.016 8.434-1.463 6.139-.962 12.319-1.694 18.513-2.29 6.193-.595 12.115-1.015 18.173-1.381 3.083-.19 6.18-.366 9.263-.542 1.155-.068 7.81-1.205 8.068.718l.407-.704c-7.117 3.427-15.483 3.887-23.171 5.323-7.144 1.34-14.275 3.061-20.903 6.136-3.504 1.625-6.642 3.711-9.752 5.973-3.409 2.479-6.873 4.05-10.988 5.039-1.739.42-3.477.786-5.202 1.26-1.562.433-3.6.853-4.876 1.923-2.146 1.775-.747 4.402.978 5.865 2.838 2.398 7.144 3.59 10.635 4.605 4.346 1.26 8.814 2.073 13.297 2.682 1.005.136 1.48-1.34.434-1.57l-.299-.069-.217 1.599c4.713-.325 10.187-.745 14.112 2.424 1.521 1.22 2.771 2.953 3.083 4.904.231 1.476-.04 2.722-1.793 2.032-1.263-.502-2.512-.881-3.871-1.07-4.4-.624-8.787.406-13.174.677-5.067.311-9.82-1.49-14.846-1.477-2.445 0-4.876.258-7.307.217-3.015-.054-6.003-.42-8.978-.894-4.74-.759-9.63-1.476-14.193-3.007-4.564-1.53-8.163-4.687-12.713-5.879s-9.359-.27-13.773 1.111c-5.446 1.707-10.77 3.888-16.122 5.865a3165 3165 0 0 1-8.217 3.034c-2.73 1.003-5.175 1.829-7.987 1.22-1.018-.231-1.453 1.34-.434 1.57z"/><path fill="#fff" d="M174.546 48.532a28.9 28.9 0 0 1 7.484 6.082c-.503.786-1.467 1.192-2.404 1.246s-1.861-.203-2.744-.488a39.3 39.3 0 0 1-11.626-5.973l9.263-1.22"/><path fill="#000" d="M174.138 49.236a28.7 28.7 0 0 1 7.321 5.96l-.122-.988c-.897 1.246-2.69.853-3.926.487a35 35 0 0 1-4.196-1.558 40.4 40.4 0 0 1-7.539-4.415l-.407 1.517 9.263-1.22c1.019-.135 1.032-1.76 0-1.625l-9.263 1.22c-.815.108-1.087 1.015-.408 1.516a40.3 40.3 0 0 0 9.073 5.066c2.676 1.07 6.71 2.79 8.815-.149.218-.298.095-.731-.122-.988a30 30 0 0 0-7.647-6.218c-.91-.514-1.738.88-.828 1.409z"/><path fill="#fff" d="M33.9 98.216c-1.385.582-2.88 1.205-4.427 1.137-1.386-.067-2.622-.799-3.736-1.557-2.268-1.53-4.482-3.265-6.139-5.459-3.15-4.158-4.4-9.4-5.596-14.371-.312-1.274-2.268-.732-1.97.541 1.373 5.69 2.894 11.663 6.86 16.173 1.956 2.222 4.604 4.375 7.24 5.743 3.028 1.558 5.813.8 8.787-.447 1.209-.5.163-2.262-1.032-1.76zM12.916 69.744c-1.086-6.935.394-14.1 4.034-20.088.68-1.124-1.073-2.14-1.765-1.029-3.94 6.488-5.406 14.168-4.238 21.659.204 1.286 2.16.745 1.97-.542"/><path fill="#fff" stroke="#fff" stroke-miterlimit="10" stroke-width=".25" d="M24.719 102.685s-.734.447-1.644 1.206a.84.84 0 0 1-1.181-.095c-1.236-1.395-2.092-2.316-2.133-2.275s.734 1.029 1.929 2.451a.836.836 0 0 1-.095 1.179c-.883.785-1.494 1.381-1.44 1.422s.72-.447 1.63-1.192a.845.845 0 0 1 1.195.108c.19.217.38.447.584.678 2.16 2.519 2.228 2.478 2.296 2.424s.108-.122-2.051-2.628c-.204-.23-.394-.46-.584-.677a.84.84 0 0 1 .081-1.192c.87-.772 1.48-1.368 1.426-1.422z"/><path stroke="#fff" stroke-miterlimit="10" stroke-width=".25" d="M37.08 43.372s-.285.379-.625.934a.48.48 0 0 1-.638.176c-.91-.487-1.521-.812-1.549-.772-.027.04.584.393 1.467.908a.475.475 0 0 1 .177.636c-.312.57-.516 1.003-.475 1.016.04.014.285-.366.61-.921a.485.485 0 0 1 .64-.176c.135.081.284.163.434.244 1.602.894 1.63.867 1.657.826.027-.04.027-.081-1.562-.975-.15-.081-.285-.163-.435-.244a.47.47 0 0 1-.19-.637c.312-.569.503-.989.475-1.002z"/><path fill="#fff" d="M174.804 84.305a4.27 4.27 0 0 0-4.441.244l-8.435 5.756q-.57.387-.978.935l-10.594 13.816a4.4 4.4 0 0 0-.638 1.192l-3.355 9.63a4.26 4.26 0 0 0 1.44 4.795c.122.095.258.19.394.258"/><path stroke="#000" stroke-miterlimit="10" d="M174.804 84.305a4.27 4.27 0 0 0-4.441.244l-8.435 5.756q-.57.387-.978.935l-10.594 13.816a4.4 4.4 0 0 0-.638 1.192l-3.355 9.63a4.26 4.26 0 0 0 1.44 4.795c.122.095.258.19.394.258M178.784 87.556l-4.591-3.617M150.763 123.396l-2.472-2.628"/><path fill="#fff" stroke="#000" stroke-miterlimit="10" d="M150.695 123.193a4.29 4.29 0 0 0 5.012.135l8.435-5.756q.57-.386.978-.935l10.594-13.816c.271-.366.489-.759.638-1.192l3.355-9.63a4.26 4.26 0 0 0-1.44-4.796 4.29 4.29 0 0 0-5.012-.135l-8.434 5.757q-.57.386-.978.934l-10.594 13.816a4.4 4.4 0 0 0-.639 1.192l-3.354 9.631a4.26 4.26 0 0 0 1.439 4.795Z"/><path stroke="#000" stroke-miterlimit="10" stroke-width=".5" d="m505.696 189.185 1.875-1.301c.692-.623.937-1.273.855-1.91l-.529-3.995a1.1 1.1 0 0 0-.177-.475l-3.694-5.174a1.1 1.1 0 0 0-.381-.325l-3.585-1.761c-.652-.311-1.684-.095-2.567.542-.082.054-.15.108-.218.176M496.121 175.924l2.024-1.395"/><path fill="#fff" stroke="#000" stroke-miterlimit="10" stroke-width=".5" d="M496.392 175.599a3.05 3.05 0 0 0-1.236 2.871l.367 2.886c.068.501.258.975.543 1.395l3.056 4.28c.299.42.693.745 1.155.975l2.539 1.233a3.07 3.07 0 0 0 3.165-.285 3.05 3.05 0 0 0 1.236-2.871l-.367-2.885a3.3 3.3 0 0 0-.543-1.396l-3.056-4.28a3.1 3.1 0 0 0-1.154-.975l-2.54-1.233a3.07 3.07 0 0 0-3.165.285Z"/><path fill="#fff" d="m244.549 131.618-1.725 2.059c-1.969 2.275-7.606.663-12.591-3.617s-7.429-9.603-5.46-11.879l1.725-2.059"/><path stroke="#000" stroke-miterlimit="10" stroke-width=".75" d="m244.549 131.618-1.725 2.059c-1.969 2.275-7.606.663-12.591-3.617s-7.429-9.603-5.46-11.879l1.725-2.059"/><path fill="#fff" stroke="#000" stroke-miterlimit="10" stroke-width=".75" d="M244.588 131.568c1.968-2.279-.479-7.596-5.465-11.876s-10.623-5.902-12.59-3.623.48 7.597 5.466 11.877 10.622 5.902 12.589 3.622Z"/><path fill="#fff" d="m631.848 177.549-2.893 1.91c-3.273 2.113-9.671-1.937-14.289-9.048s-5.704-14.588-2.431-16.701l2.893-1.91"/><path stroke="#000" stroke-miterlimit="10" stroke-width=".75" d="m631.848 177.549-2.893 1.91c-3.273 2.113-9.671-1.937-14.289-9.048s-5.704-14.588-2.431-16.701l2.893-1.91"/><path fill="#fff" stroke="#000" stroke-miterlimit="10" stroke-width=".75" d="M631.907 177.479c3.275-2.115 2.185-9.596-2.434-16.711s-11.018-11.168-14.292-9.054c-3.275 2.114-2.185 9.595 2.434 16.71s11.018 11.169 14.292 9.055Z"/><path fill="#1c1c1c" stroke="#1c1c1c" stroke-miterlimit="10" d="m649.614 164.37-37.161 28.729-.924-20.494s8.883 1.897 16.639-3.427c8.393-5.756 2.893-9.684 2.893-9.684l18.567 4.889z"/><path fill="#ef4f29" d="M502.666 163.462c.829 4.606 4.509 7.884 8.788 9.401 5.134 1.828 10.54.745 15.334-1.558 5.773-2.777 10.825-7.043 15.905-10.877 5.08-3.833 10.621-8.032 16.068-11.852 5.433-3.806 11.001-7.422 16.828-10.606 5.827-3.183 12.428-6.718 19.301-6.23 5.446.393 10.051 4.781 10.893 10.172s-4.469 9.712-5.759 14.818c-.829 3.265.271 6.543 1.358 9.604s2.445 5.933 4.699 8.249c3.369 3.481 7.797 4.998 12.238 6.61 1.236.447 1.766-1.517.543-1.964-3.952-1.436-7.904-2.75-11.001-5.743-2.255-2.195-3.586-5.053-4.605-7.978-1.086-3.102-2.091-6.204-.882-9.428 1.752-4.7 6.071-8.492 5.5-13.87-.461-4.443-3.395-8.736-7.293-10.931-4.958-2.79-11.301-1.585-16.34.325-5.895 2.222-11.463 5.473-16.801 8.791-11.042 6.867-21.229 14.954-31.647 22.715-5.351 3.982-11.49 8.574-18.472 8.696-5.528.095-11.626-3.061-12.658-8.872-.231-1.287-2.187-.745-1.97.542z"/><path fill="#fff" d="m486.11 167.783-2.54-3.183c-2.812-3.616 2.309-12.258 11.422-19.302 9.114-7.043 18.785-9.833 21.596-6.217l2.54 3.183"/><path stroke="#000" stroke-miterlimit="10" stroke-width=".75" d="m486.11 167.783-2.54-3.183c-2.812-3.616 2.309-12.258 11.422-19.302 9.114-7.043 18.785-9.833 21.596-6.217l2.54 3.183"/><path fill="#fff" stroke="#000" stroke-miterlimit="10" stroke-width=".75" d="M507.782 161.617c9.119-7.049 14.234-15.692 11.426-19.304-2.807-3.613-12.476-.827-21.594 6.221-9.119 7.049-14.234 15.691-11.426 19.304s12.476.827 21.594-6.221Z"/><path fill="#fff" d="M676.03 172.727c2.622 0 2.622-4.063 0-4.063s-2.621 4.063 0 4.063M657.559 192.192c-.584.311-1.154.609-1.738.921-.231.122-.326.474-.177.69a.51.51 0 0 0 .693.177c.584-.312 1.154-.61 1.738-.922.231-.121.326-.474.177-.69a.51.51 0 0 0-.693-.176"/><path fill="#fff" stroke="#fff" stroke-miterlimit="10" stroke-width=".25" d="M614.992 188.155c0-.068-.842-.122-2.024-.149a.853.853 0 0 1-.842-.84c-.027-1.855-.082-3.115-.136-3.115s-.109 1.26-.136 3.115c0 .461-.38.827-.842.84-1.182.027-2.024.081-2.024.149s.842.122 2.01.149c.462 0 .843.393.843.853v.894c0 3.319.067 3.333.163 3.333.095 0 .163-.014.163-3.333v-.894c0-.46.366-.853.842-.853 1.168-.027 2.01-.081 2.01-.149zM609.736 169.734s-.679-.109-1.63-.122a.69.69 0 0 1-.679-.677c-.027-1.49-.068-2.506-.109-2.506s-.095 1.016-.109 2.506a.69.69 0 0 1-.679.677c-.95.013-1.63.068-1.63.122s.68.108 1.617.122c.38 0 .679.311.679.69v.718c0 2.655.054 2.669.122 2.669s.122-.014.122-2.669v-.718c0-.379.299-.677.679-.69.938-.014 1.617-.068 1.617-.122Z"/><path fill="#fff" d="M616.377 184.01s-.299.217-.652.556c-.136.135-.38.122-.53-.027-.625-.61-1.059-1.016-1.086-1.003s.38.447 1.005 1.084c.149.149.163.393.027.528-.353.366-.584.637-.557.65s.299-.203.652-.555c.149-.136.38-.122.543.027l.299.298c1.1 1.097.353.312.38.284.028-.027.815.718-.285-.379l-.299-.298c-.163-.149-.176-.393-.027-.542.34-.352.571-.623.557-.65z"/><path stroke="#000" stroke-linecap="round" stroke-linejoin="round" d="m160.978 113.224-3.328-2.547 6.778-4.348 2.988-8.411 3.11 3.399"/><path stroke="#000" stroke-linecap="round" stroke-linejoin="round" stroke-width=".5" d="m497.07 180.543 2.486-1.924.896 4.484 4.442 2.384-2.961 1.72"/><path fill="#1c1c1c" stroke="#fff" stroke-miterlimit="10" stroke-width=".25" d="m236.874 124.154-2.743.475-3.871-6.163 6.696 2.898z"/><path fill="#1c1c1c" stroke="#fff" stroke-miterlimit="10" stroke-width=".25" d="m240.813 127.527-3.259-5.431-.082 2.56-2.445.379z"/><path stroke="#000" stroke-miterlimit="10" d="m380.916 131.09 1.372-2.411M383.389 132.485l1.385-2.398M391.17 113.183l1.616-2.844M393.643 114.578l1.629-2.844"/><path fill="#000" d="m387.081 110.84.598-1.057 2.92 1.653-.828 1.435-.218-.121-2.485-1.91zm-5.528 16.403-.828 1.436-2.92-1.653.597-1.056 2.934 1.137.217.122zm3.491-8.371c1.521-2.655 3.056-5.337 4.509-8.032l2.078 1.178c-1.548 2.574-3.083 5.256-4.645 7.965l-.502.88c-1.739 3.034-3.274 5.716-4.727 8.398l-2.078-1.178c1.548-2.574 3.083-5.256 4.645-7.965l.72-1.26zm1.127.298 2.065 1.165c2.499 1.408 4.156 1.016 5.501-1.341 1.344-2.343.733-3.779-1.359-4.971l-2.458-1.395.693-1.206 3.083 1.734c2.879 1.625 3.504 4.294 2.092 6.759-1.141 2.005-3.274 3.142-6.289 1.991l.136-.23c3.056 2.167 3.368 4.713 2.092 6.948-1.332 2.33-4.238 3.847-8.218 1.599l-2.757-1.558.693-1.205 2.282 1.286c2.648 1.49 4.658.976 5.949-1.286 1.371-2.398.815-4.294-2.038-5.906l-2.132-1.206.679-1.192z"/><g fill="#ef4f29" clip-path="url(#b)"><path d="M639.06 169.688c1.82-5.106 3.72-10.957 1.63-16.285-1.931-4.9-6.633-7.612-11.018-10.038-4.907-2.711-8.707-5.772-11.382-10.798-2.327-4.377-3.626-9.404-3.467-14.367.301-9.689 5.746-19.266 14.548-23.611 7.124-3.52 16.765-4.71 22.338 2.109 3.768 4.614 5.034 11.591.459 16.111-4.575 4.519-11.224 4.598-16.591 2.22-1.393-.619-2.596 1.443-1.203 2.061 4.923 2.172 10.464 2.521 15.403.206 4.607-2.156 7.837-6.58 7.758-11.782-.08-5.201-3.04-10.386-7.235-13.367s-9.388-3.267-14.248-2.315c-8.944 1.744-16.543 7.484-20.501 15.762-4.67 9.768-3.926 21.343 2.01 30.414 1.615 2.457 3.578 4.662 5.969 6.406 3.008 2.188 6.475 3.631 9.546 5.708s5.699 5.075 6.095 9.007c.395 3.933-1.045 8.135-2.391 11.909-.522 1.443 1.773 2.061 2.296.634z"/><path d="M627.108 140.162s0-.032-.016-.047c-.047-.08.016.063 0-.016 0-.032-.031-.127-.016-.048v-.285c0-.048.032-.095.048-.143 0-.016.032-.095 0-.032.158-.349.427-.586.744-.856.697-.603 1.33-1.205 1.441-2.157l-1.014.429.048.047c.016.032.047.064.063.111.048.079.095.159.127.254-.032-.064 0 0 0 .032l.047.142c.032.095.048.191.064.27v.507c0 .048-.016.095-.032.159 0 .047-.016.079-.032.127 0 0-.047.142-.015.063a1 1 0 0 1-.111.206c-.032.048-.048.08-.079.127 0 0-.064.095-.048.064a3 3 0 0 1-.317.317c-.063.047-.316.206-.379.222l-.095.031c-.032 0-.08.032-.111.032-.095.032-.19.048-.285.064l.665.872 1.044-1.903a.604.604 0 0 0-.205-.809.61.61 0 0 0-.808.206l-1.329 2.046c-.333.507.316 1.11.807.809 1.599-.968 2.422-2.839 2.169-4.678-.048-.317-.444-.492-.728-.413-.349.096-.46.413-.412.73v.872c-.032.174-.063.349-.127.523-.063.206-.111.302-.174.444-.317.65-.728 1.126-1.314 1.475l.808.809 1.329-2.046-1.029-.602-1.045 1.902c-.11.207-.11.476.048.666.158.207.38.254.617.207.998-.143 1.853-.888 2.217-1.808.395-.999.142-2.125-.539-2.934-.142-.174-.443-.206-.649-.127-.237.096-.332.302-.364.54 0-.08 0 .047-.016.063 0 .048-.031.111-.047.159.032-.064-.016.047-.032.063-.031.048-.047.095-.079.143a2.4 2.4 0 0 1-.38.428c-.316.301-.681.571-.981.888-.697.761-.982 1.839-.317 2.711.19.254.633.207.839 0 .253-.253.206-.586 0-.84zM613.018 129.871h-.143c.143.047.016 0-.016 0-.095 0-.174-.032-.269-.064-.095-.031-.174-.047-.269-.079-.047 0-.079-.032-.126-.047-.111-.048.095.047-.032 0-.158-.08-.317-.159-.459-.254-.079-.048-.158-.111-.222-.159-.031-.031-.031-.016.032.016-.016 0-.032-.032-.048-.047a.7.7 0 0 0-.11-.096 2.8 2.8 0 0 1-.365-.38c-.031-.032-.063-.064-.095-.111.095.111 0 0-.015-.032-.048-.079-.111-.158-.159-.222a1 1 0 0 1-.126-.238.5.5 0 0 0-.064-.127c-.047-.111.032.096 0-.031-.063-.175-.126-.349-.158-.524l-.57.746h.412c.126 0-.111-.016.016 0 .158.031.332.063.49.127.048 0 .079.031.127.047.142.048-.111-.047.032 0 .079.032.158.079.237.127s.143.079.222.127c.031.032.079.047.111.079.015 0 .031.032.047.048-.047-.048-.063-.048-.032-.016.127.111.269.222.38.365l.095.095c.016.031.095.142.016.016.048.063.095.142.143.206.047.063.079.142.126.222.016.047.048.079.064.127.063.142-.048-.111 0 .031q.094.262.142.524l.871-.666a4.5 4.5 0 0 1-.665-.381c-.095-.063-.206-.143-.301-.206.111.079-.063-.048-.079-.064-.048-.031-.095-.079-.143-.111a4 4 0 0 1-.522-.539c0-.016-.142-.19-.063-.079-.032-.048-.064-.079-.095-.127-.079-.111-.159-.222-.222-.349-.158-.269-.538-.396-.807-.206s-.38.523-.206.809a6 6 0 0 0 2.501 2.283c.475.222.966-.142.871-.666-.333-1.728-2.042-3.06-3.784-2.981a.595.595 0 0 0-.57.745c.396 1.776 2.011 3.108 3.8 3.251.316.032.601-.285.601-.602 0-.349-.269-.571-.601-.603zM615.678 117.201c-.491-.84-.111-1.855.523-2.521.775-.809 1.868-1.189 2.897-1.57l-.729-.729a6.32 6.32 0 0 1-3.482 4.677l.886.508c-.127-1.729.966-3.251 2.644-3.663l-.728-.73c-.523 1.364-1.647 2.379-2.692 3.346l.998.571a3.23 3.23 0 0 1 1.947-2.474l-.712-.935c-.491.602-.966 1.189-1.457 1.792-.206.253-.237.602 0 .84.206.206.633.254.839 0 .491-.602.966-1.189 1.457-1.792.443-.539-.095-1.205-.713-.935-1.282.555-2.248 1.807-2.485 3.187-.095.571.538.999.997.571 1.203-1.126 2.391-2.299 2.992-3.869.174-.444-.332-.825-.728-.73-2.169.524-3.689 2.585-3.515 4.805.032.476.475.714.887.507 2.09-.999 3.657-3.092 4.037-5.391.063-.396-.253-.904-.728-.729-1.298.475-2.66.983-3.578 2.045-.918 1.063-1.267 2.537-.554 3.774.38.666 1.409.064 1.029-.602zM638.743 87.533s-.079-.112-.11-.16c-.016-.03-.127-.269-.064-.11.064.143 0-.048-.016-.08l-.047-.19c0 .27-.048-.142 0 0v-.38c-.032.016-.048.222 0 .031.032-.142.063-.285.111-.428 0-.031.079-.222.031-.079-.047.143.032-.063.048-.095.063-.143.142-.27.237-.397.032-.063.08-.11.111-.174.127-.174-.063.048.032-.047.855-.952 1.789-1.808 2.786-2.633l-1.979-.523s.032.143.048.206c0-.111-.032-.111 0 0 0 .143.016.285.016.428 0 .159 0 .317-.032.476.047-.174 0 .174 0 0-.016.063-.032.143-.048.206a3 3 0 0 1-.11.412c-.016.064-.048.127-.064.207.079-.143-.047.174 0 0a7 7 0 0 1-.411.729c-.048.063-.254.333-.111.159l-.253.3c-.175.207-.365.381-.555.572-.411.396-.854.745-1.298 1.11-.49.396-.443 1.284 0 1.68.507.476 1.156.413 1.678 0 1.014-.824 1.995-1.665 2.692-2.79.823-1.3 1.045-2.87.728-4.361-.079-.397-.443-.73-.823-.825-.444-.127-.824.032-1.156.302-1.156.967-2.343 1.966-3.214 3.203-.87 1.237-1.203 3.092-.269 4.424.364.507 1.061.793 1.631.428.506-.317.807-1.078.427-1.633zM635.201 114.687c-.348-.111-.459-.586-.316-.935.142-.349.411-.619.617-.936.459-.729.443-1.744-.063-2.458a5.4 5.4 0 0 1 1.884 1.491c.174.206.316.428.395.682.159.539-.095 1.126-.506 1.506s-.95.603-1.472.761"/><path d="m635.36 114.116.064.032c-.016-.016-.016-.032 0 0q.023.048 0 0c-.016-.032-.016-.032 0 .016v-.048s-.016-.063-.016 0v-.126c.016-.08.031-.096.095-.191.237-.396.538-.713.712-1.141.333-.841.222-1.856-.301-2.585l-.807.809c.443.222.855.475 1.219.808.317.286.697.65.807 1.047.032.127 0 .285-.047.46a1.2 1.2 0 0 1-.317.444c-.332.317-.775.475-1.219.618-.3.095-.506.412-.411.73.079.301.427.507.728.412.633-.206 1.251-.46 1.741-.92s.792-1.126.713-1.776c-.079-.698-.539-1.253-1.013-1.728a5.8 5.8 0 0 0-1.584-1.126c-.237-.111-.522-.111-.712.095-.174.174-.237.507-.095.714.238.348.333.666.317 1.078 0 .158-.032.333-.111.523 0 .048 0 .032 0 0l-.032.064s-.047.095-.079.142a3 3 0 0 1-.206.286c-.301.38-.57.793-.57 1.3 0 .555.301.999.808 1.189.3.111.649-.127.728-.412.095-.333-.111-.618-.412-.729zM654.332 115.409c-.649-.27-.886-1.174-.57-1.808s1.013-.999 1.726-1.062c.712-.064 1.409.126 2.074.364.538.191 1.108.413 1.662.27.791-.19 1.282-1.205.918-1.935.681.127 1.077.92.982 1.602s-.57 1.252-1.077 1.728c-.871.825-1.947 1.475-3.134 1.57-1.188.095-2.47-.428-3.024-1.491"/><path d="M654.632 114.901c-.649-.301-.459-1.126.047-1.474.824-.571 1.916-.238 2.771.063.918.317 1.979.539 2.754-.222.634-.618.776-1.538.428-2.331l-.665.872c.665.159.633.999.364 1.475-.411.729-1.156 1.332-1.884 1.744-1.298.745-3.229.825-4.052-.666-.365-.666-1.394-.079-1.029.603.538.983 1.551 1.585 2.643 1.744 1.172.174 2.359-.19 3.341-.84.981-.651 1.978-1.507 2.279-2.649.269-1.03-.221-2.299-1.345-2.553-.539-.126-.871.413-.665.873.111.253 0 .586-.159.792-.253.318-.633.318-.997.238-.554-.127-1.092-.38-1.646-.507s-1.093-.175-1.647-.079c-.902.142-1.804.761-2.058 1.68-.237.841.111 1.872.934 2.268.285.143.633.079.808-.206.158-.254.079-.682-.206-.809zM627.884 110.62c1.583.27 1.504 2.331.95 3.505a.596.596 0 0 0 1.029.602c.332-.491.791-.951 1.361-1.125.444-.127 1.029-.048 1.298.301.19.254.507.396.808.206.253-.143.411-.555.206-.809a29 29 0 0 0-.634-.84c-.174-.238-.443-.508-.554-.793-.031-.095-.016-.095 0-.174a.53.53 0 0 1 .127-.222c.142-.191.348-.349.554-.476.633-.444.095-1.348-.602-1.031-.585.27-1.187.539-1.852.444s-1.235-.396-1.805-.698c-.284-.142-.649-.079-.807.207-.158.269-.079.666.206.808.76.397 1.535.777 2.406.857s1.678-.254 2.454-.603l-.602-1.031c-.617.428-1.314 1.031-1.266 1.871.016.46.253.809.522 1.158s.554.729.824 1.11l1.029-.603c-.602-.777-1.552-1.078-2.502-.872s-1.678.936-2.2 1.697l1.029.603c.475-.999.712-2.157.396-3.235-.27-.968-1.045-1.824-2.074-1.998-.317-.048-.634.079-.729.412-.079.285.095.682.412.729z"/></g><path fill="#fff" stroke="#fff" stroke-miterlimit="10" stroke-width=".25" d="M648.948 155.335c0-.162-1.997-.298-4.768-.352a2.01 2.01 0 0 1-1.983-1.977c-.068-4.375-.19-7.328-.326-7.328s-.258 2.966-.326 7.328c-.013 1.083-.896 1.95-1.983 1.977-2.77.054-4.767.19-4.767.352 0 .163 1.969.298 4.727.353 1.1.013 1.983.921 1.983 2.018v2.086c0 7.802.163 7.842.366 7.842.204 0 .367-.04.367-7.842v-2.086c0-1.097.883-1.991 1.983-2.018 2.757-.055 4.727-.19 4.727-.353Z"/><path fill="#3f3f3f" stroke="#3f3f3f" stroke-miterlimit="10" stroke-width=".3" d="m492.547 156.717.516.664 8.34-1.585-5.977 4.619.394.514 5.976-4.618-3.612 7.653.516.663 4.319-9.143 10.119-1.91-.517-.663-8.502 1.612 6.098-4.714-.407-.515-6.085 4.714 3.681-7.816-.516-.663-4.387 9.292z"/><path fill="#3f3f3f" stroke="#3f3f3f" stroke-miterlimit="10" stroke-width=".3" d="m504.079 152.396.231-.84-3.789.691-1.63 3.495.882-.014 1.291-2.777zM505.871 154.712l.882-.013-1.63 3.481-3.789.704.231-.853 3.015-.556z"/></g><defs><clipPath id="a"><path fill="#fff" d="M0 0h678v194.426H0z"/></clipPath><clipPath id="b"><path fill="#fff" d="M609.203 80.762h54.838v89.735h-54.838z"/></clipPath></defs></svg>
