<svg xmlns="http://www.w3.org/2000/svg" width="170" height="94" fill="none"><g clip-path="url(#a)"><path fill="#000" d="M86.282 39.068a15.85 15.85 0 0 0-1.094-7.487c-.174-.429-.38-.864-.734-1.16-.354-.294-.901-.401-1.281-.133-.287.2-.407.556-.514.891-.554 1.743-1.068 3.794 0 5.275.82 1.14 2.382 1.588 3.116 2.788"/><path fill="#000" d="M86.035 39.068a15.8 15.8 0 0 0-.694-6.354c-.207-.637-.414-1.414-.868-1.923-.22-.255-.573-.476-.927-.39-.4.095-.527.49-.647.838-.194.597-.367 1.2-.487 1.817-.247 1.287-.187 2.68.793 3.653.888.87 2.09 1.333 2.783 2.406.174.274-.26.523-.434.254-.747-1.16-2.182-1.588-3.022-2.66-.841-1.073-.855-2.594-.581-3.928.147-.697.32-1.454.614-2.104.247-.55.727-.878 1.335-.771.653.12 1.08.65 1.347 1.226.334.71.581 1.468.788 2.225.5 1.857.654 3.794.48 5.71-.026.322-.527.322-.5 0zM93.769 42.915c-.32 0-.32-.503 0-.503s.32.503 0 .503M85.014 55.167c-.834 3.116-.634 5.884.42 8.934-1.794.47-3.676.47-5.531.47-.654 0-1.362-.021-1.875-.43-.708-.57-.728-1.622-.674-2.527.18-3.016.393-6.936.914-9.906.026-.14.06-.294.173-.375.14-.1.334-.054.494 0 1.675.53 4.264 2.748 5.792 3.613"/><path fill="#000" d="M85.254 55.234c-.774 2.982-.56 5.898.42 8.8a.254.254 0 0 1-.173.308c-1.12.282-2.262.402-3.416.45-1.048.04-2.202.153-3.237-.04-1.988-.37-1.775-2.508-1.688-4.07.133-2.258.274-4.517.54-6.762.054-.456.114-.905.18-1.36.054-.376.054-.919.254-1.254.354-.576 1.168-.134 1.615.08 1.835.885 3.35 2.313 5.105 3.338.28.161.027.597-.254.436-1.614-.938-3.03-2.198-4.664-3.103-.267-.148-1.101-.717-1.401-.422-.107.107-.107.596-.134.75-.053.329-.1.664-.14.992a68 68 0 0 0-.354 3.506 156 156 0 0 0-.233 3.491c-.06.979-.327 2.28.18 3.177.62 1.1 2.449.784 3.497.764 1.354-.026 2.695-.127 4.01-.455l-.173.308c-1.008-2.983-1.215-6.005-.42-9.068.08-.315.566-.181.48.134zM75.437 63.009c.374-3.03-2.228-5.503-3.436-8.305-.5-1.166-.768-2.42-.955-3.673-1.16-7.881.594-16.548-3.43-23.41-.24-.41-.52-.832-.954-1.026-1.24-.563-2.349 1.032-2.709 2.352-1.508 5.563-.887 11.542.787 17.058 1.675 5.516 4.358 10.663 7.034 15.77 1.014.362 2.482.872 3.496 1.233"/><path fill="#000" d="M75.19 63.009c.234-2.454-1.327-4.464-2.502-6.462s-1.735-4.155-2.008-6.48c-.594-5-.147-10.074-.881-15.054-.354-2.4-1.008-4.772-2.182-6.903-.327-.59-.74-1.401-1.522-1.375-.674.02-1.2.758-1.488 1.287-.6 1.1-.787 2.487-.967 3.707-.834 5.55.233 11.22 2.095 16.447 1.068 2.99 2.396 5.878 3.817 8.713.7 1.401 1.375 2.842 2.155 4.203.374.643.955.73 1.629.965s1.34.469 2.015.71c.3.107.173.59-.134.483-.58-.208-1.167-.41-1.748-.617-.514-.18-1.388-.308-1.808-.643-.36-.282-.608-1.08-.821-1.482-.36-.697-.727-1.394-1.081-2.097-1.368-2.681-2.676-5.396-3.784-8.19-2.208-5.57-3.623-11.63-2.942-17.648.153-1.334.347-2.741.794-4.008.287-.824.8-1.742 1.608-2.151 2.022-1.026 3.163 2.393 3.67 3.733 1.922 5.08 1.568 10.67 1.788 16.005.134 3.19.294 6.609 1.849 9.47 1.261 2.326 3.23 4.572 2.956 7.393-.033.322-.534.322-.5 0zM69.372 61.547a63.2 63.2 0 0 1-8.615-19.812c-1.1-4.537-1.748-9.33-4.277-13.244-.934-1.447-2.602-2.861-4.184-2.211-1.748.717-1.748 3.177-1.421 5.053a259 259 0 0 0 6.199 27.071c3.683.75 8.595 2.118 12.211 3.143"/><path fill="#000" d="M69.159 61.675a63.7 63.7 0 0 1-7.2-14.866c-.868-2.607-1.509-5.261-2.103-7.942-.593-2.681-1.207-5.463-2.368-8.003-.554-1.22-1.215-2.493-2.196-3.425-1.04-.992-2.796-1.635-3.783-.194-.594.858-.6 2.05-.514 3.05.113 1.407.447 2.808.707 4.195a259 259 0 0 0 5.352 22.902c.133.462.133.71.58.871.32.114.681.148 1.015.221q1.073.24 2.135.51c2.876.71 5.732 1.508 8.581 2.312.307.087.18.57-.133.483-4.044-1.146-8.094-2.3-12.211-3.144a.24.24 0 0 1-.174-.174A264 264 0 0 1 52.71 41.99a255 255 0 0 1-1.662-8.331c-.34-1.85-.934-3.968-.347-5.831.5-1.575 2.049-2.366 3.597-1.689 1.968.865 3.083 3.143 3.877 5.02 1.942 4.578 2.442 9.651 3.917 14.39a63 63 0 0 0 7.52 15.878c.18.268-.253.523-.433.254z"/><path fill="#fff" d="M55.242 21.31c-2.502-.511-4.706-2.343-5.689-4.727-.545-1.316-.726-2.758-.876-4.175-.24-2.301-.405-4.677.29-6.873l-.337-.057-13.969.43c.02 2.399-1.526 4.737-3.728 5.638s-4.921.303-6.558-1.437c-.902-.963-1.51-2.236-2.616-2.944-1.075-.688-2.417-.725-3.691-.735-4.216-.045-8.426-.082-12.641-.127a37.3 37.3 0 0 0-.83 8.492c.033 1.667.214 3.45 1.266 4.737 1.54 1.896 4.3 2.046 6.729 2.052 6.152.016 12.442.085 18.226 2.209 12.668 4.652 20.327 18.8 20.195 32.415l.065.172 18.617.62c.78.026 1.598.047 2.316-.268.906-.394 1.52-1.248 2.22-1.955 3.44-3.453 9.933-2.881 12.736 1.12.457.645.844 1.39 1.524 1.788.643.377 1.424.379 2.168.367l17.9-.227c1.169-8.946-5.316-17.096-12.46-22.513-13.562-10.285-31.08-15.093-47.93-13.157"/><path fill="#a4a4a4" d="M54.976 22.221c-3.043-.673-5.532-2.965-6.53-5.93-.57-1.695-.706-3.565-.837-5.34-.141-1.916-.089-3.833.462-5.685l.636 1.18c-.897-.15-1.963.04-2.881.067L42.1 6.63l-7.45.226.953-.93c-.054 4.524-4.298 7.868-8.645 6.748a6.9 6.9 0 0 1-2.748-1.431c-.844-.71-1.389-1.666-2.1-2.493-.82-.949-1.8-1.275-3.024-1.348-1.317-.074-2.641-.047-3.953-.058l-9.712-.1.918-.677c-.647 3.068-1.036 6.367-.729 9.503.122 1.245.48 2.533 1.478 3.352.924.755 2.168 1.018 3.322 1.127 2.838.265 5.727.065 8.573.205 3.052.143 6.113.47 9.086 1.21 9.528 2.368 16.896 9.664 20.724 18.637a40 40 0 0 1 2.407 7.711 40 40 0 0 1 .732 5.996c.021.543-.117 1.335.067 1.837l-.893-.71 13.96.466 3.414.112c1.024.031 2.35.276 3.302-.212.794-.402 1.321-1.238 1.95-1.84a8.3 8.3 0 0 1 1.79-1.292c2.693-1.44 6.023-1.438 8.767-.164a8.7 8.7 0 0 1 3.503 2.928c.488.697.868 1.473 1.777 1.629 1.053.183 2.21.033 3.28.014 5.248-.069 10.496-.132 15.744-.202l-.953.93c1.224-9.968-6.766-18.12-14.233-23.303a66.8 66.8 0 0 0-28.077-11.108 66.2 66.2 0 0 0-17.16-.303c-1.196.137-1.15-1.756.033-1.892 10.496-1.187 21.254.193 31.159 3.874a68 68 0 0 1 14.041 7.144c4.384 2.925 8.201 6.118 11.265 10.218 3.302 4.42 5.531 9.774 4.839 15.397-.065.523-.403.92-.953.93-4.63.061-9.26.117-13.89.178-1.13.018-2.261.029-3.392.046-1.019.014-2.094.083-3.036-.382-1.449-.72-2.005-2.472-3.237-3.473-2.23-1.807-5.614-2.215-8.203-.993a6.8 6.8 0 0 0-1.757 1.18c-.712.669-1.288 1.479-2.128 2.006-1.705 1.068-4.12.589-6.012.53-5.276-.178-10.55-.348-15.82-.525-.45-.015-.744-.31-.893-.71-.173-.477-.088-1.056-.098-1.555a35 35 0 0 0-.087-1.806 34 34 0 0 0-.443-3.58 38 38 0 0 0-1.932-7.008c-1.714-4.493-4.345-8.667-7.778-12.017-3.63-3.549-8.08-5.926-13-7.037-3.019-.679-6.113-.918-9.19-1.017-2.791-.088-5.682.169-8.447-.31-1.332-.232-2.623-.742-3.618-1.687-1.082-1.023-1.587-2.477-1.774-3.926-.45-3.498.008-7.206.73-10.633.089-.402.525-.685.918-.677 2.623.028 5.24.05 7.863.078 1.287.01 2.567.027 3.854.038 1.117.014 2.242-.01 3.344.205a5.06 5.06 0 0 1 2.636 1.41c.725.727 1.209 1.626 1.908 2.364 1.312 1.387 3.415 1.904 5.224 1.33 2.066-.656 3.433-2.752 3.459-4.89.009-.53.447-.914.953-.93l7.762-.24 3.725-.115c1.02-.032 2.064-.146 3.073.017.499.085.768.734.636 1.18-.465 1.55-.518 3.14-.421 4.744s.225 3.197.642 4.725c.716 2.62 2.793 4.55 5.406 5.134 1.177.26.645 2.075-.531 1.814z"/><path fill="#a4a4a4" d="M94.25 42.201c-5.743-6.257-13.21-10.714-21.407-12.774-1.17-.292-.637-2.113.532-1.814 8.489 2.134 16.277 6.793 22.222 13.274.82.892-.527 2.213-1.348 1.314M85.065 42.562a7 7 0 0 0-.256-.396q-.062-.096-.134-.192c-.012-.02-.134-.186-.049-.07a11 11 0 0 0-1.212-1.354c-.11-.11-.228-.212-.345-.316-.061-.051-.117-.103-.178-.148.098.084-.031-.026-.068-.052q-.72-.561-1.52-.993a9 9 0 0 0-.414-.209l-.167-.079c.148.072-.118-.052-.118-.052a11 11 0 0 0-.869-.319c-.466-.154-.8-.683-.635-1.179s.664-.802 1.167-.642a11.9 11.9 0 0 1 6.432 5.07c.261.422.081 1.069-.36 1.288a.95.95 0 0 1-1.274-.364z"/><path fill="#ff7054" d="M54.065 42.376c-.393-1.47-.974-2.857-1.947-4.036-.972-1.179-2.208-2.255-3.338-3.355-.529-.514-.207-1.38.44-1.576 2.066-.613 4.274-.788 6.411-.876a32 32 0 0 1 2.68-.009c.55.029 1.111.052 1.613.3 1.405.72 2.534 2.236 3.436 3.496 1.17 1.63 2.23 3.568 2.243 5.632.003.556-.459.882-.953.93a63 63 0 0 1-9.698.192c-1.198-.066-1.17-1.959.034-1.893 3.232.184 6.475.116 9.697-.192l-.953.93c-.014-1.698-1.04-3.352-2.004-4.67a15.4 15.4 0 0 0-1.616-1.878c-.203-.199-.411-.404-.64-.585a7 7 0 0 0-.339-.24c-.16-.104-.117-.065-.086-.052-.062-.026-.268-.036-.031-.02-.106-.008-.218-.022-.324-.03a14 14 0 0 0-.893-.042 36 36 0 0 0-2.493.038c-1.881.086-3.802.26-5.617.801l.44-1.576c1.216 1.177 2.52 2.299 3.565 3.636s1.742 2.916 2.187 4.59c.31 1.18-1.503 1.646-1.814.473z"/><path fill="#000" d="M134.073 74.637a152 152 0 0 0-24.063-17.366c-11.19-6.508-23.568-11.87-31.81-21.883-3.423 2.5-2.956 8.043-.407 11.434s6.5 5.355 9.943 7.829a37.7 37.7 0 0 1 9.716 10.247c.22-1.541-1.728-2.607-3.243-2.285s-2.703 1.454-4.017 2.285c-4.818 3.03-11.044 1.783-16.57.436-9.882-2.406-19.931-4.88-28.686-10.073-2.175-1.294-4.304-2.762-6.74-3.439s-5.338-.382-7.06 1.475c2.75 2.138 5.492 4.283 8.241 6.42 3.917 3.057 7.901 6.02 12.045 8.754 9.069 5.992 19.492 11.407 30.128 10.764-4.224-.275-12.418-2.983-16.615-3.284.447 3.297 7.667 7.017 10.843 7.955 3.177.939 6.553.798 9.85 1.153 8.774.952 16.769 5.442 25.37 7.426 14.007 3.23 28.587-.341 42.467-4.075 4.864-1.307 9.796-2.647 14.827-2.607 2.689-8.88 1.648-18.833-2.816-26.957a114.7 114.7 0 0 0-28.22 9.23c-2.095.998-4.698 2.64-6.766 3.706"/><path fill="#000" d="M133.893 74.818a152.3 152.3 0 0 0-23.482-17.017c-7.314-4.296-15.008-7.956-21.96-12.835-3.844-2.694-7.421-5.77-10.424-9.397l.3.04c-4.077 3.104-2.195 9.256.781 12.373 1.862 1.95 4.157 3.391 6.4 4.86 2.241 1.467 4.397 3.042 6.345 4.898a38.4 38.4 0 0 1 5.82 7.045l-.468.127c.093-1.1-.84-1.816-1.828-2.024-1.275-.268-2.45.449-3.464 1.146-1.841 1.267-3.59 2.299-5.818 2.721-4.278.811-8.675-.221-12.826-1.233-9.389-2.286-18.931-4.652-27.419-9.43-2.429-1.368-4.738-3.11-7.434-3.928-2.409-.73-5.258-.556-7.1 1.327v-.355c6.186 4.819 12.299 9.765 18.791 14.169 6.053 4.108 12.472 7.935 19.492 10.1 3.877 1.2 7.907 1.823 11.965 1.595v.503c-5.646-.409-10.977-2.842-16.616-3.284l.24-.315c.374 2.299 3.036 3.96 4.845 5.067 2.162 1.32 4.53 2.48 7.02 3.022 3.61.778 7.36.543 10.997 1.187 3.636.643 6.906 1.742 10.263 2.935 3.356 1.193 6.813 2.527 10.309 3.52a50 50 0 0 0 11.411 1.822c7.701.342 15.368-.891 22.855-2.6 4.264-.972 8.475-2.132 12.699-3.244s8.394-2.044 12.718-2.038l-.24.188c2.636-8.874 1.622-18.64-2.796-26.763l.28.114a115.6 115.6 0 0 0-18.364 5.074 114 114 0 0 0-8.955 3.733c-2.616 1.22-5.051 2.768-7.607 4.102-.287.148-.54-.288-.253-.435 2.555-1.334 4.991-2.882 7.607-4.102a113 113 0 0 1 8.788-3.673 116 116 0 0 1 18.658-5.181c.106-.02.226.013.28.114 4.471 8.217 5.518 18.123 2.842 27.124a.26.26 0 0 1-.24.188c-4.117 0-8.147.864-12.118 1.896s-7.72 2.078-11.611 3.003c-7.52 1.79-15.221 3.164-22.981 3.036-3.831-.067-7.661-.51-11.384-1.434-3.624-.898-7.127-2.205-10.63-3.472s-6.914-2.466-10.504-3.217-7.513-.617-11.244-1.24c-2.909-.482-5.651-1.762-8.147-3.304-1.889-1.166-4.591-2.902-4.978-5.308-.027-.148.067-.335.24-.315 5.639.442 10.97 2.882 16.616 3.284.32.02.327.482 0 .503-7.247.402-14.287-1.917-20.693-5.155-6.88-3.478-13.24-7.982-19.358-12.654-3.544-2.7-7.04-5.469-10.55-8.203-.107-.087-.087-.268 0-.355 3.343-3.419 8.368-1.508 11.85.563 2.263 1.34 4.492 2.687 6.874 3.813a74 74 0 0 0 7.407 2.996c5.011 1.736 10.156 3.036 15.301 4.29 4.724 1.152 9.896 2.58 14.727 1.213 1.321-.376 2.523-.979 3.644-1.763 1.047-.73 2.108-1.588 3.39-1.85 1.581-.322 3.71.684 3.556 2.527-.02.248-.327.342-.467.127a37.8 37.8 0 0 0-5.846-7.037c-2.228-2.098-4.657-3.74-7.173-5.396-4.104-2.694-8.368-5.951-8.695-11.28-.147-2.365.634-4.684 2.55-6.139.08-.06.24-.04.3.04 5.505 6.65 12.852 11.287 20.285 15.456 3.697 2.078 7.447 4.062 11.118 6.18a151 151 0 0 1 11.937 7.667 154 154 0 0 1 12.532 9.94c.24.214-.113.57-.353.355z"/></g><defs><clipPath id="a"><path fill="#fff" d="M170 0H0v94h170z"/></clipPath></defs></svg>
