<svg xmlns="http://www.w3.org/2000/svg" width="163" height="90" fill="none"><g clip-path="url(#a)"><path fill="#000" d="M82.729 37.295a15.1 15.1 0 0 0-1.05-7.147c-.166-.41-.364-.825-.704-1.107-.339-.281-.863-.383-1.228-.127-.275.191-.39.53-.493.85-.53 1.664-1.023 3.622 0 5.036.787 1.088 2.284 1.516 2.988 2.662"/><path fill="#000" d="M82.491 37.295a15 15 0 0 0-.665-6.065c-.199-.608-.397-1.35-.832-1.837-.211-.243-.55-.454-.89-.37-.383.089-.505.466-.62.8-.186.569-.352 1.144-.467 1.733-.237 1.229-.18 2.56.761 3.487.851.832 2.003 1.273 2.668 2.297.167.262-.25.5-.416.243-.716-1.107-2.092-1.516-2.898-2.54s-.819-2.476-.557-3.75c.141-.665.307-1.388.589-2.008.237-.525.697-.838 1.28-.736.627.115 1.036.62 1.292 1.17.32.679.557 1.402.755 2.125a15.5 15.5 0 0 1 .46 5.451c-.025.307-.505.307-.48 0zM89.906 40.968c-.307 0-.307-.48 0-.48s.307.48 0 .48M81.511 52.664c-.8 2.975-.608 5.618.403 8.529-1.721.448-3.525.448-5.304.448-.627 0-1.305-.02-1.798-.41-.678-.544-.697-1.548-.646-2.412.173-2.88.377-6.622.876-9.457.026-.134.058-.281.167-.358.134-.096.32-.051.473 0 1.606.506 4.089 2.623 5.554 3.449"/><path fill="#000" d="M81.742 52.728c-.742 2.847-.538 5.63.403 8.4.038.122-.045.263-.166.295-1.075.269-2.17.384-3.276.429-1.005.038-2.112.147-3.103-.039-1.907-.352-1.702-2.393-1.62-3.884.129-2.156.263-4.312.519-6.455.051-.435.109-.864.173-1.3.051-.357.051-.876.243-1.196.339-.55 1.12-.128 1.548.077 1.76.845 3.212 2.208 4.895 3.187.269.153.025.569-.243.415-1.549-.895-2.905-2.098-4.473-2.962-.255-.14-1.055-.685-1.343-.403-.103.102-.103.57-.128.716-.051.314-.096.634-.135.947a65 65 0 0 0-.339 3.347c-.09 1.12-.16 2.22-.224 3.333-.057.934-.313 2.176.173 3.033.595 1.05 2.348.749 3.353.73 1.299-.026 2.585-.122 3.845-.436l-.166.295c-.966-2.848-1.165-5.733-.403-8.657.076-.3.543-.173.46.128zM72.33 60.15c.359-2.892-2.137-5.253-3.295-7.928-.48-1.113-.736-2.31-.915-3.506-1.113-7.524.57-15.797-3.288-22.349-.23-.39-.5-.793-.915-.979-1.19-.537-2.252.985-2.598 2.246-1.446 5.31-.85 11.018.755 16.283 1.606 5.266 4.178 10.18 6.744 15.055.972.346 2.38.832 3.352 1.178"/><path fill="#000" d="M72.095 60.15c.224-2.342-1.274-4.261-2.4-6.168s-1.663-3.967-1.926-6.187c-.57-4.773-.14-9.617-.844-14.37-.34-2.291-.966-4.556-2.092-6.59-.314-.564-.71-1.338-1.46-1.312-.645.019-1.15.723-1.426 1.228-.576 1.05-.755 2.374-.928 3.538-.8 5.298.224 10.71 2.01 15.701 1.023 2.854 2.296 5.612 3.66 8.318.67 1.337 1.317 2.713 2.066 4.012.358.614.915.697 1.56.921.647.224 1.287.448 1.933.678.288.103.166.563-.128.461-.556-.198-1.12-.39-1.676-.589-.493-.172-1.331-.294-1.734-.614-.346-.269-.582-1.03-.787-1.414-.346-.665-.698-1.33-1.037-2.002-1.311-2.56-2.565-5.151-3.627-7.82-2.118-5.316-3.475-11.1-2.822-16.846.147-1.273.333-2.616.761-3.826.276-.787.768-1.663 1.542-2.054 1.939-.979 3.033 2.285 3.52 3.564 1.842 4.85 1.503 10.186 1.714 15.28.128 3.045.282 6.308 1.772 9.04 1.21 2.22 3.097 4.364 2.835 7.057-.032.307-.512.307-.48 0zM66.516 58.755a60.2 60.2 0 0 1-8.26-18.913c-1.056-4.332-1.677-8.907-4.102-12.643-.895-1.382-2.495-2.732-4.011-2.112-1.677.685-1.677 3.033-1.363 4.825 1.516 8.714 3.5 17.339 5.944 25.842 3.532.717 8.24 2.022 11.709 3.001"/><path fill="#000" d="M66.31 58.877a60.7 60.7 0 0 1-6.903-14.192c-.831-2.489-1.446-5.022-2.015-7.582s-1.158-5.214-2.272-7.64c-.53-1.164-1.164-2.38-2.104-3.269-.999-.947-2.681-1.56-3.628-.185-.57.819-.576 1.958-.493 2.911.109 1.344.429 2.68.678 4.005a246 246 0 0 0 5.132 21.863c.128.442.128.678.556.832.307.109.653.14.973.21.684.154 1.369.315 2.047.487 2.758.678 5.496 1.44 8.228 2.208.294.083.173.543-.128.46-3.877-1.094-7.76-2.194-11.708-3a.23.23 0 0 1-.167-.167 251 251 0 0 1-3.967-15.733 243 243 0 0 1-1.593-7.953c-.326-1.766-.895-3.788-.332-5.567.48-1.503 1.964-2.258 3.448-1.612 1.888.825 2.956 3 3.718 4.792 1.861 4.37 2.341 9.214 3.755 13.737a60 60 0 0 0 7.21 15.158c.174.256-.242.499-.415.243z"/><path fill="#fff" d="M52.968 20.341c-2.4-.488-4.512-2.237-5.454-4.514-.522-1.257-.696-2.634-.84-3.986-.23-2.198-.387-4.466.28-6.564l-.323-.053-13.393.412c.02 2.29-1.464 4.524-3.575 5.384s-4.719.29-6.288-1.371c-.864-.92-1.447-2.135-2.507-2.81-1.03-.658-2.318-.693-3.54-.702-4.041-.042-8.077-.078-12.119-.12a35.5 35.5 0 0 0-.797 8.11c.032 1.591.205 3.294 1.213 4.523 1.477 1.81 4.122 1.953 6.452 1.959 5.898.014 11.928.079 17.474 2.106 12.144 4.44 19.486 17.949 19.357 30.951l.063.164 17.848.588c.748.026 1.532.046 2.22-.255.87-.377 1.459-1.192 2.13-1.867 3.298-3.298 9.523-2.753 12.21 1.067.438.617.81 1.328 1.461 1.707.617.36 1.365.362 2.078.35l17.162-.218c1.122-8.544-5.094-16.325-11.943-21.497-13-9.819-29.796-14.408-45.951-12.556"/><path fill="#a4a4a4" d="M52.713 21.21c-2.918-.642-5.304-2.83-6.26-5.66-.546-1.62-.676-3.405-.802-5.101-.135-1.828-.084-3.66.444-5.428l.61 1.126c-.86-.142-1.882.039-2.763.065l-3.571.112-7.143.216.914-.888c-.053 4.32-4.122 7.514-8.29 6.446a6.6 6.6 0 0 1-2.634-1.367c-.808-.677-1.331-1.59-2.012-2.38-.786-.906-1.727-1.218-2.9-1.287-1.262-.07-2.532-.045-3.79-.055l-9.31-.094.88-.647c-.622 2.93-.995 6.081-.701 9.075.116 1.19.46 2.419 1.416 3.201.886.721 2.079.971 3.185 1.075 2.72.253 5.49.062 8.22.195 2.925.136 5.86.447 8.71 1.155 9.135 2.26 16.198 9.225 19.867 17.793a38 38 0 0 1 2.307 7.363 38 38 0 0 1 .7 5.725c.021.518-.112 1.275.065 1.755l-.856-.678 13.383.442 3.274.107c.982.03 2.253.263 3.166-.203.761-.384 1.266-1.183 1.87-1.757a8 8 0 0 1 1.716-1.234c2.582-1.377 5.774-1.374 8.406-.158a8.3 8.3 0 0 1 3.358 2.795c.467.665.831 1.407 1.703 1.555 1.009.175 2.12.032 3.144.014 5.032-.067 10.063-.129 15.095-.196l-.914.888c1.176-9.519-6.484-17.302-13.642-22.25-8.01-5.53-17.307-9.178-26.918-10.603a63.7 63.7 0 0 0-16.452-.286c-1.146.13-1.102-1.677.032-1.808 10.064-1.134 20.377.182 29.873 3.695a65.2 65.2 0 0 1 13.462 6.82c4.202 2.793 7.861 5.84 10.798 9.756 3.165 4.22 5.302 9.332 4.637 14.702-.062.499-.387.879-.914.887-4.439.06-8.877.114-13.316.173-1.085.017-2.169.028-3.253.045-.976.013-2.008.079-2.91-.365-1.39-.688-1.922-2.36-3.103-3.315-2.138-1.726-5.383-2.115-7.865-.948-.616.29-1.185.66-1.685 1.127-.682.639-1.235 1.412-2.04 1.916-1.635 1.02-3.95.563-5.764.507-5.058-.169-10.116-.331-15.168-.5-.43-.013-.713-.295-.856-.677-.166-.455-.084-1.008-.093-1.484a33 33 0 0 0-.084-1.725 33 33 0 0 0-.424-3.419 36.3 36.3 0 0 0-1.851-6.691c-1.643-4.29-4.165-8.276-7.456-11.474-3.48-3.389-7.745-5.658-12.463-6.718-2.893-.648-5.86-.876-8.81-.97-2.676-.084-5.447.162-8.098-.295-1.278-.222-2.515-.707-3.47-1.61-1.036-.977-1.52-2.366-1.7-3.749-.431-3.34.01-6.881.702-10.153.085-.384.503-.654.88-.648 2.515.027 5.024.048 7.539.074 1.233.01 2.46.026 3.694.036 1.072.013 2.15-.01 3.207.195a4.86 4.86 0 0 1 2.527 1.347c.695.693 1.159 1.551 1.829 2.256 1.258 1.324 3.273 1.818 5.008 1.27 1.981-.627 3.293-2.629 3.317-4.671.009-.506.429-.872.914-.888l7.442-.23 3.572-.11c.977-.031 1.979-.14 2.946.016.478.08.736.7.609 1.126-.446 1.48-.497 2.998-.404 4.53s.215 3.053.614 4.513c.686 2.5 2.678 4.344 5.183 4.9 1.128.25.618 1.982-.51 1.733z"/><path fill="#a4a4a4" d="M90.366 40.287a41.75 41.75 0 0 0-20.523-12.194c-1.12-.28-.61-2.018.51-1.733 8.139 2.037 15.606 6.484 21.305 12.672.787.852-.505 2.112-1.292 1.255M81.56 40.63a7 7 0 0 0-.244-.377 3 3 0 0 0-.129-.183c-.011-.019-.128-.178-.046-.068a10.4 10.4 0 0 0-1.163-1.292 8 8 0 0 0-.33-.3c-.06-.05-.112-.1-.171-.142.094.08-.03-.025-.066-.05q-.69-.537-1.456-.948a8 8 0 0 0-.398-.2l-.16-.075c.142.069-.113-.05-.113-.05a11 11 0 0 0-.833-.304c-.447-.147-.767-.653-.609-1.126s.637-.766 1.12-.613a11.4 11.4 0 0 1 6.165 4.84c.25.403.078 1.02-.345 1.23a.91.91 0 0 1-1.221-.347z"/><path fill="#ff7054" d="M51.838 40.455c-.377-1.405-.934-2.729-1.866-3.854-.933-1.126-2.118-2.153-3.201-3.203-.507-.49-.199-1.317.422-1.505 1.98-.585 4.098-.753 6.147-.837a30 30 0 0 1 2.57-.008c.526.027 1.065.049 1.546.287 1.347.686 2.43 2.134 3.294 3.336 1.122 1.557 2.138 3.407 2.15 5.378.003.53-.44.842-.914.887-3.09.301-6.199.36-9.298.184-1.149-.062-1.122-1.87.032-1.807 3.1.176 6.209.11 9.298-.184l-.914.888c-.013-1.622-.997-3.2-1.92-4.458a15 15 0 0 0-1.55-1.793c-.194-.19-.394-.386-.613-.56a6 6 0 0 0-.325-.228c-.154-.099-.113-.062-.083-.05-.06-.025-.257-.034-.03-.018-.101-.008-.209-.022-.31-.03a14 14 0 0 0-.856-.04 35 35 0 0 0-2.39.037c-1.805.082-3.646.248-5.386.766l.422-1.505c1.166 1.123 2.416 2.194 3.418 3.471 1.001 1.277 1.669 2.784 2.096 4.382.297 1.127-1.442 1.572-1.74.452z"/><path fill="#000" d="M128.553 71.25a145.6 145.6 0 0 0-23.071-16.577c-10.73-6.213-22.599-11.331-30.5-20.89-3.283 2.386-2.835 7.678-.39 10.915 2.443 3.237 6.23 5.112 9.532 7.473a36.1 36.1 0 0 1 9.316 9.783c.211-1.471-1.657-2.489-3.11-2.182s-2.59 1.389-3.851 2.182c-4.62 2.892-10.59 1.702-15.887.416-9.475-2.297-19.111-4.658-27.505-9.617-2.086-1.234-4.127-2.636-6.463-3.282-2.335-.646-5.118-.365-6.769 1.408 2.636 2.04 5.266 4.088 7.902 6.13 3.756 2.917 7.575 5.745 11.549 8.355C58 71.084 67.995 76.254 78.193 75.64c-4.05-.263-11.907-2.847-15.931-3.135.428 3.148 7.351 6.699 10.397 7.594 3.045.896 6.283.762 9.444 1.1 8.413.91 16.078 5.196 24.325 7.09 13.43 3.084 27.41-.326 40.718-3.89 4.665-1.248 9.393-2.527 14.217-2.489 2.579-8.477 1.581-17.979-2.7-25.733a110.4 110.4 0 0 0-27.058 8.81c-2.009.953-4.504 2.52-6.487 3.538"/><path fill="#000" d="M128.38 71.424a146 146 0 0 0-22.515-16.246c-7.013-4.1-14.39-7.594-21.057-12.252-3.685-2.572-7.115-5.51-9.994-8.97l.288.038c-3.91 2.962-2.105 8.836.749 11.811 1.785 1.862 3.986 3.237 6.136 4.639 2.15 1.4 4.216 2.904 6.084 4.677a36.7 36.7 0 0 1 5.58 6.724l-.448.122c.09-1.05-.807-1.734-1.754-1.932-1.222-.256-2.348.428-3.32 1.094-1.766 1.209-3.443 2.194-5.58 2.597-4.1.775-8.317-.21-12.297-1.177-9.002-2.182-18.151-4.44-26.29-9.002-2.329-1.305-4.543-2.969-7.128-3.75-2.31-.697-5.041-.53-6.807 1.267v-.339c5.931 4.6 11.792 9.322 18.017 13.526 5.803 3.922 11.958 7.576 18.69 9.642 3.717 1.145 7.581 1.74 11.471 1.523v.48c-5.413-.39-10.525-2.713-15.931-3.135l.23-.301c.358 2.195 2.911 3.781 4.645 4.837 2.073 1.26 4.344 2.367 6.731 2.886 3.461.742 7.057.518 10.544 1.132s6.622 1.664 9.84 2.803c3.219 1.138 6.533 2.412 9.886 3.359a48 48 0 0 0 10.941 1.74c7.383.326 14.735-.851 21.913-2.483 4.089-.927 8.126-2.034 12.176-3.096s8.049-1.952 12.195-1.945l-.23.179c2.527-8.472 1.555-17.794-2.681-25.548l.269.108a111 111 0 0 0-17.608 4.844 109 109 0 0 0-8.586 3.564c-2.509 1.164-4.844 2.642-7.294 3.915-.276.141-.519-.275-.244-.415 2.451-1.274 4.786-2.752 7.294-3.916a109 109 0 0 1 8.427-3.506 111.6 111.6 0 0 1 17.889-4.946c.102-.02.218.012.269.108 4.287 7.845 5.291 17.301 2.725 25.894a.245.245 0 0 1-.23.18c-3.948 0-7.812.825-11.619 1.81s-7.403 1.984-11.133 2.866c-7.211 1.709-14.594 3.02-22.035 2.899-3.673-.064-7.345-.486-10.915-1.37-3.475-.857-6.834-2.104-10.193-3.314s-6.628-2.354-10.07-3.07c-3.443-.718-7.205-.59-10.781-1.184-2.79-.461-5.42-1.683-7.813-3.155-1.81-1.113-4.402-2.77-4.773-5.067-.025-.141.064-.32.23-.301 5.407.422 10.52 2.751 15.932 3.135.307.02.314.46 0 .48-6.948.384-13.698-1.83-19.84-4.92-6.597-3.32-12.695-7.62-18.562-12.08-3.397-2.579-6.75-5.221-10.115-7.832-.103-.083-.083-.255 0-.339 3.205-3.263 8.023-1.44 11.363.538 2.169 1.28 4.306 2.566 6.59 3.64a71 71 0 0 0 7.102 2.86c4.805 1.658 9.738 2.899 14.671 4.095 4.53 1.1 9.489 2.464 14.12 1.158 1.268-.358 2.42-.934 3.494-1.682 1.005-.698 2.022-1.517 3.25-1.766 1.517-.307 3.558.652 3.41 2.412-.018.237-.313.326-.447.122a36.1 36.1 0 0 0-5.605-6.719c-2.137-2.002-4.466-3.57-6.878-5.15-3.935-2.572-8.023-5.682-8.337-10.768-.14-2.26.608-4.473 2.444-5.861.077-.058.23-.039.288.038 5.279 6.347 12.323 10.775 19.45 14.754 3.545 1.984 7.141 3.878 10.66 5.9a144 144 0 0 1 11.446 7.32 148 148 0 0 1 12.016 9.488c.231.205-.109.544-.339.339z"/></g><defs><clipPath id="a"><path fill="#fff" d="M163 0H0v89.735h163z"/></clipPath></defs></svg>