<svg xmlns="http://www.w3.org/2000/svg" width="832" height="477" fill="none"><g clip-path="url(#a)"><path fill="#fff" stroke="#b0b0b0" stroke-miterlimit="10" stroke-width="2.75" d="M705.17 439.094c-7.206-18.433-13.336-40.811-9.679-60.248 2.652-14.094 10.79-26.43 18.784-38.337 32.765-48.951 66.713-99.122 115.467-132.187-15.486-11.834-38.537-12.587-54.776-1.865-7.672 5.057-13.085 12.839-20.075 18.828-31.009 26.538-82.666 72.19-81.089 71.437 14.519-14.596 26.456-25.354 41.871-38.121 15.164-12.588 28.679-21.876 27.854-41.564-.287-6.707-2.653-13.162-3.513-19.796-1.577-12.157 1.864-24.315 4.875-36.185 12.475-48.987 18.355-99.373 24.234-149.58-8.819-2.618-16.67 6.132-21.079 14.237-9.213 16.891-15.128 35.324-20.971 53.65-10.898 34.104-21.76 68.173-32.658 102.278 6.094-14.453 10.755-29.694 11.866-45.366 1.004-13.806-.753-27.649-2.509-41.42-3.693-29.156-7.564-58.814-19.502-85.674-9.5 6.347-14.877 17.536-16.813 28.833-1.935 11.26-.896 22.808-.107 34.212a731 731 0 0 1-.502 107.442c-5.377-9.646-5.557-21.23-6.166-32.239a331 331 0 0 0-21.867-101.382c-2.438-6.24-7.672-13.735-14.017-11.44-4.481 1.614-5.843 7.244-6.202 12.014-3.226 46.584 28.607 93.384 14.232 137.781l-38.824-92.954c-.645-1.578-1.398-3.228-2.832-4.124-3.764-2.367-8.137 2.188-9.822 6.312-7.385 18.397-2.653 39.268 3.477 58.096 6.13 18.863 13.73 38.085 11.758 57.809-1.613 16.533-8.926 37.082-15.665 52.251-9.536 21.41-13.3 48.091-4.804 69.895 12.081 30.949 15.487 23.741 18.354 42.497 5.091 33.316-11.794 57.738-14.912 88.866 31.51 12.336 80.049 18.756 110.806 4.59 5.162-2.367 10.36-5.272 13.587-9.934 3.226-4.662 2.868-12.408 1.254-18.576z"/><path fill="#d8d8d8" d="M486.675 400.686c1.721 0 1.721-2.69 0-2.69-1.72 0-1.72 2.69 0 2.69"/><path fill="#fff" d="M221.433 452.901c-2.366-4.805.967-21.159 1.9-29.514 1.433-12.839 2.186-24.387 5.664-37.225 6.56-24.171 25.989-50.099 21.365-75.992-8.926-50.099-48.072-93.635-35.669-146.89 5.843-25.068 19.896-59.531 5.664-83.953-8.962 15.385-17.565 38.516-24.162 52.645-8.101 17.429-9.643 33.854-14.267 51.749-4.66-13.627-6.058-37.763-4.517-54.008 1.828-19.114 12.368-37.547 14.554-56.626.968-8.32-.322-31.2-8.962-35.647-10.109-5.236-11.471 19.76-14.697 27.614-7.313 17.823-13.874 34.894-17.494 53.685-3.621 18.792-1.219 41.026-2.08 61.037-10.826-21.84-12.331-48.664-11.794-72.656.287-13.126-.501-25.713 1.649-38.552 2.151-12.91 4.159-24.709 3.621-38.085-.287-7.1-3.8-27.865-13.264-29.12s-9.033 22.199-10.145 28.654c-4.122 24.278-8.89 48.306-14.124 72.656-2.724 12.695-2.079 24.243 3.334 36.041 5.987 13.09 6.56 23.382 7.994 37.476 3.442-13.914-5.162-31.272-11.4-43.214-7.133-13.699-9.858-22.055-16.526-35.97-9.5-19.795-15.45-47.193-23.265-60.068-5.664-9.288-25.918-21.983-19.967 3.694 6.631 28.546 10.145 60.284 19.214 86.75 5.27 15.385 6.56 31.738 9.966 47.481 1.577 7.316 3.692 14.775 5.054 22.163 1.184 6.312.502 14.237 2.151 20.477 3.37 12.803 23.553 24.135 36.243 28.259 16.06 5.2 32.299 10.795 45.133 21.876-21.724-17.644-46.997-18.146-70.764-32.706-6.632-4.052-17.028-14.13-22.943-19.545-6.059-5.523-14.411-10.507-21.545-14.703-17.422-10.257-28.5-11.548-39.326-7.567-19.824 7.352 10.074 26.538 18.677 33.961 12.726 10.974 20.864 23.059 32.586 34.966 10.934 11.117 19.681 23.955 30.364 35.539 9.894 10.723 20.361 23.274 27.101 36.041 7.134 13.628 11.794 26.43 10.719 42.353-.968 14.775-9.895 27.865-11.364 42.246 0 0 3.369 18.54 35.704 32.706 21.438 9.36 69.582 1.936 69.582 1.936z"/><path fill="#b0b0b0" d="M222.724 452.542c-1.757-4.231-.645-9.898-.108-14.309.646-5.236 1.542-10.435 2.151-15.671 1.685-14.919 2.94-29.802 8.102-44.003 4.553-12.552 10.862-24.386 15.164-37.045s5.413-23.884 2.724-36.4c-5.377-24.924-17.422-47.697-26.384-71.401-4.517-11.978-8.388-24.315-9.93-37.046s-.394-25.39 2.796-37.87c6.453-25.175 18.247-55.335 4.338-80.116-.502-.896-1.828-.86-2.33 0-8.855 15.385-15.021 32.169-22.226 48.378-3.728 8.392-7.098 16.712-9.392 25.641-2.617 10.149-4.374 20.513-6.955 30.698h2.581c-3.441-10.471-4.517-21.696-4.947-32.67-.466-11.619 0-23.203 3.047-34.463 3.298-12.301 8.46-24.1 10.934-36.615 1.541-7.782 1.613-15.6.502-23.454-.861-6.276-2.366-15.026-7.923-19.115-4.373-3.227-8.531-1.111-10.897 3.228-3.263 6.025-4.015 13.233-5.629 19.796-2.617 10.615-7.994 20.692-11.507 31.092-4.624 13.664-8.281 27.686-9.177 42.102-.968 15.492.287 30.985-.323 46.477l2.51-.681c-12.87-26.502-11.579-56.017-11.543-84.706 0-7.962.107-15.959 1.254-23.848 1.004-6.958 2.33-13.879 3.119-20.908 1.219-10.687 1.47-21.445-1.147-31.917-1.542-6.132-4.445-15.815-11.579-17.537-6.632-1.613-9.321 5.774-10.396 10.903-1.864 8.642-1.9 17.644-3.441 26.358a1726 1726 0 0 1-8.927 46.657c-3.19 15.528-7.814 30.59-3.692 46.154 2.043 7.674 6.023 14.596 7.887 22.378s2.437 15.707 3.262 23.597c.143 1.398 2.294 1.972 2.653.358 3.405-15.456-4.661-30.948-11.544-44.253-3.871-7.495-7.24-15.17-10.575-22.88-3.62-8.356-7.743-16.46-10.97-24.996-5.484-14.488-9.14-29.837-15.88-43.823-3.334-6.957-9.5-14.524-17.458-16.246-10.038-2.187-8.604 10.58-7.277 16.64 4.122 18.864 7.205 37.906 11.22 56.77 4.015 18.863 10.575 35.933 13.802 54.438 1.756 10.006 3.334 19.975 5.7 29.837 1.147 4.842 2.437 9.647 3.334 14.524.896 4.878.824 10.185 1.326 15.278 1.541 15.994 15.988 25.569 29.539 31.809 7.707 3.551 15.988 5.666 23.911 8.679 10.539 3.98 20.648 9.001 29.287 16.281l1.9-1.901c-19.393-15.42-44.057-18.504-65.53-29.801-9.536-4.985-17.207-12.265-25.058-19.545-8.424-7.818-17.924-14.022-27.997-19.544-8.281-4.555-17.602-8.571-27.245-8.069-5.52.287-14.554 1.793-17.135 7.531-2.259 4.985 1.935 10.292 5.09 13.771 4.983 5.487 11.041 9.898 16.849 14.452 8.567 6.778 15.773 14.99 22.87 23.239 8.39 9.754 17.495 18.791 25.632 28.761s16.67 19.652 25.094 29.443c8.998 10.471 16.956 21.624 22.764 34.176 5.269 11.368 8.388 23.812 7.062 36.436-1.327 12.623-8.066 23.669-10.504 35.933-.824 4.053-.788 5.882.896 9.468 2.366 5.128 6.059 9.647 10.11 13.52 7.671 7.28 17.422 13.233 27.388 16.748 8.567 3.012 17.995 3.622 26.993 3.801 13.623.251 27.424-.753 40.867-2.833 1.721-.251.968-2.869-.717-2.582-10.683 1.649-21.58 2.474-32.371 2.689-8.245.18-16.597 0-24.735-1.362-9.392-1.578-17.924-5.631-25.882-10.831-6.417-4.196-12.475-9.36-16.741-15.815-1.47-2.223-3.585-5.379-3.872-8.14-.394-3.766 1.828-9.109 3.011-12.624 1.9-5.774 4.266-11.404 5.987-17.249 2.939-9.97 3.19-20.298 1.039-30.483-4.731-22.378-19.25-41.6-34.234-58.204-8.102-9.001-15.594-18.433-23.373-27.721s-16.562-18.111-24.592-27.399c-6.453-7.459-13.085-14.775-20.828-20.872-5.557-4.375-11.328-8.606-16.24-13.806-4.91-5.2-8.675-11.907.108-15.349 8.102-3.192 16.741-2.26 24.735.753 6.632 2.474 12.727 6.132 18.749 9.79 6.023 3.658 11.436 7.208 16.454 11.727 7.35 6.67 14.411 14.094 22.871 19.401 22.19 13.915 49.686 15.959 70.514 32.491 1.326 1.04 3.226-.789 1.9-1.901-12.225-10.328-27.066-16.066-42.086-21.051-13.013-4.303-27.746-10.651-35.92-22.27-4.624-6.563-3.907-14.452-4.588-22.091-.79-8.786-3.585-17.357-5.45-25.928-1.864-8.571-3.226-18.146-4.91-27.183-1.685-9.038-3.98-16.999-6.632-25.426-5.163-16.389-8.21-33.388-11.364-50.243-1.578-8.428-3.12-16.891-4.911-25.283-1.004-4.662-5.127-14.775-1.542-19.222 4.588-5.63 15.594 6.491 17.709 10.006 7.241 11.906 10.432 26.61 14.984 39.663 5.521 15.744 12.69 31.057 19.753 46.226 7.062 15.17 20.111 33.603 16.06 51.964l2.653.359c-1.219-11.871-2.223-23.705-6.776-34.858-2.724-6.706-5.341-12.982-5.951-20.298s.431-13.807 1.9-20.621a1962 1962 0 0 0 8.747-43.25c2.08-10.937 4.589-21.947 5.449-33.064.323-3.98.61-7.961 1.398-11.87.61-2.94 1.47-7.782 4.517-9.253 7.994-3.837 12.189 14.166 13.121 18.828 2.222 11.189 1.111 22.772-.502 33.997-.968 6.742-2.33 13.448-2.94 20.262s-.609 13.915-.609 20.872c0 28.402-.825 57.307 11.901 83.522.61 1.255 2.474.574 2.51-.681.466-12.193-.179-24.35 0-36.543s1.792-24.889 5.09-37.153c3.298-12.265 7.421-23.167 11.938-34.428 2.76-6.85 4.373-13.376 6.094-20.513.968-3.98 3.405-16.21 9.786-12.193s7.17 15.385 7.672 21.84c1.685 20.943-8.568 39.376-13.013 59.316-2.402 10.902-2.473 22.306-1.864 33.387.538 10.257 1.685 20.764 4.911 30.59.394 1.22 2.259 1.327 2.581 0 2.438-9.647 4.159-19.473 6.56-29.12 2.402-9.646 6.023-18.576 10.002-27.685 6.955-15.851 13.049-32.204 21.724-47.23h-2.33c13.12 23.418 2.151 52.322-4.123 76.135-3.083 11.762-4.803 23.525-3.835 35.718s3.943 23.956 7.922 35.396c8.173 23.561 20.075 45.76 26.815 69.823 1.828 6.527 3.584 13.305 3.728 20.083.143 6.778-1.183 13.556-3.155 20.047-3.872 12.838-10.145 24.745-15.02 37.189-5.736 14.703-7.528 30.016-9.177 45.58-.682 6.276-1.757 12.516-2.474 18.792-.538 4.483-1.541 10.077.251 14.381.645 1.577 3.262.896 2.581-.718"/><path fill="#fff" d="M621.894 141.476c-2.545-2.798-6.381-2.618-9.823-2.152 0 .538.682 1.04.789 1.936l-.609 3.838.788.215s.43-.251-.251.323c-.179.143-.394.502-.573.717-1.542 1.9-3.585 3.586-5.557 5.056-5.986 4.519-13.371 6.169-21.473 8.679-21.76 6.706-44.451 11.512-66.821 15.779-45.168 8.679-90.23 18.29-135.613 25.892-45.743 7.675-91.449 15.78-136.833 25.534-21.939 4.698-43.842 9.253-65.996 12.731-22.871 3.586-45.922 5.559-68.865 8.464-14.769 1.864-29.682 5.056-44.021 6.347-5.09.466-11.22.933-15.81.287a22 22 0 0 1-2.222-.43c.108-.144.18-.287.323-.431.968-1.147 1.362-2.402 1.326-3.622-.286-.358-.537-.717-.824-1.04l.358.467c-.466-.61-.896-1.22-1.362-1.829a21 21 0 0 0-1.72-1.865c-.467-.431-.933-1.901-1.291-2.403-1.434-.251-2.832 1.148-4.123 2.654-3.298 3.873-6.094 9.037-2.832 13.843 2.94 4.339 8.783 5.128 13.587 5.486 10.001.754 20.326-.789 30.184-2.438 23.767-3.981 47.642-6.168 71.553-9.145 24.914-3.084 49.685-7.28 74.241-12.372 49.973-10.364 99.981-20.262 150.312-28.762 25.022-4.231 49.936-8.822 74.815-13.878 25.094-5.093 50.331-9.575 75.424-14.704 14.34-2.94 28.571-6.311 42.803-9.826 11.83-2.905 24.843-5.845 35.812-11.296 5.378-2.654 11.615-7.567 14.662-12.803 1.721-2.941 2.115-6.599-.322-9.288z"/><path fill="#fff" d="M47.608 254.263c-.467-.18-.216-.072 0 0v.035c-.719-.035-.395-.755 0-.071zM48.072 255.983v.072c-.071.107-.286.322 0-.072"/><path fill="#000" d="M50.475 250.245c-.61.968-1.147 1.363-1.864 3.407l-.323-.108c-.036 0-.072-.072-.107-.107-.43-.502-.968-.395-1.076-.395l-.789.861v.287c.108.358.323.681.717.86l2.366.61c.61.143 1.22.215 1.721.287 4.553.61 10.396.215 16.024-.287 8.353-.753 17.064-2.188 25.488-3.55 6.094-1.004 12.404-2.009 18.57-2.798 8.46-1.075 17.027-2.044 25.344-2.94 14.304-1.578 29.073-3.228 43.556-5.523 23.05-3.622 46.172-8.463 66.068-12.731 48.646-10.436 96.431-18.756 136.761-25.534 30.865-5.164 62.089-11.368 92.273-17.393 14.447-2.869 28.893-5.738 43.376-8.535 20.398-3.909 44.308-8.858 66.893-15.815 1.254-.394 2.509-.753 3.728-1.112 6.596-1.972 12.834-3.801 17.996-7.71 1.756-1.327 4.015-3.12 5.7-5.2.071-.072.143-.215.25-.323.072-.107.144-.215.216-.287.466-.394 1.039-.86.645-1.506l-.968-.287-.215-.072.179.646-.394-.43s-.144.143-.359.287c-.215.179-.358.394-.537.645l-.18.215c-1.577 1.937-3.692 3.622-5.377 4.913-4.911 3.694-10.718 5.415-17.458 7.424-1.219.358-2.473.753-3.764 1.111-22.513 6.922-46.352 11.871-66.713 15.78-14.483 2.761-28.93 5.666-43.377 8.535-30.184 5.989-61.372 12.193-92.201 17.357-40.365 6.778-88.187 15.098-136.868 25.534-19.86 4.267-42.947 9.109-65.961 12.731-14.447 2.259-29.18 3.909-43.448 5.487-8.317.932-16.92 1.9-25.381 2.976-6.201.789-12.51 1.829-18.64 2.797-8.389 1.363-17.064 2.798-25.381 3.551-5.52.502-11.256.896-15.594.287-.25 0-.538-.072-.825-.144.538-.825.86-1.434 1.363-2.223-.323-.574-.86-.933-1.255-1.471"/><path fill="#000" d="M45.384 244.435c-.25-.251-.86-.86-.968-1.147-1.29.86-2.222 1.362-3.441 2.761-4.804 5.666-5.772 10.687-2.904 14.954 3.011 4.447 8.64 5.451 14.268 5.882q2.742.215 5.484.215c8.353 0 16.849-1.291 24.915-2.654 16.526-2.761 33.41-4.698 49.757-6.563 7.241-.824 14.519-1.649 21.76-2.546 24.233-3.012 49.255-7.172 74.313-12.408 60.225-12.516 106.577-21.374 150.276-28.761 25.344-4.268 50.51-8.93 74.851-13.915 12.296-2.51 24.842-4.877 36.959-7.208 12.619-2.403 25.667-4.877 38.465-7.495 15.056-3.084 30.077-6.706 42.839-9.826l2.939-.718c11.257-2.761 22.907-5.594 33.052-10.651 4.768-2.366 11.579-7.244 15.056-13.125 2.187-3.694 2.008-7.675-.43-10.328-2.903-3.156-7.169-2.905-10.575-2.475a2.68 2.68 0 0 1-.107 1.829c3.19-.43 6.99-.789 9.392 1.829 2.832 3.12.86 7.101.215 8.213-3.047 5.2-9.392 10.005-14.304 12.444-10.001 4.949-21.544 7.782-32.693 10.507l-2.94.717c-12.726 3.12-27.746 6.742-42.766 9.827-12.798 2.618-25.811 5.092-38.43 7.495-12.116 2.295-24.663 4.698-36.995 7.208-24.305 4.949-49.47 9.611-74.779 13.879-43.735 7.387-90.087 16.245-150.347 28.761-25.022 5.2-49.973 9.36-74.17 12.372-7.242.897-14.483 1.722-21.76 2.546-16.347 1.865-33.267 3.802-49.83 6.599-9.75 1.65-20.11 3.156-29.968 2.439-5.162-.395-10.324-1.291-12.906-5.093-2.366-3.514-1.433-7.818 2.797-12.767.968-1.147 2.079-2.115 3.047-2.761"/><path fill="#fff" d="M586.727 151.445c-.574-1.936-2.044-3.622-2.294-5.594-21.545-.467-43.054-1.758-64.527-2.977-25.632-1.399-51.191-1.937-76.859-2.08-25.954-.179-51.908-.323-77.826-.466-25.452-.144-51.048.394-76.5-.466-12.869-.431-25.703-2.511-38.573-2.547-8.854 0-18.426 1.112-27.316-.645-.681 2.008-1.649 3.909-2.438 5.881v.108c-.107.466-.215.932-.286 1.434-.18 1.004-.072 2.009-.215 3.013 7.814 1.614 16.06 1.219 23.946 1.04 10.97-.215 21.796 1.076 32.73 1.829 25.81 1.757 51.872.86 77.754 1.004 51.622.287 103.386-.538 154.972 2.08 26.205 1.327 52.41 3.12 78.651 3.586-.538-1.685-.61-3.514-1.147-5.2z"/><path fill="#000" d="M587.66 155.784c-19.179-.358-38.537-1.398-57.357-2.438-6.991-.395-14.017-.789-21.043-1.148-39.11-2.008-78.938-2.008-117.475-2.008-12.511 0-25.022 0-37.533-.072-7.205-.036-14.446 0-21.652.036-18.426.108-37.425.215-56.031-1.076-2.903-.215-5.807-.43-8.711-.681-5.484-.466-11.077-.897-16.705-1.112a168 168 0 0 0-7.385-.072l-2.939.072c-6.955.179-14.124.287-20.9-1.148a5.8 5.8 0 0 1-.286 1.758c6.918 1.434 14.16 1.327 21.222 1.183l2.939-.072c8.03-.179 16.096.502 23.911 1.148 2.904.251 5.807.466 8.747.681 5.126.359 10.324.61 15.522.753 13.622.467 27.281.359 40.652.287 7.241-.036 14.447-.071 21.652-.035 12.511.071 25.022.071 37.533.071 38.501 0 78.364 0 117.403 2.008 7.026.359 14.017.754 21.007 1.148 19.035 1.076 38.644 2.116 58.074 2.475a10.5 10.5 0 0 1-.609-1.794zM242.262 138.427c2.617-.108 5.306-.215 7.887-.179 7.062 0 14.303.681 21.293 1.291 5.664.502 11.508 1.04 17.279 1.219 17.028.61 34.522.538 51.371.466 8.388 0 16.777-.071 25.165 0 20.147.108 40.293.251 60.404.359l17.422.108c30.005.179 54.418.86 76.787 2.08l10.074.573c17.924 1.004 36.35 2.009 54.704 2.403a5 5 0 0 1-.215-1.793c-18.247-.395-36.565-1.399-54.382-2.403l-10.073-.574c-22.405-1.219-46.854-1.9-76.895-2.08l-17.422-.107c-20.146-.144-40.293-.251-60.404-.359-8.388-.036-16.777 0-25.165 0-16.634.072-33.841.108-50.726-.43-5.914-.215-11.901-.717-17.709-1.255-7.026-.646-14.267-1.291-21.437-1.291-2.617 0-5.341.107-7.958.179-6.381.251-12.941.466-19.071-.717a32 32 0 0 1-.574 1.721c6.417 1.291 13.156 1.04 19.753.789z"/><path fill="#fff" d="M794.252 235.506c-.752.394-1.505.824-2.186 1.326-.395.287-.825.538-1.219.861 0 0-.144.108-.215.144-.179.143-.395.287-.574.466-1.577 1.255-3.226 2.582-5.162 3.227.143.323.323.61.538.897a56 56 0 0 1-4.087.897c-6.488 1.219-14.375 1.326-21.545 1.434-22.799.323-45.634-2.044-68.255-4.662-45.276-5.236-89.907-14.094-135.004-20.37-43.053-6.024-86.896-8.284-128.874-20.369-42.803-12.337-87.003-17.214-130.846-24.458-24.09-3.981-48.251-8.679-72.054-13.95-9.5-2.116-19.789-4.125-28.5-8.643-1.864-.968-6.56-3.192-6.488-5.882.071-1.793 1.971-3.084 3.979-3.873.466-1.506.968-2.976 1.613-4.411 1.04-2.367 2.689-4.518 3.298-7.064a5 5 0 0 0-1.326-.18c-8.03.323-17.566 5.774-18.283 14.488-.681 7.962 6.238 13.485 12.726 16.676 8.891 4.34 18.856 6.706 28.464 8.894 11.65 2.618 23.444 4.59 35.167 6.957 24.054 4.878 48.144 8.93 72.377 12.588 24.377 3.658 48.754 7.352 72.772 12.91 12.26 2.833 24.269 6.635 36.493 9.611 11.472 2.797 23.087 4.985 34.773 6.814 23.803 3.73 47.786 5.953 71.696 8.965 24.951 3.12 49.686 7.675 74.493 11.727 25.022 4.089 50.116 7.675 75.317 10.544 27.531 3.156 55.78 6.24 83.49 3.693 5.843-.537 12.619-1.362 17.817-4.303 7.205-4.124 5.341-10.974-.287-14.883z"/><path fill="#fff" d="M789.449 240.885c.179-.215.25-.179 0 0"/><path fill="#000" d="m786.725 244.579.323.179zM789.699 239.809c-.322 0-.251.072-.86.395a5 5 0 0 1-.645.322c-.753.323-1.542.574-2.366.825-.036-.072 0 .072 0 0-.466.108-.861.215-1.327.323-.143.036-.322.107-.466.107 0-.035 0 .036 0 0-.932.216-1.9.395-2.867.574-6.381 1.184-14.304 1.327-21.402 1.435-22.871.287-46.208-2.116-68.147-4.662-26.492-3.084-53.199-7.424-79.045-11.655-18.319-2.977-37.247-6.097-55.959-8.715-11.902-1.65-24.054-3.048-35.813-4.411-30.793-3.55-62.626-7.208-92.954-15.923-32.622-9.396-66.57-14.56-99.407-19.544-10.324-1.578-21.043-3.192-31.51-4.949-23.624-3.909-47.858-8.607-72.019-13.915l-2.295-.502c-8.89-1.936-18.067-3.945-25.99-8.069l-.394-.215c-1.685-.861-5.664-2.905-5.592-4.841.036-1.112 1.254-2.08 2.688-2.762.251-.753.538-1.506.753-2.259-2.473.825-5.198 2.439-5.269 4.949-.108 3.084 4.23 5.307 6.56 6.527l.394.215c8.138 4.232 17.422 6.276 26.42 8.248l2.294.502c24.198 5.344 48.467 10.042 72.127 13.951 10.503 1.721 21.222 3.371 31.546 4.948 32.801 4.985 66.714 10.149 99.192 19.509 30.471 8.787 62.376 12.445 93.241 15.995 11.723 1.363 23.875 2.761 35.741 4.411 18.677 2.618 37.605 5.702 55.887 8.678 25.847 4.232 52.589 8.607 79.117 11.691 22.011 2.547 45.42 5.093 68.506 4.663 7.062-.108 15.056-.216 21.58-1.435l7.636-1.937"/><path fill="#000" d="M795.077 234.968s-.144.107-.251.179c-.502.251-.932.574-1.398.861 2.975 1.936 4.875 4.733 4.947 7.387.036 2.439-1.434 4.591-4.23 6.204-4.983 2.833-11.615 3.658-17.458 4.196-28.356 2.618-57.572-.717-83.311-3.694-24.055-2.761-48.646-6.204-75.246-10.543-6.488-1.076-13.013-2.152-19.501-3.263-17.996-3.049-36.601-6.169-55.027-8.5-8.138-1.04-16.311-1.972-24.448-2.905-15.523-1.793-31.547-3.622-47.213-6.06-12.833-2.008-24.197-4.232-34.701-6.778-5.556-1.363-11.148-2.905-16.597-4.411-6.489-1.793-13.228-3.658-19.896-5.2-24.52-5.666-50.187-9.504-72.843-12.91-26.994-4.053-50.654-8.141-72.342-12.552a566 566 0 0 0-13.586-2.618c-7.098-1.327-14.411-2.726-21.581-4.339-10.396-2.367-19.717-4.627-28.248-8.822-4.876-2.367-12.942-7.567-12.225-15.78.681-8.033 9.572-13.34 17.423-13.699.394 0 .717.072 1.039.144.108-.359.251-.682.323-1.076.072-.287.215-.467.394-.538-.573-.18-1.183-.323-1.828-.323-8.64.359-18.39 6.312-19.143 15.313-.789 9.288 7.958 14.99 13.228 17.537 8.711 4.267 18.139 6.562 28.643 8.965 7.169 1.614 14.518 3.012 21.616 4.339 4.517.861 9.034 1.722 13.551 2.618 21.724 4.411 45.419 8.535 72.449 12.588 22.62 3.407 48.251 7.244 72.7 12.874 6.668 1.542 13.371 3.407 19.824 5.2 5.449 1.506 11.077 3.049 16.633 4.411 10.54 2.582 21.94 4.806 34.845 6.814 15.701 2.439 31.761 4.303 47.284 6.061 8.137.932 16.311 1.865 24.448 2.905 18.39 2.295 36.959 5.451 54.955 8.463 6.489 1.112 13.013 2.188 19.502 3.263 26.635 4.34 51.263 7.818 75.353 10.58 19.286 2.223 40.436 4.626 61.838 4.626 7.277 0 14.59-.287 21.867-.968 6.022-.574 12.905-1.399 18.175-4.447 3.37-1.937 5.198-4.698 5.162-7.782-.072-3.084-1.971-6.169-5.09-8.392z"/><path fill="#fff" d="M759.227 223.886c1.04-.681 2.008-1.506 2.976-2.331.824-1.147 1.685-2.295 2.509-3.478l.036-.036c-9.93-5.738-21.079-17.465-27.567-25.498-5.7-7.065-11.113-14.13-17.279-20.728-5.413-5.81-11.436-11.871-14.985-19.294-.645-1.363-1.039-2.618-1.362-4.16-.036-.215 0-1.148.287-1.65.502-.896 2.151-2.51 3.907-1.936l3.764-12.48c-5.377-1.722-16.167 4.698-17.637 12.982-1.326 7.495 3.155 14.632 7.206 20.19 4.481 6.204 9.714 11.691 14.877 17.214 6.094 6.563 11.256 14.022 17.063 20.907 5.808 6.886 15.272 16.282 23.696 21.948.86-.574 1.721-1.112 2.545-1.65z"/><path fill="#000" d="M757.507 224.998c-8.138-5.379-17.602-14.596-23.839-21.983-2.33-2.762-4.589-5.667-6.776-8.464-3.262-4.196-6.631-8.535-10.324-12.48l-1.47-1.578c-4.588-4.913-9.32-10.005-13.335-15.564-4.194-5.774-8.281-12.587-7.062-19.509.681-3.801 3.728-7.782 7.958-10.292 3.155-1.901 6.417-2.654 8.532-1.972l.538-1.722c-2.581-.825-6.345 0-9.966 2.152-4.732 2.833-8.03 7.172-8.819 11.512-1.362 7.566 2.976 14.811 7.349 20.907 4.087 5.666 8.89 10.795 13.479 15.744l1.47 1.577c3.62 3.909 6.954 8.213 10.217 12.373 2.186 2.833 4.481 5.738 6.811 8.499 6.13 7.28 15.486 16.389 23.624 21.948.502-.395 1.003-.789 1.577-1.112z"/><path fill="#000" d="M704.452 148.146c0-.215.036-.825.179-1.04.287-.538 1.542-1.901 2.832-1.506l.538-1.686c-2.33-.753-4.338 1.255-4.947 2.331-.394.717-.466 1.865-.359 2.259.359 1.722.789 3.013 1.434 4.376 3.263 6.849 8.496 12.444 13.587 17.859l1.541 1.649c4.804 5.165 9.249 10.723 13.551 16.102a415 415 0 0 0 3.692 4.591c7.134 8.822 18.104 20.011 27.783 25.641.143-.215.322-.43.466-.645.215-.287.43-.538.681-.718-9.5-5.415-20.434-16.604-27.532-25.426a424 424 0 0 1-3.692-4.59c-4.338-5.415-8.783-11.01-13.622-16.21l-1.542-1.685c-4.983-5.308-10.109-10.831-13.264-17.429-.609-1.255-.967-2.403-1.29-3.945z"/><path fill="#fff" d="M741.413 168.838c4.337.932 7.026 4.913 3.692 7.961-3.011 2.762-7.636 3.909-11.435 4.913-4.84 1.256-9.787 2.08-14.734 2.798-25.237 3.55-50.116 10.256-75.496 12.587-44.56 4.089-88.76 12.516-132.495 21.876-21.473 4.59-42.91 9.503-64.132 15.134-23.875 6.312-47.535 13.376-71.41 19.652-44.739 11.727-90.086 19.832-135.721 26.932-28.715 4.447-57.68 4.376-86.645 5.595-13.587.574-27.066 1.937-40.58 2.977-5.664.43-11.4.788-17.064.537-3.406-.143-6.56.287-9.536-1.613l-4.373-3.371s-1.111-.825-1.183-.969l-.323-.322c-.466-.431-.932-.861-1.362-1.327-1.577-1.793-3.19-3.551-4.588-5.487a4.7 4.7 0 0 0-.79 1.865c-5.807 26.394 29.217 22.342 44.703 21.015 30.041-2.582 60.154-2.762 90.23-4.662 29.145-1.865 58.11-7.352 86.86-12.444 22.119-3.945 44.129-8.5 65.961-13.915 47.929-11.834 95.069-26.502 143.321-37.117 46.961-10.328 94.137-18.756 141.923-23.812 14.554-1.542 28.894-4.483 43.269-7.244 11.901-2.296 23.839-4.089 35.776-5.954 9.321-1.47 21.473-3.335 28.213-10.83 8.281-9.18 1.29-19.688-7.672-24.601-.538-.287-.824-.61-1.613-.789"/><path fill="#000" d="M100.303 301.456c-9.822 0-19.931-1.471-25.13-7.388-3.369-3.801-4.3-9.109-2.867-15.743.18-.789.466-1.507.932-2.188l.717-1.076.753 1.04c1.147 1.614 2.51 3.12 3.836 4.626l.717.789c.25.287.537.574.824.825l.968.933s.215.179.359.287c.358.251.537.394.645.537l4.302 3.3c2.115 1.362 4.373 1.362 7.026 1.398.68 0 1.326 0 2.007.036 5.736.251 11.508-.107 16.956-.538 4.159-.322 8.281-.645 12.44-1.004 9.213-.753 18.748-1.578 28.176-1.972 6.489-.287 12.977-.466 19.466-.682 22.047-.717 44.846-1.434 67.072-4.877 37.569-5.809 86.896-14.129 135.649-26.896 12.404-3.228 24.951-6.778 37.067-10.185 11.257-3.156 22.872-6.419 34.379-9.468 19.035-5.02 39.433-9.862 64.168-15.133 39.505-8.464 86.143-17.645 132.602-21.912 14.734-1.363 29.539-4.232 43.878-6.993 10.325-2.008 21.008-4.088 31.583-5.559 4.373-.609 9.499-1.398 14.626-2.761l.251-.072c3.764-.968 8.03-2.116 10.826-4.662 1.004-.932 1.398-1.937 1.111-3.012-.43-1.542-2.187-2.941-4.373-3.407l.394-1.757c2.904.609 5.162 2.474 5.736 4.697.466 1.722-.108 3.407-1.649 4.806-3.119 2.833-7.815 4.088-11.579 5.056l-.251.072c-5.198 1.363-10.432 2.188-14.841 2.797-10.54 1.471-21.187 3.551-31.511 5.559-14.375 2.797-29.216 5.666-44.057 7.029-46.352 4.232-92.955 13.448-132.388 21.876-24.735 5.271-45.097 10.077-64.096 15.098-11.471 3.048-23.086 6.311-34.343 9.467-12.152 3.407-24.699 6.922-37.102 10.185-48.826 12.803-98.224 21.123-135.829 26.932-22.334 3.443-45.169 4.196-67.251 4.913-6.489.216-12.977.431-19.466.682-9.392.394-18.892 1.183-28.105 1.972-4.158.359-8.281.682-12.439 1.004-5.485.431-11.364.789-17.171.538-.681 0-1.327-.036-1.972-.036-2.653 0-5.413-.071-8.03-1.721l-4.66-3.658s-.144-.072-.359-.215c-.466-.359-.68-.502-.788-.681l-.682-.646c-.322-.287-.645-.61-.932-.932l-.717-.789c-1.003-1.148-2.079-2.331-3.047-3.551 0 .108-.071.216-.071.323-1.327 6.061-.502 10.83 2.437 14.201 7.672 8.715 27.639 6.958 39.577 5.882l1.72-.144c17.423-1.506 35.132-2.187 52.267-2.869 12.439-.502 25.309-1.004 37.963-1.793 26.779-1.721 53.808-6.562 79.942-11.224l6.811-1.22c22.907-4.088 45.097-8.75 65.925-13.914 19.644-4.842 39.468-10.257 58.647-15.493 27.639-7.531 56.174-15.349 84.674-21.588 52.123-11.44 98.582-19.258 141.994-23.849 13.192-1.398 26.492-3.98 39.325-6.491l3.872-.753c9.966-1.936 20.111-3.514 29.933-5.056l5.879-.933c9.536-1.506 21.187-3.335 27.675-10.543 2.796-3.12 3.908-6.527 3.298-10.113-.824-4.913-4.947-9.934-10.718-13.126-.18-.107-.323-.179-.466-.287-.287-.179-.466-.322-.861-.394l.359-1.757c.753.143 1.147.43 1.505.645.108.072.215.144.359.215 6.273 3.443 10.718 8.966 11.65 14.381.682 4.124-.609 8.141-3.728 11.619-6.918 7.675-18.928 9.575-28.571 11.082l-6.058.932c-9.787 1.542-19.932 3.12-29.862 5.021l-3.871.753c-12.87 2.51-26.205 5.092-39.469 6.527-43.376 4.59-89.764 12.372-141.815 23.812-28.464 6.24-56.999 14.058-84.602 21.589-19.179 5.236-39.039 10.651-58.683 15.528-20.864 5.164-43.09 9.826-66.033 13.915l-6.811 1.219c-26.169 4.662-53.234 9.503-80.121 11.225-12.69.825-25.559 1.327-37.999 1.793-17.099.681-34.808 1.363-52.195 2.869l-1.684.143c-4.517.395-10.181.897-15.953.897z"/><path fill="#fff" d="M744.854 293.422c.466.323 1.039 1.578 1.326 2.798.251 1.04.359 1.183-.036 2.295 0 .036-.609.968-1.47 1.721-.824.682-2.294 1.542-3.584 2.152-6.417 3.012-13.945 3.981-20.9 4.662-19.716 1.972-39.576 2.259-59.293 4.339-27.173 2.869-53.844 9.073-81.017 12.014-27.352 2.941-54.847 3.479-82.307 3.084-28.643-.43-57.249-1.614-85.892-1.614-29.36 0-58.576.682-87.936-.466-29.682-1.148-59.364-3.156-88.975-5.379-23.695-1.793-47.57-4.734-71.338-5.38-14.303-.394-28.606-.502-42.838-2.187-7.17-.825-14.411-2.044-21.222-4.483-2.366-.825-4.696-1.829-6.847-3.514-1.04-.789-2.187-2.295-2.33-3.3v-.215c-1.578.108-3.19-.143-4.732-.502-1.47-.323-3.083-.825-4.41-1.542a4.7 4.7 0 0 1-1.29-1.076c-5.45 26.072 53.485 26.717 68.47 27.184 49.685 1.506 99.192 7.136 148.877 9.862 30.041 1.649 60.153 2.618 90.266 1.972 31.224-.681 62.447.287 93.671 1.004 28.93.682 57.895.825 86.753-1.578a539 539 0 0 0 46.746-6.025c13.192-2.295 26.241-4.805 39.54-6.383 21.509-2.51 43.09-3.012 64.634-4.949 12.117-1.076 37.749-3.299 38.322-20.118.143-4.089-1.685-8.034-3.943-11.297-.323-.466-1.291-1.291-1.685-1.614"/><path fill="#000" d="M513.381 338.214c-11.041 0-21.867-.179-32.407-.43l-12.009-.287c-26.742-.646-54.417-1.327-81.626-.717-26.313.574-55.027-.072-90.337-1.973-20.649-1.111-41.656-2.797-61.91-4.375-28.464-2.259-57.895-4.59-86.932-5.451h-1.828c-14.626-.466-53.414-1.542-64.706-15.851-2.832-3.586-3.764-7.746-2.76-12.408l.358-1.721 1.183 1.291q.538.591 1.076.86c1.075.61 2.509 1.076 4.194 1.471 1.792.394 3.19.573 4.48.466l.969-.072v1.112c.179.753 1.075 1.936 1.971 2.618 2.187 1.649 4.589 2.618 6.596 3.371 7.349 2.618 15.092 3.729 21.043 4.447 12.224 1.434 24.771 1.721 36.888 2.008l5.879.143c15.917.431 32.084 1.901 47.75 3.335 7.743.718 15.773 1.435 23.624 2.045 26.276 1.972 57.393 4.16 88.975 5.379 21.294.825 42.874.681 63.774.574 8.03-.036 16.096-.108 24.126-.108 17.494 0 35.238.43 52.41.861 10.969.287 22.333.574 33.518.717 32.12.466 58.253-.502 82.2-3.084 13.478-1.435 27.101-3.73 40.257-5.953 13.3-2.259 27.065-4.591 40.759-6.025 10.289-1.076 20.721-1.685 30.866-2.295 9.356-.538 18.999-1.112 28.463-2.044 6.668-.646 14.268-1.614 20.613-4.591 1.362-.645 2.688-1.434 3.369-2.008.682-.574 1.183-1.291 1.255-1.434.215-.61.215-.61 0-1.363l-.072-.287c-.286-1.183-.788-2.116-.967-2.259l1.039-1.471c.825.61 1.434 2.367 1.685 3.3l.072.287c.251.968.286 1.362-.144 2.546-.071.251-.824 1.327-1.72 2.08-.968.825-2.581 1.721-3.764 2.259-6.596 3.084-14.411 4.052-21.187 4.734-9.499.932-19.178 1.506-28.535 2.044-10.109.574-20.541 1.183-30.758 2.295-13.622 1.435-27.352 3.766-40.651 6.025-13.192 2.223-26.815 4.519-40.365 5.989-24.019 2.582-50.224 3.55-82.415 3.084-11.185-.179-22.549-.466-33.518-.717-17.172-.431-34.916-.861-52.339-.861h-.215q-11.937 0-23.875.108c-20.899.143-42.551.251-63.845-.574-31.582-1.219-62.735-3.407-89.011-5.379-7.887-.61-15.917-1.327-23.66-2.045-15.63-1.434-31.761-2.904-47.606-3.335l-5.879-.143c-12.153-.287-24.736-.61-37.032-2.044-6.022-.718-13.909-1.865-21.437-4.519-2.187-.789-4.696-1.793-7.098-3.622-.932-.717-1.936-1.937-2.437-3.048h-.108l-.036-.251c-1.219 0-2.545-.18-4.122-.538-1.865-.431-3.442-.968-4.66-1.65-.072-.036-.18-.107-.252-.143-.394 3.514.466 6.598 2.69 9.396 10.754 13.663 48.968 14.703 63.343 15.133h1.864c29.037.933 58.504 3.264 87.003 5.523 20.29 1.614 41.226 3.263 61.874 4.375 35.275 1.937 63.918 2.546 90.194 1.973 27.281-.574 54.92.071 81.698.717l12.009.287c27.496.645 57.035.896 86.645-1.578a519 519 0 0 0 46.675-6.025c2.652-.466 5.305-.932 7.994-1.399 10.324-1.829 20.971-3.729 31.618-4.984 12.583-1.471 25.38-2.26 37.748-3.049 8.819-.538 17.924-1.111 26.886-1.936h.251c11.902-1.076 36.709-3.335 37.246-19.258.108-3.335-1.147-6.957-3.8-10.759-.179-.251-.788-.825-1.505-1.434l1.147-1.363c.645.538 1.506 1.291 1.864 1.793 2.868 4.124 4.23 8.105 4.123 11.835-.61 17.536-26.456 19.867-38.896 20.979h-.251c-8.997.825-18.103 1.398-26.957 1.936-12.368.754-25.13 1.578-37.641 3.013-10.611 1.219-21.222 3.12-31.511 4.949-2.652.466-5.305.932-7.994 1.398-15.522 2.69-31.295 4.734-46.817 6.025-18.355 1.542-36.673 2.044-54.454 2.044z"/><path fill="#fff" d="M120.378 157.111c-1.183-2.725-5.234-3.335-7.6-1.972-.25.143-.394.323-.609.466.215 1.901.502 3.837.43 5.774a11.5 11.5 0 0 1-1.039 4.303c.143 1.112.143 2.331 0 3.73-.108 1.112-1.219 4.877-1.9 6.276-2.868 5.917-7.062 10.758-11.794 15.313-8.962 8.607-19.645 15.887-30.901 21.23-.968.466-1.578 1.291-2.008 2.188.143.107.251.251.394.394.395.323.753.682 1.076 1.112.717.825 1.434 1.542 2.33 2.116 1.541 1.04 3.155 2.08 4.481 3.335 9.607-4.662 18.57-10.723 26.743-17.501 8.998-7.459 18.031-16.783 21.509-28.187 1.935-6.312 1.434-12.552-1.148-18.541z"/><path fill="#000" d="M112.169 163.961c-.287 1.112-.789 2.188-1.434 3.192 0 .681 0 1.362-.036 2.151-.072.969-1.147 4.627-1.793 5.953-2.437 5.021-6.022 9.683-11.615 15.062-8.818 8.428-19.393 15.708-30.65 21.087-1.04.502-1.792 1.399-2.366 2.475.359.251.717.574 1.04.86.108.108.25.144.359.252.394-.897.931-1.614 1.72-2.009 11.436-5.451 22.19-12.838 31.116-21.409 5.772-5.523 9.464-10.329 11.974-15.564.717-1.435 1.864-5.308 1.971-6.563.18-2.116.072-3.909-.322-5.487z"/><path fill="#000" d="M121.203 156.753c-.574-1.327-1.757-2.331-3.298-2.869-1.865-.61-4.015-.431-5.593.466-.107.072-.179.107-.251.179.072.717.144 1.399.215 2.116.251-.251.574-.538.932-.753.682-.395 1.506-.574 2.402-.574.574 0 1.183.108 1.721.287 1.075.359 1.864 1.004 2.223 1.865 2.581 5.989 2.939 12.014 1.111 17.931-2.868 9.288-9.607 18.11-21.222 27.757-8.926 7.388-17.96 13.269-26.886 17.572.501.395.932.861 1.362 1.291 8.89-4.339 17.852-10.184 26.671-17.5 11.901-9.862 18.82-18.971 21.796-28.618 1.935-6.348 1.541-12.803-1.183-19.186z"/><path fill="#fff" d="M702.014 262.187c-28.033.717-56.102-1.327-83.813-5.523-27.603-4.16-54.704-10.113-82.523-12.91-27.208-2.726-54.776-4.842-82.092-5.738-6.524-.215-13.084-.036-19.573-.753-3.907-.431-7.671-1.793-11.579-1.937-5.521-.251-11.292 1.04-16.669 2.08-15.164 2.905-30.113 6.886-45.205 10.149-5.843 1.291-12.152 2.69-17.709 3.264-1.039.107-2.079.215-3.119.215-.394 0-2.043-.18-1.864-.108-5.305-1.04-10.718-2.869-15.63-5.021-13.407-5.845-22.154-17.859-34.951-24.601-9.966-5.272-20.757-7.28-31.654-9.611-13.479-2.905-26.851-6.383-40.437-8.607-30.83-5.092-62.125-.215-92.919-5.092-7.85-1.255-15.629-2.833-23.373-4.519-5.592-1.183-11.363-2.116-16.812-3.873-4.66-1.506-8.855-4.232-9.608-9.467-.358-2.547-.179-7.962 3.227-7.998h.179v-.251c-1.219-3.299-1.72-6.813-2.187-10.292-8.496 1.363-12.583 10.221-11.901 18.576.896 10.723 8.747 17.286 18.533 20.155 12.368 3.622 25.56 5.845 38.25 7.89 14.411 2.331 28.714 2.868 43.305 2.797 14.841-.072 29.754-.395 44.487 1.542 14.268 1.865 28.249 5.487 42.301 8.607 11.221 2.51 22.943 4.016 33.231 9.431 6.345 3.371 11.4 8.105 16.813 12.731 6.56 5.631 13.587 10.078 21.617 13.341 6.99 2.833 14.626 5.63 22.261 4.913 15.021-1.398 29.826-5.702 44.488-9.109 7.707-1.793 15.379-3.586 23.158-5.02 2.903-.538 5.484-1.005 8.245-1.256 1.039-.107 2.079-.143 3.119-.179h1.398c13.443 2.833 27.029 2.331 40.651 3.228 14.627.932 29.253 1.757 43.879 2.797 29.323 2.08 58.002 5.953 86.896 11.332 28.463 5.308 57.357 8.786 86.322 9.468 5.413.143 10.826.107 16.239 0 .645-.466 5.377.538 6.023.072.466-.395 1.756-2.045 2.222-2.475 2.115-1.936 2.474-1.936 4.804-3.586-.825-1.291-5.915-4.877-7.958-4.842z"/><path fill="#000" d="M702.015 261.29c-26.851.682-54.991-1.183-83.67-5.487-10.037-1.506-20.182-3.299-29.969-5.02-17.135-3.013-34.844-6.133-52.589-7.89-30.614-3.048-57.465-4.913-82.164-5.738a168 168 0 0 0-6.023-.107c-4.445-.072-9.033-.144-13.479-.61-1.684-.179-3.369-.538-5.018-.897-2.151-.466-4.338-.932-6.632-1.04-5.019-.251-10.109.789-15.056 1.758l-1.829.358c-9.284 1.793-18.641 4.017-27.71 6.133-5.736 1.362-11.651 2.761-17.494 4.016l-1.112.251c-5.556 1.219-11.328 2.475-16.49 2.977a44 44 0 0 1-3.047.215c-.215 0-.538 0-.896-.072-.358 0-.681-.072-.968-.036-4.768-.932-10.037-2.653-15.271-4.949-7.098-3.12-13.013-8.069-18.749-12.874-4.983-4.196-10.145-8.535-16.131-11.691-9.178-4.877-19.287-7.029-29.037-9.109l-2.832-.61c-4.231-.896-8.425-1.865-12.655-2.833-9.069-2.08-18.462-4.232-27.854-5.774-15.63-2.582-31.618-2.618-47.104-2.618-15.057 0-30.651-.035-45.814-2.438-8.138-1.291-16.311-3.013-23.337-4.483-1.434-.287-2.868-.61-4.302-.896-4.123-.825-8.389-1.686-12.404-2.977-5.449-1.757-8.388-4.626-8.998-8.75-.25-1.758-.215-4.913 1.004-6.312q.538-.645 1.398-.645c.108 0 .18 0 .287-.036-.036-.359-.108-.753-.143-1.112-.072-.215-.18-.395-.251-.61a3.52 3.52 0 0 0-2.617 1.255c-1.685 2.009-1.685 5.81-1.398 7.747.68 4.805 4.122 8.248 10.216 10.184 4.123 1.327 8.425 2.188 12.619 3.013 1.434.287 2.868.574 4.266.861 7.026 1.506 15.235 3.227 23.409 4.518 15.307 2.439 30.973 2.439 46.1 2.475 15.379 0 31.296.035 46.818 2.618 9.321 1.542 18.677 3.693 27.747 5.773 4.23.969 8.424 1.937 12.654 2.833l2.832.61c10.073 2.152 19.609 4.196 28.607 8.93 5.807 3.084 10.898 7.351 15.809 11.476 5.843 4.877 11.866 9.969 19.179 13.161 5.592 2.438 11.22 4.232 16.275 5.164h.107v-.108h.359c.43 0 .932.108 1.075.072 1.076 0 2.151-.107 3.227-.215 5.269-.538 11.077-1.793 16.705-3.012l1.111-.251c5.843-1.292 11.794-2.69 17.53-4.053 9.034-2.152 18.39-4.339 27.639-6.132l1.828-.359c4.84-.932 9.858-1.936 14.626-1.721 2.115.107 4.158.538 6.309 1.004 1.685.358 3.442.753 5.234.932 4.553.502 9.177.574 13.658.61 2.008 0 3.979.072 5.987.107 24.628.825 51.478 2.69 82.056 5.738 17.638 1.758 35.347 4.878 52.446 7.854 9.823 1.722 19.968 3.515 30.041 5.021 28.786 4.339 57.035 6.204 83.956 5.523h.144c1.9 0 5.771 3.335 6.273 4.195.323-.286.359-.286.753-.537.144-.108.61-.395.753-.431-1.076-1.721-5.808-5.021-7.958-4.985z"/><path fill="#000" d="M680.721 272.085c-27.316-.646-55.493-3.73-86.179-9.432-30.184-5.63-58.648-9.324-87.004-11.332-9.535-.682-19.071-1.256-28.642-1.865-5.091-.323-10.181-.61-15.272-.933-3.979-.251-8.03-.394-11.973-.538-9.249-.322-18.82-.645-28.141-2.582a2.1 2.1 0 0 0-.609-.179c-.251-.036-.466 0-.645 0h-.789a31 31 0 0 0-3.155.179c-2.724.251-5.269.682-8.316 1.256-7.744 1.434-15.558 3.263-23.194 5.02-3.262.753-6.525 1.578-9.823 2.367-11.292 2.761-22.942 5.63-34.557 6.742-7.349.717-14.841-2.008-21.832-4.841-7.671-3.12-14.662-7.424-21.365-13.197l-2.187-1.901c-4.517-3.945-9.213-7.997-14.769-10.938-8.281-4.375-17.53-6.24-26.456-8.069-2.33-.466-4.661-.932-6.991-1.47-3.011-.682-6.058-1.363-9.069-2.08-10.826-2.511-22.047-5.093-33.303-6.527-13.407-1.757-27.101-1.65-40.329-1.578h-4.302c-17.458.072-30.722-.753-43.126-2.761-13.765-2.224-26.169-4.376-38.142-7.89-6.238-1.829-16.849-6.778-17.888-19.366-.43-5.307 1.075-10.471 4.087-13.806 1.864-2.08 4.301-3.336 7.061-3.766-.071-.574-.179-1.183-.25-1.757-3.155.502-5.951 1.936-8.102 4.339-3.334 3.694-5.055 9.36-4.553 15.17.825 9.969 7.815 17.608 19.179 20.907 12.08 3.551 24.52 5.702 38.358 7.926 12.511 2.008 25.918 2.833 43.447 2.797h4.302c13.192-.108 26.815-.215 40.079 1.542 11.148 1.435 22.333 4.017 33.123 6.527 3.011.681 6.059 1.399 9.106 2.08 2.33.502 4.66 1.004 7.026 1.47 8.819 1.793 17.96 3.622 25.99 7.89 5.377 2.833 9.786 6.67 14.447 10.723l2.222 1.9c6.847 5.882 14.017 10.293 21.868 13.484 7.205 2.941 14.877 5.702 22.691 4.985 11.723-1.111 23.445-3.98 34.809-6.778 3.262-.789 6.524-1.613 9.894-2.402 7.528-1.758 15.307-3.551 23.015-4.985 3.011-.574 5.52-1.004 8.173-1.22 1.004-.107 2.043-.143 3.047-.179h1.183c9.572 2.044 19.394 2.367 28.894 2.69 3.907.143 7.922.287 11.901.538l15.272.968c9.535.574 19.071 1.183 28.606 1.865 28.285 2.008 56.676 5.702 86.789 11.332 30.758 5.738 59.042 8.822 86.466 9.468 3.262.071 6.596.107 9.965.107h10.325c.788-.609 1.613-1.219 2.402-1.829-5.915.108-17.028.036-22.657-.071z"/><path fill="#fff" d="M741.951 216.893v.431c-.108 1.291-1.004 2.402-2.402 2.402h-.179c-.108.072-.215.216-.359.287-.502.323-1.075.574-1.649.825-.86.359-1.756.538-2.617.681a2.6 2.6 0 0 1-.753 0 6.1 6.1 0 0 1-2.079.395c.108.143.18.287.323.43-3.047 1.148-6.345 1.758-9.5 2.439-10.181 2.187-19.645 7.244-28.965 11.763-23.767 11.475-46.352 24.386-66.857 41.169-9.894 8.105-19.322 16.927-27.711 26.574-7.922 9.145-13.658 19.939-21.652 29.012-7.815 8.822-18.462 14.309-29.001 19.222-10.181 4.806-20.935 7.711-32.012 9.647-23.158 4.017-47.607 4.483-70.693-.323-23.194-4.841-44.559-14.954-64.455-27.649-10.898-6.957-21.15-14.74-31.726-22.163-11.579-8.141-23.373-15.959-35.131-23.812-23.66-15.78-46.531-32.42-69.043-49.813-10.827-8.355-21.366-16.926-33.626-23.131-5.843-2.976-11.83-5.773-17.135-9.718-4.912-3.658-9.357-7.961-14.16-11.799-6.202-4.985-12.762-8.033-19.824-11.547-4.087-2.044-12.977-5.882-13.802-10.508-.358-2.116 1.685-4.375 3.513-6.132.251-2.439.466-4.913.179-7.388-.071-.502.861-2.654.825-3.191-1.9-1.292-5.521.107-7.672 2.079-6.165 5.667-10.252 13.807-5.341 21.661 4.087 6.527 11.794 10.293 18.498 13.52 3.262 1.578 6.596 3.012 9.75 4.77 4.804 2.654 8.891 6.419 13.013 9.969 4.947 4.268 10.002 8.535 15.702 11.799 6.022 3.443 12.439 6.204 18.462 9.683 12.69 7.351 24.018 17.5 35.597 26.466 12.188 9.396 24.448 18.612 37.103 27.327 24.663 17.034 49.721 33.495 74.169 50.888 20.685 14.739 42.911 27.649 67.323 35.144 24.234 7.46 49.758 8.93 74.887 6.384 24.915-2.51 48.897-9.252 69.904-23.31 10.79-7.244 17.96-17.465 25.237-27.973 7.743-11.189 16.92-20.979 27.03-30.088 20.792-18.792 44.487-32.993 69.509-45.329 10.253-5.021 20.505-10.616 31.726-13.054 6.022-1.291 16.024-2.762 18.103-9.755.932-3.155-.322-6.096-2.437-8.355z"/><path fill="#000" d="M740.84 219.296c-2.08.682-14.411 3.802-16.598 4.232l-1.793.394c-8.962 1.937-17.422 6.097-25.595 10.078l-3.549 1.721c-27.675 13.376-48.969 26.502-67.036 41.277-10.862 8.858-19.932 17.608-27.818 26.681-3.908 4.519-7.349 9.504-10.683 14.345-3.406 4.949-6.919 10.077-10.97 14.668-7.707 8.714-18.39 14.165-28.714 19.007-9.213 4.339-19.609 7.459-31.797 9.575-24.556 4.267-48.861 4.16-70.334-.323-21.007-4.375-42.014-13.377-64.169-27.506-7.456-4.77-14.805-10.042-21.867-15.134-3.262-2.331-6.524-4.698-9.822-6.993-10.432-7.316-21.187-14.488-31.583-21.445l-3.549-2.367c-22.405-14.955-44.953-31.236-68.971-49.777l-3.334-2.582c-9.5-7.387-19.358-15.026-30.4-20.656l-2.509-1.256c-4.911-2.474-10.002-5.02-14.483-8.355-2.796-2.08-5.484-4.447-8.101-6.707-1.936-1.685-3.979-3.442-6.023-5.092-5.807-4.626-11.901-7.639-18.354-10.83l-2.975-1.471c-3.944-1.9-11.328-5.486-11.974-9.216-.251-1.399 1.112-3.156 2.51-4.555.107-.932.179-1.829.286-2.761-2.473 2.295-5.018 4.913-4.516 7.639.824 4.626 8.137 8.176 12.977 10.507l2.939 1.435c6.345 3.156 12.368 6.132 18.032 10.651 2.043 1.613 4.015 3.371 5.951 5.056 2.616 2.295 5.341 4.662 8.209 6.778 4.624 3.443 9.786 6.025 14.769 8.535l2.51 1.255c10.897 5.559 20.684 13.126 30.112 20.478l3.334 2.582c24.054 18.576 46.638 34.893 69.079 49.848l3.549 2.367c10.396 6.921 21.151 14.129 31.547 21.409 3.298 2.295 6.56 4.662 9.786 6.993 7.098 5.093 14.447 10.4 21.939 15.17 22.334 14.237 43.52 23.346 64.778 27.757 21.688 4.519 46.244 4.626 71.015.323 12.368-2.152 22.907-5.344 32.264-9.719 10.467-4.913 21.329-10.471 29.287-19.437 4.123-4.662 7.672-9.826 11.113-14.811 3.298-4.769 6.704-9.718 10.54-14.165 7.815-9.002 16.848-17.644 27.603-26.466 17.96-14.704 39.146-27.722 66.677-41.062l3.585-1.758c8.066-3.944 16.419-8.033 25.202-9.933l1.792-.359c2.438-.502 11.83-2.977 14.196-3.837"/><path fill="#000" d="M150.097 153.812c-2.294-.215-5.234 1.112-6.955 2.654-7.85 7.208-9.93 15.707-5.484 22.808 4.266 6.778 12.367 10.723 18.856 13.879 1.003.466 2.007.968 3.011 1.434 2.223 1.04 4.517 2.116 6.704 3.299 4.122 2.296 7.814 5.487 11.363 8.607l1.506 1.291c5.377 4.627 10.288 8.715 15.845 11.906 2.939 1.686 6.022 3.228 8.998 4.734 3.119 1.578 6.381 3.192 9.464 4.985 9.213 5.344 17.852 12.301 26.205 19.007 3.119 2.51 6.201 4.985 9.32 7.387 14.662 11.297 26.134 19.76 37.139 27.363 9.5 6.563 19.215 13.162 28.607 19.509 14.984 10.149 30.507 20.692 45.563 31.379 24.484 17.429 45.957 28.618 67.574 35.288 16.382 5.057 34.091 7.567 52.84 7.567 7.313 0 14.769-.394 22.369-1.147 27.962-2.833 50.976-10.508 70.298-23.454 11.113-7.459 18.426-18.003 25.488-28.223 7.027-10.149 15.809-19.94 26.886-29.945 18.391-16.604 40.401-30.985 69.295-45.186 1.29-.646 2.617-1.291 3.907-1.937 8.819-4.411 17.924-8.929 27.604-11.045l1.648-.359c6.346-1.327 15.093-3.12 17.136-10.005 1.004-3.335-.143-6.814-3.119-9.755-.036.251-.072.538-.107.789 0 .144-.072.323-.108.466v.287c0 .215-.108.431-.143.646 1.398 1.685 2.688 4.124 1.792 7.029-1.757 5.881-9.858 7.567-15.773 8.786l-1.649.359c-9.894 2.151-19.107 6.742-28.033 11.189-1.291.645-2.617 1.291-3.908 1.936-29.037 14.273-51.191 28.726-69.724 45.473-11.185 10.113-20.075 20.011-27.138 30.232-6.954 10.077-14.195 20.477-25.022 27.757-19.107 12.803-41.834 20.369-69.509 23.167-26.886 2.725-51.98.609-74.529-6.348-21.437-6.598-42.731-17.716-67.071-35.037-15.057-10.687-30.579-21.23-45.563-31.379-9.393-6.348-19.108-12.946-28.607-19.509-11.006-7.603-22.441-16.03-37.067-27.291-3.083-2.403-6.166-4.877-9.285-7.352-8.388-6.742-17.1-13.735-26.42-19.15-3.119-1.793-6.381-3.443-9.536-5.021-2.939-1.47-6.022-3.012-8.926-4.662-5.413-3.084-10.252-7.136-15.558-11.691l-1.47-1.291c-3.62-3.156-7.384-6.419-11.686-8.822-2.223-1.219-4.553-2.331-6.811-3.371a222 222 0 0 1-2.976-1.399c-6.309-3.048-14.124-6.849-18.103-13.197-5.664-9.073 1.721-17.357 5.162-20.513 1.255-1.147 1.649-1.542 3.226-1.972.861-.215 1.757-.395 2.546-.431"/><path fill="#fff" d="M669.392 164.678v-3.622c-.752 0-1.541.251-2.294.717-4.553 2.869-10.109 3.156-15.486 3.407-1.649.072-3.298.179-4.876.323-7.635.789-15.092 3.227-22.261 5.63l-1.327.431c-13.335 4.411-27.173 8.176-40.544 11.834a1846 1846 0 0 0-13.551 3.73c-21.257 5.917-37.568 11.045-52.804 16.604l-3.441 1.255c-16.096 5.881-32.766 11.978-49.614 16.64-19.537 5.415-37.175 10.185-55.099 13.556-13.515 2.546-24.52 3.729-34.701 3.729-7.026 0-13.622-.573-20.111-1.685l-1.039-.18c-16.311-2.868-33.16-5.809-49.256-10.148-16.06-4.304-30.291-11.584-44.774-22.916-3.441-2.69-6.847-5.38-10.253-8.069-9.643-7.675-19.644-15.564-29.933-22.808l-.932-.646c-10.647-7.495-23.946-16.855-37.318-16.855-.573 0-1.111 0-1.685.036-.537 0-.968.179-1.398.358 0 2.834.18 5.667.43 8.5.287.036.538.143.861.143.466 0 .932-.036 1.398-.036 11.292 0 22.548 8.033 31.582 14.489l2.653 1.9c11.041 7.746 21.688 16.246 32.012 24.458l4.23 3.371c15.881 12.588 29.288 20.226 43.592 24.745 12.188 3.873 25.058 6.276 37.497 8.571 3.943.753 7.887 1.47 11.794 2.259 8.138 1.614 17.601 3.371 27.065 3.837 1.255.072 2.51.072 3.764.072 7.779 0 15.343-1.004 23.732-2.187 19.286-2.762 38.035-7.496 55.457-12.229 18.713-5.057 36.099-10.544 53.163-16.784l6.739-2.474c15.343-5.631 31.224-11.44 47.32-15.744 9.356-2.51 19.25-5.307 31.152-8.786a510 510 0 0 1 12.726-3.478c5.843-1.542 11.902-3.156 17.781-5.057 1.792-.574 3.549-1.183 5.341-1.793 6.919-2.367 14.088-4.806 21.473-5.379 1.183-.108 2.402-.18 3.657-.251 5.771-.395 11.686-.825 16.848-3.156.144-2.08.323-4.16.502-6.24z"/><path fill="#000" d="M668.963 169.878c-5.126 2.438-11.113 2.869-16.956 3.263-1.219.072-2.438.18-3.657.251-7.492.61-14.733 3.084-21.688 5.451-1.792.61-3.549 1.22-5.341 1.793-5.843 1.865-11.902 3.479-17.745 5.021-4.194 1.112-8.496 2.259-12.726 3.479-11.902 3.478-21.76 6.276-31.116 8.786-16.132 4.303-32.013 10.149-47.391 15.779l-6.74 2.475c-17.028 6.204-34.378 11.691-53.091 16.747-17.386 4.698-36.135 9.468-55.35 12.193-8.352 1.184-15.916 2.188-23.588 2.188-1.254 0-2.509 0-3.728-.072-9.392-.43-18.82-2.187-26.922-3.801-3.943-.789-7.886-1.506-11.83-2.26-12.403-2.331-25.237-4.697-37.354-8.571-14.16-4.482-27.531-12.049-43.304-24.601l-4.087-3.263c-10.36-8.249-21.079-16.784-32.191-24.602-.861-.609-1.757-1.219-2.653-1.864-9.142-6.527-20.541-14.668-32.12-14.668-.466 0-.968 0-1.434.036h-.287c-.251 0-.394-.072-.609-.108.036.61.107 1.22.143 1.865.143 0 .287.072.466.072h.394c.431 0 .897-.036 1.327-.036 12.117 0 24.377 9.647 33.733 16.21 12.475 8.786 24.233 18.289 36.171 27.793 13.479 10.722 27.316 19.688 43.878 24.888 16.06 5.092 32.873 7.567 49.399 10.866 8.962 1.793 18.031 3.407 27.208 3.837 1.255.072 2.546.072 3.836.072 7.994 0 15.988-1.076 23.839-2.224 18.785-2.689 37.246-7.28 55.565-12.264 18.031-4.878 35.705-10.4 53.234-16.784 17.817-6.491 35.598-13.269 53.952-18.182 10.432-2.797 20.792-5.738 31.152-8.786 10.145-2.976 20.469-5.307 30.507-8.535 8.675-2.797 17.458-6.383 26.635-7.137 6.775-.538 14.017-.573 20.326-3.263.036-.681.071-1.363.143-2.044"/><path fill="#000" d="M179.779 156.43c13.085 0 26.241 9.252 36.816 16.712l.932.645c10.253 7.244 20.254 15.134 29.897 22.808l10.217 8.069c14.59 11.404 28.93 18.756 45.097 23.095 16.132 4.34 32.98 7.28 49.256 10.113l1.147.216c6.56 1.147 13.192 1.721 20.29 1.721 10.216 0 21.294-1.184 34.844-3.766 17.96-3.406 35.633-8.176 55.17-13.591 16.885-4.698 33.554-10.759 49.686-16.676l3.441-1.255c15.2-5.523 31.439-10.651 52.733-16.604 4.481-1.256 8.998-2.475 13.515-3.694 13.407-3.658 27.28-7.424 40.616-11.835l1.29-.43c7.17-2.367 14.555-4.805 22.119-5.594a94 94 0 0 1 4.839-.323c5.485-.287 11.149-.538 15.917-3.55.609-.395 1.219-.574 1.792-.574v-1.793c-.86 0-1.828.251-2.76.86-5.772 3.622-13.443 2.941-19.968 3.622-8.209.825-15.988 3.515-23.803 6.097-17.745 5.845-36.027 10.507-54.059 15.528-17.888 4.985-35.418 10.257-52.876 16.64-17.53 6.384-34.988 12.875-52.983 17.859-18.211 5.057-36.458 10.042-55.027 13.556-11.615 2.188-23.015 3.73-34.522 3.73-6.596 0-13.264-.502-19.968-1.686-16.741-2.94-33.804-5.881-50.259-10.292-16.705-4.483-30.865-12.121-44.451-22.772-13.336-10.436-26.349-21.159-40.222-30.913-10.898-7.675-24.699-17.68-38.752-17.68-.573 0-1.147 0-1.721.035-.501 0-.932.144-1.362.287v1.865a3.5 3.5 0 0 1 1.434-.394c.538 0 1.076-.036 1.613-.036z"/></g><defs><clipPath id="a"><path fill="#fff" d="M0 0h832v477H0z"/></clipPath></defs></svg>
