<svg xmlns="http://www.w3.org/2000/svg" width="599" height="599" fill="none"><g clip-path="url(#a)"><path stroke="#000" stroke-miterlimit="10" stroke-width=".75" d="m291.888 122.592-22.23-22.229c-5.435-5.435-14.259-5.431-19.699.008l-144.46 144.461c-5.44 5.439-5.444 14.264-.009 19.698l230.791 230.791c5.435 5.435 14.259 5.431 19.699-.008l144.446-144.446c5.439-5.439 5.443-14.264.008-19.699l-24.19-24.189"/><path fill="#000" d="M228.566 134.385c4.16-.329 8.261-1.133 12.406-1.595 5.318-.596 10.86-1.178 16.178-.349.995.163 1.397-1.367.402-1.53-5.363-.815-10.919-.337-16.283.275-4.234.462-8.453 1.296-12.702 1.624-1.01.09-1.011 1.665-.001 1.575"/><path fill="#000" d="M161.494 200.834c20.957-23.481 46.057-42.849 67.013-66.33.669-.758-.444-1.872-1.113-1.114-20.957 23.481-46.057 42.849-67.014 66.33-.668.758.445 1.872 1.114 1.114M256.839 132.189a7328 7328 0 0 1 83.649 79.963 7427 7427 0 0 1 83.187 82.058 7436 7436 0 0 1 45.722 46.227c.712.712 1.827-.402 1.114-1.115a7076 7076 0 0 0-81.657-81.984 7469 7469 0 0 0-83.752-81.493 6694 6694 0 0 0-47.163-44.755c-.728-.698-1.842.416-1.115 1.114z"/><path fill="#000" d="M469.025 340.006c.353 9.002-.186 18.005-.903 27.008-.089 1.01 1.5.995 1.575-.001.702-8.988 1.241-17.991.903-27.008-.029-1.01-1.619-1.024-1.575.001"/><path fill="#000" d="M467.869 366.94a2510 2510 0 0 1-70.758 66.956c-.743.684.371 1.797 1.114 1.114a2511 2511 0 0 0 70.757-66.956c.714-.713-.4-1.827-1.113-1.114M159.756 200.642c1.44 1.44 3.669-.789 2.229-2.23s-3.67.789-2.229 2.23"/><path fill="#000" d="m160.692 200.389 94.474 90.283c15.875 15.161 31.734 30.337 47.609 45.498 15.607 14.924 31.407 29.713 45.989 45.662 8.003 8.777 15.947 17.612 24.099 26.27 8.153 8.657 16.23 17.33 23.848 26.463.653.772 1.768-.343 1.114-1.115-13.571-16.276-28.703-31.111-42.764-46.956s-29.625-30.872-45.113-45.677l-94.845-90.654c-17.746-16.973-35.521-33.946-53.267-50.918-.727-.698-1.842.417-1.114 1.114z"/><path stroke="#000" stroke-miterlimit="10" stroke-width=".5" d="m274.623 161.299-7.781-7.781a4.35 4.35 0 0 0-6.151.003l-7.787 7.788a4.35 4.35 0 0 0-.003 6.15l7.781 7.781a4.35 4.35 0 0 0 6.151-.003l7.787-7.787a4.35 4.35 0 0 0 .003-6.151ZM244.803 171.786l-7.781-7.781a4.35 4.35 0 0 0-6.151.002l-7.788 7.788a4.35 4.35 0 0 0-.002 6.15l7.781 7.781a4.35 4.35 0 0 0 6.15-.002l7.788-7.788a4.35 4.35 0 0 0 .003-6.15ZM293.838 180.514l-7.781-7.781a4.35 4.35 0 0 0-6.151.003l-7.787 7.787a4.35 4.35 0 0 0-.003 6.151l7.781 7.781a4.35 4.35 0 0 0 6.15-.003l7.788-7.788a4.35 4.35 0 0 0 .003-6.15ZM312.074 198.75l-7.781-7.782a4.35 4.35 0 0 0-6.15.003l-7.788 7.788a4.35 4.35 0 0 0-.003 6.15l7.781 7.781a4.35 4.35 0 0 0 6.151-.002l7.787-7.788a4.347 4.347 0 0 0 .003-6.15ZM331.23 217.906l-7.781-7.781a4.35 4.35 0 0 0-6.15.002l-7.788 7.788a4.35 4.35 0 0 0-.002 6.15l7.781 7.781a4.35 4.35 0 0 0 6.15-.002l7.788-7.788a4.35 4.35 0 0 0 .002-6.15ZM349.539 236.214l-7.781-7.781a4.35 4.35 0 0 0-6.15.003l-7.788 7.788a4.35 4.35 0 0 0-.003 6.15l7.781 7.781a4.35 4.35 0 0 0 6.151-.003l7.787-7.787a4.35 4.35 0 0 0 .003-6.151ZM368.754 255.43l-7.781-7.781a4.35 4.35 0 0 0-6.151.003l-7.787 7.787a4.35 4.35 0 0 0-.003 6.151l7.781 7.781a4.35 4.35 0 0 0 6.15-.003l7.788-7.788a4.35 4.35 0 0 0 .003-6.15ZM386.99 273.666l-7.781-7.782a4.35 4.35 0 0 0-6.15.003l-7.788 7.788a4.35 4.35 0 0 0-.003 6.15l7.781 7.781a4.35 4.35 0 0 0 6.151-.002l7.788-7.788a4.35 4.35 0 0 0 .002-6.15ZM406.144 292.821l-7.781-7.781a4.35 4.35 0 0 0-6.15.002l-7.788 7.788a4.35 4.35 0 0 0-.002 6.15l7.781 7.782a4.35 4.35 0 0 0 6.15-.003l7.788-7.788a4.35 4.35 0 0 0 .002-6.15ZM425.346 312.021l-7.782-7.781a4.35 4.35 0 0 0-6.15.002l-7.788 7.788a4.35 4.35 0 0 0-.002 6.151l7.781 7.781a4.35 4.35 0 0 0 6.15-.003l7.788-7.788a4.35 4.35 0 0 0 .003-6.15ZM443.596 330.271l-7.782-7.781a4.35 4.35 0 0 0-6.15.002l-7.788 7.788a4.35 4.35 0 0 0-.002 6.151l7.781 7.781a4.35 4.35 0 0 0 6.15-.003l7.788-7.788a4.35 4.35 0 0 0 .003-6.15ZM338.549 265.53l-7.781-7.781a4.35 4.35 0 0 0-6.151.002l-7.788 7.788a4.35 4.35 0 0 0-.002 6.15l7.781 7.782a4.35 4.35 0 0 0 6.15-.003l7.788-7.788a4.35 4.35 0 0 0 .003-6.15ZM357.748 284.73l-7.781-7.781a4.35 4.35 0 0 0-6.151.002l-7.787 7.788a4.35 4.35 0 0 0-.003 6.151l7.781 7.781a4.35 4.35 0 0 0 6.151-.003l7.787-7.788a4.35 4.35 0 0 0 .003-6.15ZM375.998 302.98l-7.781-7.781a4.35 4.35 0 0 0-6.151.002l-7.787 7.788a4.35 4.35 0 0 0-.003 6.151l7.781 7.781a4.35 4.35 0 0 0 6.151-.003l7.787-7.788a4.35 4.35 0 0 0 .003-6.15ZM395.139 322.122l-7.782-7.782a4.35 4.35 0 0 0-6.15.003l-7.788 7.788a4.35 4.35 0 0 0-.002 6.15l7.781 7.781a4.35 4.35 0 0 0 6.15-.002l7.788-7.788a4.35 4.35 0 0 0 .003-6.15Z"/><path stroke="#000" stroke-miterlimit="10" stroke-width=".5" d="m385.992 312.974-7.781-7.781a4.35 4.35 0 0 0-6.15.003l-7.788 7.787a4.35 4.35 0 0 0-.003 6.151l7.781 7.781a4.35 4.35 0 0 0 6.151-.003l7.787-7.788a4.347 4.347 0 0 0 .003-6.15Z"/><path stroke="#000" stroke-miterlimit="10" stroke-width=".5" d="m397.887 324.869-7.782-7.781a4.35 4.35 0 0 0-6.15.002l-7.788 7.788a4.35 4.35 0 0 0-.002 6.15l7.781 7.781a4.35 4.35 0 0 0 6.15-.002l7.788-7.788a4.35 4.35 0 0 0 .003-6.15ZM416.137 343.119l-7.782-7.781a4.35 4.35 0 0 0-6.15.002l-7.788 7.788a4.35 4.35 0 0 0-.002 6.15l7.781 7.781a4.35 4.35 0 0 0 6.15-.002l7.788-7.788a4.35 4.35 0 0 0 .003-6.15ZM435.277 362.259l-7.781-7.781a4.35 4.35 0 0 0-6.15.003l-7.788 7.788a4.35 4.35 0 0 0-.003 6.15l7.782 7.781a4.35 4.35 0 0 0 6.15-.003l7.788-7.787a4.35 4.35 0 0 0 .002-6.151ZM263.633 190.615l-7.781-7.781a4.35 4.35 0 0 0-6.151.002l-7.788 7.788a4.35 4.35 0 0 0-.002 6.15l7.781 7.781a4.35 4.35 0 0 0 6.15-.002l7.788-7.788a4.35 4.35 0 0 0 .003-6.15ZM282.832 209.815l-7.781-7.781a4.35 4.35 0 0 0-6.151.002l-7.787 7.788a4.35 4.35 0 0 0-.003 6.151l7.781 7.781a4.35 4.35 0 0 0 6.151-.003l7.787-7.788a4.35 4.35 0 0 0 .003-6.15ZM301.082 228.065l-7.781-7.781a4.35 4.35 0 0 0-6.151.002l-7.787 7.788a4.35 4.35 0 0 0-.003 6.151l7.781 7.781a4.35 4.35 0 0 0 6.151-.003l7.787-7.788a4.35 4.35 0 0 0 .003-6.15ZM320.225 247.206l-7.782-7.782a4.35 4.35 0 0 0-6.15.003l-7.788 7.788a4.35 4.35 0 0 0-.002 6.15l7.781 7.781a4.35 4.35 0 0 0 6.15-.002l7.788-7.788a4.35 4.35 0 0 0 .003-6.15ZM330.336 293.849l-7.781-7.781a4.35 4.35 0 0 0-6.151.003l-7.787 7.787a4.35 4.35 0 0 0-.003 6.151l7.781 7.781a4.35 4.35 0 0 0 6.15-.003l7.788-7.788a4.35 4.35 0 0 0 .003-6.15ZM349.535 313.049l-7.781-7.781a4.35 4.35 0 0 0-6.15.003l-7.788 7.788a4.35 4.35 0 0 0-.003 6.15l7.781 7.781a4.35 4.35 0 0 0 6.151-.003l7.787-7.787a4.35 4.35 0 0 0 .003-6.151ZM367.785 331.299l-7.781-7.781a4.35 4.35 0 0 0-6.15.003l-7.788 7.788a4.35 4.35 0 0 0-.003 6.15l7.781 7.781a4.35 4.35 0 0 0 6.151-.003l7.787-7.787a4.35 4.35 0 0 0 .003-6.151ZM249.896 247.028l-7.781-7.781a4.35 4.35 0 0 0-6.15.002l-7.788 7.788a4.35 4.35 0 0 0-.002 6.15l7.781 7.782a4.35 4.35 0 0 0 6.15-.003l7.788-7.788a4.35 4.35 0 0 0 .002-6.15ZM273.654 237.168l-7.781-7.781a4.35 4.35 0 0 0-6.15.003l-7.788 7.788a4.35 4.35 0 0 0-.003 6.15l7.781 7.781a4.35 4.35 0 0 0 6.151-.002l7.788-7.788a4.35 4.35 0 0 0 .002-6.151ZM312.025 275.54l-7.781-7.782a4.35 4.35 0 0 0-6.15.003l-7.788 7.788a4.35 4.35 0 0 0-.003 6.15l7.782 7.781a4.35 4.35 0 0 0 6.15-.002l7.788-7.788a4.35 4.35 0 0 0 .002-6.15ZM405.932 373.251l-7.782-7.782a4.35 4.35 0 0 0-6.15.003l-7.788 7.788a4.35 4.35 0 0 0-.002 6.15l7.781 7.781a4.35 4.35 0 0 0 6.15-.002l7.788-7.788a4.35 4.35 0 0 0 .003-6.15ZM425.148 392.465l-7.781-7.781a4.35 4.35 0 0 0-6.15.003l-7.788 7.788a4.35 4.35 0 0 0-.003 6.15l7.782 7.781a4.347 4.347 0 0 0 6.15-.003l7.788-7.787a4.35 4.35 0 0 0 .002-6.151ZM387.623 354.941l-7.781-7.781a4.35 4.35 0 0 0-6.151.002l-7.787 7.788a4.35 4.35 0 0 0-.003 6.15l7.781 7.782a4.35 4.35 0 0 0 6.151-.003l7.787-7.788a4.35 4.35 0 0 0 .003-6.15ZM292.871 256.383l-7.781-7.781a4.35 4.35 0 0 0-6.15.003l-7.788 7.788a4.35 4.35 0 0 0-.003 6.15l7.781 7.781a4.35 4.35 0 0 0 6.151-.003l7.787-7.787a4.35 4.35 0 0 0 .003-6.151ZM234.57 198.084l-7.781-7.781a4.35 4.35 0 0 0-6.15.003l-7.788 7.788a4.35 4.35 0 0 0-.003 6.15l7.781 7.781a4.35 4.35 0 0 0 6.151-.002l7.788-7.788a4.35 4.35 0 0 0 .002-6.151ZM253.771 217.285l-7.781-7.781a4.35 4.35 0 0 0-6.15.002l-7.788 7.788a4.35 4.35 0 0 0-.002 6.15l7.781 7.781a4.35 4.35 0 0 0 6.15-.002l7.788-7.788a4.35 4.35 0 0 0 .002-6.15ZM339.453 336.585l-79.355-79.356a4.35 4.35 0 0 0-6.151.003l-7.787 7.788a4.347 4.347 0 0 0-.003 6.15l79.356 79.356a4.35 4.35 0 0 0 6.15-.003l7.788-7.788a4.35 4.35 0 0 0 .002-6.15Z"/><path fill="#fff" d="M268.72 520.145c12.609-26.271 22.032-36.02 47.888-51.957 14.146-8.712 31.042-19.073 44.149-30.28 11.012-9.438 24.699-19.65 36.231-28.242 13.151-9.825 27.341-16.442 38.043-29.252-9.905-9.043-45.852 17.668-55.006 23.436-3.775 2.379-22.693 18.802-18.751 7.05 2.618-7.786 14.996-14.551 20.287-20.406 6.51-7.163 12.841-13.673 16.767-22.321 4.148-9.078 6.277-18.84 9.906-27.992 2.007-5.097 13.096-20.552 1.864-16.298-6.82 2.573-14.685 15.397-18.475 21.207-10.599 16.183-21.929 37.431-38.572 48.164-1.08-11.037 24.555-30.078 30.085-39.945 7.761-13.879 14.824-28.217 21.485-42.452 1.814-3.893 10.526-18.961 8.953-22.05-4.646-9.164-16.254 3.988-19.123 8.045-8.889 12.631-17.883 26.377-26.475 39.662-7.195 11.115-23.058 38.501-36.118 41.522 11.802-14.92 24.688-29.143 35.896-44.389 5.946-8.114 29.847-36.826 22.616-46.227-17.085.751-32.785 29.548-43.204 41.274-6.51 7.341-11.699 16.717-19.278 22.96-8.158 6.733-13.656 9.202-22.987 13.633-9.911 4.713-20.24 13.052-27.716 21.062 11.177-12.602 46.547-76.75 19.35-86.291-4.06 8.901-6.352 18.974-10.589 27.726-3.985 8.232-9.693 15.484-14.317 23.404-9.321 16.033-15.672 32.719-21.354 50.251-6.367 19.553-12.971 38.572-21.729 56.952-7.925 16.657-25.729 31.491-11.638 48.495 10.587 12.786 38.435 27.556 52.926 13.213"/><path fill="#000" d="M270.101 520.931c5.546-11.515 11.805-22.734 20.945-31.815s21.132-16.291 32.456-23.308c12.734-7.894 25.484-15.981 36.987-25.612 11.502-9.632 23.198-18.654 35.146-27.573 13.627-10.182 29.362-17.988 40.525-31.11.52-.61.684-1.635.001-2.229-4.812-4.187-12.241-1.896-17.486.112-8.276 3.168-15.973 7.776-23.418 12.518a553 553 0 0 0-16.494 10.912c-5.424 3.731-10.017 8.323-16.034 10.599-.09.029-.758.015-.461.163.238.119.148.327.089-.089-.044-.282.075-.639.119-.921.417-2.526 2.186-4.799 3.851-6.642 3.909-4.266 8.768-7.521 13.152-11.281 5.097-4.355 9.675-9.824 13.733-15.13 4.058-5.305 7.225-11.59 9.575-18.128 2.484-6.939 4.136-14.293 7.125-21.054 1.487-3.358 3.539-6.419 5.07-9.762.996-2.184 2.915-6.062.732-8.156-2.436-2.346-7.072.122-9.256 1.683-5.008 3.582-8.739 9.006-12.143 14.043-3.657 5.41-7.121 10.952-10.6 16.48-8.592 13.641-17.661 28.204-31.391 37.242l2.346 1.366c-.457-6.343 6.022-12.675 9.902-16.94 5.231-5.736 11.013-11.013 16.051-16.942 2.349-2.765 4.118-5.662 5.872-8.842a544 544 0 0 0 9.188-17.534c4.55-9.034 8.714-18.276 13.368-27.266 1.709-3.314 3.404-6.672 4.787-10.134.863-2.169 2.127-5.037 1.222-7.369-2.478-6.402-9.551-3.992-13.593-.9-5.929 4.533-9.884 10.864-14.046 16.956a1336 1336 0 0 0-21.153 32.024c-4.906 7.638-9.634 15.394-15.059 22.661-2.958 3.968-6.124 7.817-9.721 11.235-2.853 2.705-6.108 5.336-10 6.318l1.514 2.644c7.818-9.868 16.067-19.394 24.019-29.157 5.485-6.732 10.673-13.672 15.935-20.568 4.132-5.409 8.175-10.878 11.817-16.628 3.375-5.335 6.928-11.234 8.178-17.504.447-2.229.596-4.576-.19-6.759-.297-.802-.786-2.065-1.589-2.481-1.232-.668-3.624.091-4.887.433-7.34 1.994-13.329 7.657-18.293 13.126-5.752 6.316-10.687 13.33-15.771 20.196-2.17 2.912-4.4 5.736-6.763 8.485-4.028 4.682-7.432 9.868-11.327 14.653-7.848 9.63-18.1 15.309-29.111 20.558s-20.625 12.933-28.919 21.732l2.228 2.227c3.537-4.013 6.421-8.649 9.171-13.24a197 197 0 0 0 10.557-20.179c3.271-7.251 6.186-14.74 8.136-22.481 1.592-6.373 2.694-13.178 1.553-19.729s-4.779-11.14-10.765-13.321c-.594-.208-1.5.164-1.768.759-4.996 11.144-7.557 23.148-13.86 33.728-3.092 5.201-6.63 10.135-9.797 15.291-3.166 5.156-5.902 10.387-8.459 15.766-10.468 21.931-16.554 45.54-25.151 68.214-3.971 10.475-8.046 21.291-13.769 30.965-3.836 6.479-8.503 12.572-11.492 19.511-2.632 6.107-3.556 12.644-.855 18.882 2.849 6.595 8.789 11.702 14.552 15.741 12.312 8.596 32.052 15.912 44.595 3.814 1.472-1.412-.756-3.64-2.227-2.228-10.983 10.567-28.436 3.845-39.307-3.311-5.57-3.667-11.361-8.418-14.374-14.493s-1.644-12.939 1.315-18.927c3.197-6.463 7.567-12.259 11.165-18.5 5.203-9.064 8.996-19.064 12.729-28.796 8.328-21.664 14.161-44.247 23.752-65.421 2.588-5.705 5.413-11.292 8.52-16.716s7.076-10.996 10.525-16.584 5.932-10.951 8.059-16.85c2.127-5.898 4.12-12.525 6.812-18.543l-1.768.759c11.779 4.288 9.306 19.977 6.91 29.441-3.572 14.055-10.025 27.517-17.324 39.985-2.87 4.888-5.858 9.926-9.633 14.206-1.323 1.501.83 3.713 2.228 2.227 7.743-8.248 16.793-15.665 27.016-20.631 9.599-4.669 19.213-9.264 26.852-16.962 4.206-4.266 7.655-9.229 11.252-14.014 2.884-3.834 6.109-7.356 9.022-11.161 5.292-6.925 10.197-14.117 15.89-20.73 5.692-6.614 12.931-14.416 22.067-14.97l-1.366-.801c2.539 3.49.471 8.675-1.03 12.167-2.395 5.513-5.68 10.639-9.054 15.588-7.686 11.219-16.188 22.097-24.779 32.619-7.759 9.481-15.755 18.755-23.38 28.37-.922 1.159-.135 3.045 1.514 2.643 6.701-1.681 12.036-7.343 16.376-12.396 5.515-6.435 10.286-13.494 14.835-20.627 5.084-7.935 10.154-15.885 15.342-23.775 3.552-5.395 7.12-10.774 10.762-16.109 2.512-3.67 4.906-7.549 7.76-10.967 2.318-2.764 9.022-10.774 13.329-8.013 2.51 1.619 1.142 4.412.279 6.611-1.353 3.492-3.093 6.835-4.818 10.134-4.445 8.603-8.445 17.444-12.772 26.107a608 608 0 0 1-8.668 16.657c-1.873 3.447-3.628 6.776-6.169 9.763-5.5 6.479-11.846 12.172-17.494 18.533-4.102 4.636-10.062 11.042-9.559 17.756.088 1.1 1.291 2.065 2.346 1.366 22.038-14.494 31.556-40.436 47.238-60.543 2.913-3.745 6.57-8.351 11.502-9.304 1.352-.253.996.282.668 1.53-.461 1.768-1.338 3.417-2.171 5.022-1.754 3.388-3.687 6.627-5.04 10.208-2.573 6.879-4.433 13.996-7.006 20.875-2.573 6.88-6.587 13.358-11.596 19.199-4.058 4.711-8.16 9.229-13.034 13.123-4.355 3.493-9.08 6.882-12.395 11.474-1.501 2.066-4.058 6.464-2.396 9.138 2.895 4.648 12.377-3.616 14.799-5.414 4.488-3.33 9.02-6.466 13.642-9.573 8.024-5.381 16.153-10.688 24.815-14.986 3.968-1.977 8.113-3.806 12.466-4.774 2.705-.595 6.27-1.072 8.542.903l.001-2.228c-10.256 12.067-24.357 19.189-36.929 28.405s-23.925 17.778-35.309 27.35c-11.77 9.899-24.371 18.431-37.418 26.548-11.502 7.166-23.404 14.019-33.391 23.294-9.987 9.274-17.435 21.83-23.532 34.49-.877 1.828 1.856 3.401 2.748 1.559z"/><path fill="#fff" d="M39.89 326.121c3.5 12.953 12.171 25.339 27.459 24.159s31.646-7.739 46.89-11.816c34.231-9.165 65.235-7.173 95.727-25.578 17.281-10.421 32.826-22.194 51.948-29.526-6.797-15.239-29.337-7.341-39.813-1.023-13.552 8.177-27.831 14.645-40.001 21.826 17.339-4.628 23.349-24.507 34.332-36.412 11.251-12.231 29.631-18.344 45.528-21.382 6.121-1.161 48.093-10.523 39.05-21.201-3.564-4.217-25.477-1.905-30.766-1.131-11.068 1.595-24.826 4.869-33.013 8.185-15.141 6.172-21.932 9.844-35.157 17.783 27.179-16.279 54.519-29.928 82.721-43.103 4.057-1.888 16.508-6.855 14.876-12.529-1.884-6.551-18.197-1.85-23.174-.971-15.199 2.666-30.368 6.104-44.187 13.3-14.83 7.731-27.758 17.304-42.35 25.333-8.597-10.916 53.703-32.766 60.894-36.394 2.824-1.427 14.934-8.548 12.173-12.172-2.376-3.118-16.863 1.716-19.819 2.356-13.684 3.022-24.559 5.136-37.768 10.861-12.719 5.532-23.004 15.133-34.906 21.838-6.756-8.064 41.093-38.034 46.147-45.345 2.571-3.73 7.774-10.209 1.104-11.736-3.981-.92-13.447 6.616-16.627 8.757-8.976 6.005-17.966 12.115-26.674 18.447-17.892 13.022-34.581 25.641-49.533 42.049-14.878 16.332-28.79 35.324-47.663 47.9-10.045 6.69-21.144 9.443-31.323 15.553-6.627 3.984-6.925 5.856-7.538 14.22-.478 6.448 1.273 11.765 1.523 17.752"/><path fill="#000" d="M38.374 326.508c3.634 13.086 12.78 25.829 27.725 25.376 16.98-.497 33.206-7.902 49.401-12.158 30.502-8.02 63.2-7.811 91.433-23.303 18.693-10.259 35.337-23.785 55.396-31.578 1.01-.386 1.427-1.308.966-2.303-4.512-9.654-15.267-10.689-24.627-8.606-12.227 2.724-22.585 10.261-33.492 16-7.979 4.207-16.062 8.251-23.849 12.83-1.516.892-.566 3.388 1.173 2.897 10.875-3.095 17.742-11.833 23.718-20.898 3.122-4.755 6.066-9.688 9.722-14.087 3.909-4.711 8.724-8.516 14.014-11.579 14.756-8.548 31.439-10.294 47.515-14.935 6.404-1.86 12.956-3.958 18.811-7.228 3.418-1.903 8.455-5.248 7.447-9.883-1.245-5.763-8.822-5.819-13.457-5.936-6.937-.161-13.965.422-20.843 1.42-12.034 1.758-24.069 4.586-35.331 9.255s-22.199 10.468-32.794 16.816c-1.754 1.041-.195 3.789 1.558 2.748 16.405-9.812 33.241-18.896 50.314-27.475 8.336-4.178 16.731-8.237 25.141-12.222 5.751-2.721 12.036-5.027 17.356-8.594 3.388-2.29 7.861-6.615 4.639-10.877-2.806-3.728-8.986-2.982-12.983-2.46-5.734.745-11.469 2.114-17.145 3.216-8.632 1.652-17.204 3.691-25.495 6.666-20.088 7.229-36.97 20.784-55.515 31.043l2.139.593c-6.162-8.213 43.851-27.487 49.527-29.777 3.418-1.368 6.895-2.648 10.223-4.224 4.502-2.126 9.926-5.352 12.765-9.528 1.219-1.783 1.71-4.205-.146-5.764s-4.946-1.171-7.19-.888c-6.908.909-13.728 3.215-20.533 4.703-11.469 2.531-22.939 5.447-33.563 10.547-11.709 5.621-21.488 14.42-32.722 20.842l1.887.252c-2.094-2.658 6.154-9.897 7.834-11.487 6.153-5.796 12.899-10.969 19.587-16.112 5.632-4.326 11.561-8.443 16.703-13.348 3.493-3.314 10.85-12.721 3.974-16.001-3.877-1.856-8.157.85-11.381 2.857-4.176 2.602-8.144 5.589-12.23 8.339-13.24 8.934-26.288 18.151-38.949 27.901-12.409 9.558-24.209 19.814-34.687 31.48-10.449 11.607-20.125 23.926-31.569 34.598-6.569 6.123-13.687 11.727-21.755 15.786-7.088 3.554-14.621 6.157-21.59 9.977-5.216 2.84-9.391 5.709-10.27 11.875-.492 3.521-.732 7.116-.421 10.666.355 4.1 1.23 8.096 1.45 12.211.118 2.021 3.253 2.034 3.15-.001-.369-6.878-1.955-13.37-1.314-20.307.21-2.199.404-4.651 1.741-6.493 1.71-2.333 4.756-3.835 7.237-5.188 6.167-3.375 12.764-5.784 19.109-8.773 6.344-2.989 12.511-7.017 18.144-11.581 11.665-9.497 21.371-21.045 31.181-32.369s20.644-22.426 32.518-32.192c11.874-9.765 24.446-18.892 37.137-27.662 5.409-3.746 10.981-7.299 16.346-11.149 3.611-2.572 7.43-5.738 11.739-7.106 1.531-.491 4.086-.522 4.144 1.617.059 1.932-1.963 4.339-2.973 5.825-1.338 1.932-2.72 3.403-4.563 5.009-5.38 4.667-11.176 8.858-16.808 13.214-7.044 5.44-14.251 10.925-20.479 17.33-2.957 3.047-8.739 8.888-5.235 13.373.416.534 1.337.564 1.887.251 9.733-5.545 18.308-12.843 28.041-18.359 9.228-5.248 19.524-8.446 29.79-10.931 7.414-1.801 14.843-3.527 22.272-5.313 2.852-.685 6.299-1.726 9.27-1.222 2.971.503-.848 3.61-1.874 4.487-6.583 5.663-14.889 8.325-22.793 11.538-11.1 4.506-22.243 9.146-32.749 14.959-4.443 2.453-20.134 10.482-14.655 17.773.519.698 1.321 1.055 2.139.594 15.468-8.549 29.69-19.444 45.708-26.998 13.774-6.498 28.467-8.896 43.22-12.067 4.799-1.027 10.148-2.485 15.08-1.685 1.827.312 3.966 1.202 3.4 3.431-.565 2.228-3.493 3.968-5.335 5.068-5.052 3.062-10.713 5.248-16.018 7.761-7.831 3.703-15.632 7.465-23.358 11.33-17.712 8.832-35.127 18.199-52.112 28.353l1.559 2.747c8.604-5.158 17.296-10.049 26.479-14.124 9.807-4.342 19.732-7.525 30.221-9.729 7.384-1.533 14.797-2.591 22.33-3.025 3.758-.224 7.546-.33 11.275-.049 2.065.162 5.437.235 6.863 2.017 5.3 6.639-20.745 13.914-24.118 14.881-14.322 4.077-29.075 5.881-42.626 12.453-5.587 2.706-10.907 6.095-15.455 10.316-4.072 3.775-7.283 8.323-10.315 12.929-6.72 10.194-13.231 22.022-25.801 25.593l1.172 2.896c7.935-4.638 16.152-8.756 24.28-13.053 7.118-3.762 13.909-8.296 21.205-11.671 9.732-4.506 26.358-9.133 32.176 3.314l.967-2.303c-16.686 6.469-31.383 16.562-46.451 26.047-7.177 4.504-14.443 8.652-22.348 11.746-6.924 2.706-14.1 4.715-21.351 6.322-14.693 3.26-29.699 4.93-44.437 7.938-16.06 3.26-31.29 9.342-47.262 12.9-8.483 1.89-17.858 3.721-25.61-1.267-6.788-4.379-10.573-12.207-12.68-19.753-.533-1.96-3.594-1.157-3.06.804z"/><path fill="#fff" stroke="#000" stroke-miterlimit="10" stroke-width=".75" d="M508.543 334.997 266.84 90.351c-1.01-1.01-1.411-2.48-1.039-3.803l19.462-71.613c.759-2.809 4.31-3.627 6.434-1.474l291.106 296.873c2.079 2.109 1.246 5.586-1.518 6.359l-68.879 19.402c-1.367.387-2.853-.029-3.892-1.068z"/><path stroke="#000" stroke-miterlimit="10" stroke-width=".5" d="m212.5 176 3.747 3.76a4.35 4.35 0 0 1-.003 6.15l-7.788 7.788a4.35 4.35 0 0 1-6.15.003L197.001 188"/><path fill="#000" d="M583.677 316.084c3.775-3.686 12.78-9.84 7.315-15.631-1.321-1.411-2.717-2.777-4.068-4.158l-19.72-20.107-31.912-32.535-40.345-41.148-44.519-45.411-44.919-45.811c-13.854-14.122-27.709-28.243-41.548-42.38-11.301-11.539-22.601-23.047-33.901-34.585L307.548 11.36l-5.791-5.88c-1.931-1.96-3.98-3.98-7.13-3.028-1.961.595-3.091 2.438-4.265 3.998-1.71 2.274-3.657 4.37-5.173 6.777-.535.862.831 1.634 1.366.772 1.457-2.348 3.389-4.458 5.084-6.658.535-.683 1.041-1.426 1.635-2.05 1.709-1.858 3.967-1.919 5.853-.211l.639.638c1.485 1.485 2.955 3.015 4.425 4.515l19.972 20.359 31.496 32.12c13.127 13.394 26.253 26.758 39.38 40.153 14.582 14.879 29.179 29.743 43.761 44.623a60198 60198 0 0 0 44.073 44.935l40.866 41.668 33.975 34.659 23.388 23.863c2.984 3.044 6.46 5.954 9.117 9.296 2.034 2.569.295 4.872-1.459 6.834-.936 1.026-1.664 2.199-2.705 3.121-1.159 1.04-2.392 1.977-3.507 3.062-.713.713.386 1.812 1.114 1.113z"/><path stroke="#000" stroke-miterlimit="10" stroke-width=".75" d="M477.256 302.254 296.108 121.105a2.12 2.12 0 0 0-3.001.002l-9.289 9.288a2.12 2.12 0 0 0-.001 3.001l181.148 181.149a2.12 2.12 0 0 0 3.001-.001l9.289-9.289c.829-.829.83-2.173.001-3.001Z"/></g><defs><clipPath id="a"><path fill="#fff" d="m296.278 0 301.935 301.935-296.278 296.277L0 296.278z"/></clipPath></defs></svg>
