<svg xmlns="http://www.w3.org/2000/svg" width="263" height="258" fill="none"><g clip-path="url(#a)"><path stroke="#000" stroke-miterlimit="10" stroke-width=".75" d="M211.52 55.289h19.363c4.734 0 8.576 3.843 8.576 8.58v125.797c0 4.737-3.842 8.58-8.576 8.58H29.853c-4.734 0-8.576-3.843-8.576-8.58V63.882c0-4.737 3.842-8.58 8.576-8.58h21.07"/><path fill="#000" d="M233.962 87.993c-1.668-1.954-3.104-4.09-4.708-6.096-2.056-2.575-4.216-5.241-6.894-7.195-.504-.363-.013-1.204.492-.842 2.69 1.98 4.902 4.608 6.971 7.21 1.643 2.044 3.118 4.244 4.825 6.237.401.479-.285 1.165-.686.686"/><path fill="#000" d="M234.234 146.129c1.099-19.349-1.397-38.71-.298-58.058.039-.621 1.009-.621.97 0-1.099 19.348 1.397 38.709.298 58.058-.039.621-1.009.621-.97 0M222.605 74.728a4510 4510 0 0 0-71.257-1.605c-23.761-.35-47.975-.518-71.969-.492-13.348.013-26.697.09-40.045.22-.621 0-.621-.97 0-.97 23.76-.247 47.509-.285 71.27-.143 23.993.142 47.974.466 71.968.984 13.349.284 26.697.634 40.033 1.048.621.013.621.983 0 .97z"/><path fill="#000" d="M39.684 72.825c-4.074 3.766-7.76 7.92-11.37 12.153-.4.478-1.086-.22-.685-.686 3.609-4.22 7.295-8.374 11.37-12.153.452-.427 1.15.259.685.686"/><path fill="#000" d="M28.457 85.055c.168 19.996.712 39.978 1.656 59.961.026.621-.944.621-.97 0a1545 1545 0 0 1-1.656-59.96c0-.622.97-.622.97 0M235.075 146.802c-1.255 0-1.255-1.941 0-1.941s1.254 1.941 0 1.941"/><path fill="#000" d="m234.777 146.284-80.467-1.825c-13.517-.31-27.033-.608-40.55-.919-13.297-.297-26.62-.737-39.916-.142-7.308.337-14.616.725-21.937.945s-14.616.479-21.912 1.139c-.62.051-.62-.919 0-.971 13-1.178 26.05-1.048 39.076-1.825s26.348-.543 39.541-.246l80.79 1.825c15.12.337 30.254.686 45.375 1.023.62.012.62.983 0 .97z"/><path stroke="#000" stroke-miterlimit="10" stroke-width=".5" d="M202.182 79.658h6.777c1.479 0 2.678 1.2 2.678 2.68v6.781a2.68 2.68 0 0 1-2.678 2.679h-6.777a2.68 2.68 0 0 1-2.678-2.679v-6.782a2.68 2.68 0 0 1 2.678-2.679ZM210.601 97.208h6.778c1.479 0 2.678 1.2 2.678 2.679v6.781a2.68 2.68 0 0 1-2.678 2.679h-6.778a2.68 2.68 0 0 1-2.677-2.679v-6.781a2.68 2.68 0 0 1 2.677-2.68ZM185.443 79.658h6.778c1.479 0 2.677 1.2 2.677 2.68v6.781a2.68 2.68 0 0 1-2.677 2.679h-6.778a2.68 2.68 0 0 1-2.677-2.679v-6.782a2.68 2.68 0 0 1 2.677-2.679ZM169.56 79.658h6.778c1.479 0 2.678 1.2 2.678 2.68v6.781a2.68 2.68 0 0 1-2.678 2.679h-6.778a2.68 2.68 0 0 1-2.677-2.679v-6.782a2.68 2.68 0 0 1 2.677-2.679ZM152.875 79.658h6.778c1.478 0 2.677 1.2 2.677 2.68v6.781a2.68 2.68 0 0 1-2.677 2.68h-6.778a2.68 2.68 0 0 1-2.678-2.68v-6.781c0-1.48 1.199-2.68 2.678-2.68ZM136.926 79.658h6.777c1.479 0 2.678 1.2 2.678 2.68v6.781a2.68 2.68 0 0 1-2.678 2.68h-6.777a2.68 2.68 0 0 1-2.678-2.68v-6.781c0-1.48 1.199-2.68 2.678-2.68ZM120.189 79.658h6.778c1.479 0 2.678 1.2 2.678 2.68v6.781a2.68 2.68 0 0 1-2.678 2.68h-6.778a2.68 2.68 0 0 1-2.677-2.68v-6.781c0-1.48 1.199-2.68 2.677-2.68ZM104.305 79.658h6.777c1.479 0 2.678 1.2 2.678 2.68v6.781a2.68 2.68 0 0 1-2.678 2.68h-6.777a2.68 2.68 0 0 1-2.678-2.68v-6.781c0-1.48 1.199-2.68 2.678-2.68ZM87.619 79.658h6.778c1.478 0 2.677 1.2 2.677 2.68v6.781a2.68 2.68 0 0 1-2.677 2.68h-6.778a2.68 2.68 0 0 1-2.677-2.68v-6.781c0-1.48 1.198-2.68 2.677-2.68ZM70.894 79.658h6.778c1.479 0 2.678 1.2 2.678 2.68v6.781a2.68 2.68 0 0 1-2.678 2.68h-6.778a2.68 2.68 0 0 1-2.677-2.68v-6.781c0-1.48 1.199-2.68 2.677-2.68ZM54.998 79.658h6.778c1.478 0 2.677 1.2 2.677 2.68v6.781a2.68 2.68 0 0 1-2.677 2.68h-6.778a2.68 2.68 0 0 1-2.677-2.68v-6.781c0-1.48 1.198-2.68 2.677-2.68ZM128.945 97.208h6.778c1.479 0 2.677 1.2 2.677 2.679v6.781a2.677 2.677 0 0 1-2.677 2.679h-6.778a2.677 2.677 0 0 1-2.677-2.679v-6.781a2.68 2.68 0 0 1 2.677-2.68ZM112.221 97.208h6.777c1.479 0 2.678 1.2 2.678 2.679v6.781a2.68 2.68 0 0 1-2.678 2.679h-6.777a2.68 2.68 0 0 1-2.678-2.679v-6.781a2.68 2.68 0 0 1 2.678-2.68ZM96.324 97.208h6.778c1.479 0 2.677 1.2 2.677 2.679v6.781a2.677 2.677 0 0 1-2.677 2.679h-6.778a2.68 2.68 0 0 1-2.677-2.679v-6.781a2.68 2.68 0 0 1 2.677-2.68ZM79.652 97.208h6.778c1.479 0 2.677 1.2 2.677 2.679v6.781a2.68 2.68 0 0 1-2.677 2.679h-6.778a2.68 2.68 0 0 1-2.677-2.679v-6.781a2.68 2.68 0 0 1 2.677-2.68Z"/><path stroke="#000" stroke-miterlimit="10" stroke-width=".5" d="M87.619 97.208h6.778c1.478 0 2.677 1.2 2.677 2.679v6.781a2.68 2.68 0 0 1-2.677 2.679h-6.778a2.68 2.68 0 0 1-2.677-2.679v-6.781a2.68 2.68 0 0 1 2.677-2.68Z"/><path stroke="#000" stroke-miterlimit="10" stroke-width=".5" d="M77.258 97.208h6.777c1.48 0 2.678 1.2 2.678 2.679v6.782a2.68 2.68 0 0 1-2.678 2.679h-6.777a2.68 2.68 0 0 1-2.678-2.679v-6.782a2.68 2.68 0 0 1 2.678-2.68ZM61.361 97.208h6.778c1.479 0 2.677 1.2 2.677 2.679v6.782a2.68 2.68 0 0 1-2.677 2.679h-6.778a2.68 2.68 0 0 1-2.677-2.679v-6.782a2.68 2.68 0 0 1 2.677-2.68ZM44.69 97.208h6.777c1.479 0 2.678 1.2 2.678 2.679v6.782a2.68 2.68 0 0 1-2.678 2.679H44.69a2.68 2.68 0 0 1-2.677-2.679v-6.782a2.68 2.68 0 0 1 2.677-2.68ZM194.201 97.208h6.778c1.479 0 2.677 1.2 2.677 2.679v6.781a2.677 2.677 0 0 1-2.677 2.679h-6.778a2.677 2.677 0 0 1-2.677-2.679v-6.781a2.68 2.68 0 0 1 2.677-2.68ZM177.476 97.208h6.778c1.479 0 2.678 1.2 2.678 2.679v6.781a2.68 2.68 0 0 1-2.678 2.679h-6.778a2.68 2.68 0 0 1-2.677-2.679v-6.781a2.68 2.68 0 0 1 2.677-2.68ZM161.58 97.208h6.778c1.478 0 2.677 1.2 2.677 2.679v6.781a2.68 2.68 0 0 1-2.677 2.679h-6.778a2.68 2.68 0 0 1-2.678-2.679v-6.781a2.68 2.68 0 0 1 2.678-2.68ZM144.906 97.208h6.778c1.479 0 2.677 1.2 2.677 2.679v6.781a2.677 2.677 0 0 1-2.677 2.679h-6.778a2.677 2.677 0 0 1-2.677-2.679v-6.781a2.68 2.68 0 0 1 2.677-2.68ZM120.189 113.114h6.778a2.68 2.68 0 0 1 2.678 2.679v6.781a2.68 2.68 0 0 1-2.678 2.679h-6.778a2.68 2.68 0 0 1-2.677-2.679v-6.781a2.68 2.68 0 0 1 2.677-2.679ZM103.465 113.114h6.777a2.68 2.68 0 0 1 2.678 2.679v6.781a2.68 2.68 0 0 1-2.678 2.679h-6.777a2.68 2.68 0 0 1-2.678-2.679v-6.781a2.68 2.68 0 0 1 2.678-2.679ZM87.568 113.114h6.778a2.68 2.68 0 0 1 2.677 2.679v6.781a2.68 2.68 0 0 1-2.677 2.679h-6.778a2.68 2.68 0 0 1-2.677-2.679v-6.781a2.68 2.68 0 0 1 2.677-2.679ZM175.613 127.751h6.778a2.677 2.677 0 0 1 2.677 2.679v6.782a2.68 2.68 0 0 1-2.677 2.679h-6.778a2.68 2.68 0 0 1-2.677-2.679v-6.782a2.677 2.677 0 0 1 2.677-2.679ZM169.56 113.114h6.778a2.68 2.68 0 0 1 2.678 2.679v6.781a2.68 2.68 0 0 1-2.678 2.679h-6.778a2.68 2.68 0 0 1-2.677-2.679v-6.781a2.68 2.68 0 0 1 2.677-2.679ZM136.137 113.114h6.777a2.68 2.68 0 0 1 2.678 2.679v6.781a2.68 2.68 0 0 1-2.678 2.679h-6.777a2.68 2.68 0 0 1-2.678-2.679v-6.781a2.68 2.68 0 0 1 2.678-2.679ZM52.684 114.77h6.777c1.479 0 2.678 1.2 2.678 2.679v6.782a2.68 2.68 0 0 1-2.678 2.679h-6.777a2.68 2.68 0 0 1-2.678-2.679v-6.782a2.68 2.68 0 0 1 2.678-2.679ZM35.945 114.77h6.778c1.479 0 2.677 1.2 2.677 2.679v6.782a2.68 2.68 0 0 1-2.677 2.679h-6.778a2.68 2.68 0 0 1-2.677-2.679v-6.782a2.68 2.68 0 0 1 2.677-2.679ZM68.63 114.77h6.779c1.478 0 2.677 1.2 2.677 2.679v6.782a2.68 2.68 0 0 1-2.677 2.679H68.63a2.68 2.68 0 0 1-2.678-2.679v-6.782a2.68 2.68 0 0 1 2.678-2.679ZM152.822 113.114h6.778a2.677 2.677 0 0 1 2.677 2.679v6.781a2.677 2.677 0 0 1-2.677 2.679h-6.778a2.677 2.677 0 0 1-2.677-2.679v-6.781a2.677 2.677 0 0 1 2.677-2.679ZM203.603 113.114h6.778a2.68 2.68 0 0 1 2.678 2.679v6.781a2.68 2.68 0 0 1-2.678 2.679h-6.778a2.68 2.68 0 0 1-2.677-2.679v-6.781a2.68 2.68 0 0 1 2.677-2.679ZM186.879 113.114h6.778a2.68 2.68 0 0 1 2.677 2.679v6.781a2.68 2.68 0 0 1-2.677 2.679h-6.778a2.68 2.68 0 0 1-2.678-2.679v-6.781a2.68 2.68 0 0 1 2.678-2.679ZM97.604 127.751h69.123a2.677 2.677 0 0 1 2.677 2.679v6.782a2.68 2.68 0 0 1-2.677 2.679H97.604a2.68 2.68 0 0 1-2.677-2.679v-6.782a2.68 2.68 0 0 1 2.677-2.679Z"/><path fill="#fff" d="M48.466 238.47c5.95-16.928 6.093-25.275 1.772-43.472-2.367-9.952-5.212-21.82-6.04-32.407-.686-8.904-2.2-19.309-3.48-28.071-1.448-10.004-4.747-19.064-3.828-29.301 8.252.375 12.275 27.657 13.75 34.154.607 2.679 1.694 18.067 5.096 11.234 2.25-4.53-.194-12.865.051-17.718.285-5.953.362-11.544 2.419-17.019 2.147-5.759 5.471-10.936 7.877-16.5 1.345-3.094 3.247-14.651 6.287-7.908 1.85 4.09-.311 13.097-1.19 17.277-2.432 11.661-6.752 25.846-4.178 37.765 5.277-4.335 2.405-23.787 4.294-30.491 2.664-9.422 5.833-18.74 9.132-27.839.905-2.485 3.673-12.838 5.704-13.498 6.014-1.968 5.342 8.813 4.825 11.829-1.63 9.37-3.7 19.27-5.743 28.796-1.708 7.972-6.726 26.803-2.355 33.805 1.359-11.635 1.94-23.439 3.7-34.957.944-6.122 3.04-29.029 10.283-29.974 7.114 7.765 1.41 27.14.84 36.782-.362 6.031-2.185 12.372-1.603 18.39.62 6.484 1.94 9.953 4.074 15.945 2.264 6.367 3.13 14.495 2.897 21.238.621-10.354 13.155-53.684 29.155-45.996-2.108 5.642-5.497 11.026-7.463 16.682-1.85 5.319-2.522 10.962-3.958 16.423-2.923 11.04-7.425 21.07-12.586 31.178-5.743 11.285-11.15 22.441-15.34 34.258-3.803 10.703-2.51 24.913-16.052 26.181-10.18.958-28.74-4.736-28.805-17.29"/><path fill="#000" d="M47.522 238.212c2.6-7.429 4.76-15.039 4.734-22.973s-2.108-16.294-3.984-24.279c-2.108-8.982-4.139-18.054-4.954-27.256s-1.979-18.222-3.298-27.308c-1.5-10.366-4.954-20.616-4.1-31.19.039-.492.414-1.009.97-.971 3.92.272 6.157 4.504 7.567 7.662 2.224 4.983 3.57 10.341 4.747 15.647a342 342 0 0 1 2.431 11.933c.738 3.986.738 7.985 2.367 11.596.026.051.324.336.13.271-.155-.051-.207.078 0-.077.142-.104.245-.311.349-.453.918-1.281 1.138-3.042 1.216-4.569.155-3.559-.543-7.092-.815-10.638-.323-4.116.065-8.49.608-12.567s1.901-8.192 3.725-12.062c1.94-4.102 4.424-8.024 6.066-12.269.815-2.11 1.255-4.335 2.044-6.458.517-1.385 1.371-3.909 3.234-3.87 2.082.04 3.026 3.132 3.298 4.763.621 3.74-.116 7.726-.828 11.402-.763 3.947-1.668 7.869-2.56 11.79-2.2 9.681-4.593 19.97-2.549 29.883l-1.617-.427c2.962-2.562 2.898-8.14 3.066-11.686.22-4.776 0-9.59.388-14.366.18-2.226.672-4.258 1.293-6.406a335 335 0 0 1 3.635-11.635c1.953-5.915 4.165-11.752 6.053-17.692.699-2.187 1.423-4.387 2.329-6.497.569-1.32 1.267-3.119 2.677-3.74 3.868-1.709 5.898 2.42 6.312 5.526.608 4.556-.427 9.034-1.267 13.499a825 825 0 0 1-4.734 23.153c-1.19 5.461-2.51 10.897-3.312 16.423-.44 3.016-.737 6.07-.66 9.125.065 2.42.337 4.982 1.604 7.105l-1.81.492c.892-7.701 1.448-15.44 2.237-23.154.543-5.319 1.307-10.599 2.018-15.893.556-4.154 1.177-8.296 2.096-12.385.853-3.792 1.875-7.908 4.061-11.182.776-1.165 1.733-2.252 3.027-2.86.478-.22 1.241-.557 1.772-.389.828.246 1.539 1.618 1.94 2.317 2.328 4.064 2.47 9.137 2.251 13.68-.246 5.254-1.152 10.457-1.928 15.66a96 96 0 0 0-.75 6.639c-.284 3.792-1.06 7.532-1.449 11.311-.776 7.61 1.216 14.547 3.726 21.626s3.35 14.612 3.13 22.054h-1.94c.207-3.288.97-6.562 1.772-9.759a122 122 0 0 1 4.19-13.382c1.734-4.581 3.726-9.111 6.248-13.33 2.082-3.468 4.566-6.911 7.916-9.266s6.933-2.77 10.49-1.113c.349.168.582.724.44 1.1-2.678 7.027-6.791 13.369-8.654 20.72-.918 3.611-1.526 7.299-2.393 10.923s-1.953 7.092-3.181 10.548c-4.993 14.107-12.625 27.036-18.756 40.651-2.832 6.29-5.769 12.774-7.489 19.478-1.151 4.49-1.772 9.175-3.492 13.498-1.514 3.805-3.958 7.053-7.852 8.594-4.113 1.63-8.924 1.268-13.193.517-9.106-1.617-20.89-7.027-21.083-17.756-.026-1.256 1.914-1.256 1.94 0 .18 9.383 10.71 14.055 18.561 15.673 4.023.828 8.615 1.281 12.573-.052 3.957-1.333 6.35-4.918 7.67-8.814 1.423-4.206 2.043-8.632 3.195-12.916 1.681-6.212 4.385-12.217 6.997-18.08 5.808-13.058 13.103-25.431 18.148-38.826a122 122 0 0 0 3.57-10.988c1.008-3.714 1.707-7.869 2.638-11.803s2.186-7.351 3.829-10.846 3.66-7.247 5.109-11.039l.44 1.1c-6.998-3.261-12.754 4.646-15.832 9.81-4.566 7.675-7.619 16.346-9.869 24.952-.88 3.378-1.772 6.873-1.992 10.38-.078 1.229-1.979 1.255-1.94 0 .219-6.963-.492-14.133-2.781-20.746-2.148-6.212-4.334-12.399-4.308-19.077.026-3.688.686-7.351 1.203-11.001.414-2.925.543-5.862.932-8.787.711-5.319 1.707-10.587 2.108-15.945.4-5.358.647-11.907-3.091-16.126l.944.246c-2.626.414-3.984 3.572-4.85 5.746-1.359 3.443-2.16 7.106-2.846 10.729-1.54 8.232-2.574 16.67-3.415 24.992-.75 7.506-1.306 15.025-2.173 22.532-.104.906-1.268 1.385-1.811.492-2.186-3.65-2.044-8.439-1.733-12.528.4-5.203 1.397-10.354 2.522-15.44 1.242-5.669 2.496-11.338 3.673-17.032a720 720 0 0 0 2.329-11.7c.504-2.692 1.15-5.422 1.397-8.153.194-2.213.763-8.62-2.316-9.293-1.798-.388-2.418 1.424-3 2.757-.932 2.11-1.63 4.323-2.316 6.51-1.81 5.682-3.919 11.272-5.807 16.928a375 375 0 0 0-3.48 11.027c-.685 2.316-1.37 4.53-1.565 6.937-.427 5.215-.142 10.457-.453 15.686-.232 3.804-.426 9.188-3.57 11.893-.517.44-1.461.337-1.616-.427-3.286-15.906 3.867-31.345 5.794-46.928.362-2.899.776-6.497-.957-9.06-.479-.698-.556-.31-.957.376-.57.97-.906 2.07-1.242 3.132-.711 2.24-1.28 4.491-2.25 6.639-1.876 4.116-4.165 8.025-6.04 12.14s-2.95 8.684-3.312 13.408c-.285 3.818-.466 7.571-.039 11.389.375 3.417.957 6.95.401 10.393-.246 1.553-1.048 4.581-2.936 5.021-3.285.764-3.816-6.963-4.087-8.801-.505-3.403-1.113-6.742-1.773-10.107-1.15-5.837-2.38-11.687-4.28-17.33-.867-2.588-1.876-5.189-3.351-7.506-.918-1.437-2.264-3.197-4.113-3.326l.97-.971c-.79 9.72 2.25 18.96 3.712 28.447s2.678 18.157 3.467 27.282c.815 9.434 2.587 18.636 4.734 27.851 1.888 8.128 4.087 16.294 4.398 24.68.31 8.387-1.915 17.097-4.773 25.263-.414 1.178-2.29.673-1.876-.517z"/><path fill="#fff" d="M232.629 253.626c-7.165 4.115-16.336 5.733-22.48-1.437s-10.412-17.148-15.276-25.561c-10.917-18.895-25.287-31.526-30.551-52.816-2.988-12.062-4.631-23.956-9.766-35.474 9.597-3.676 15.974 9.577 17.785 16.889 2.341 9.461 5.743 18.494 7.916 26.92-5.536-9.565.505-20.837.906-30.802.426-10.225-4.916-20.889-10.516-29.133-2.16-3.171-16.363-25.522-7.774-26.234 3.389-.284 11.926 10.263 13.892 12.904 4.126 5.513 8.692 12.929 10.813 17.937 3.906 9.28 5.264 13.835 7.567 23.05-4.747-18.921-10.71-36.768-17.255-54.784-.944-2.588-4.204-10.172-1.022-11.932 3.674-2.032 8.731 7.118 10.516 9.667 5.458 7.779 10.568 15.88 13.452 25.03 3.091 9.823 4.553 19.621 7.412 29.47 8.498-1.01-9.119-37.649-10.671-42.36-.608-1.851-2.781-10.224 0-10.6 2.392-.323 6.596 8.089 7.605 9.655 4.644 7.274 8.459 12.93 11.719 21.174 3.13 7.946 3.428 16.604 5.691 24.706 6.455-.569-1.332-34.452-.349-39.836.504-2.743 1.061-7.83 4.631-5.591 2.134 1.333 2.974 8.736 3.427 11.053 1.294 6.523 2.548 13.097 3.583 19.646 2.121 13.46 3.893 26.221 3.26 39.874-.634 13.59-2.846 27.916-.104 41.609 1.462 7.287 5.096 13.318 6.868 20.41 1.152 4.62.466 5.565-2.91 9.473-2.6 3.016-5.678 4.569-8.394 7.067"/><path fill="#000" d="M233.121 254.454c-7.282 4.115-16.815 5.681-23.127-1.023-7.178-7.609-11.02-17.898-16.22-26.803-9.791-16.772-24.123-30.918-29.672-49.956-3.673-12.605-5.031-25.742-10.373-37.868-.272-.609-.052-1.191.582-1.424 6.169-2.239 11.304 1.993 14.473 6.976 4.14 6.51 5.368 14.301 7.619 21.548 1.643 5.307 3.402 10.587 4.799 15.971.271 1.048-1.229 1.721-1.772.75-3.389-6.082-2.574-12.877-1.229-19.426.711-3.429 1.578-6.859 1.901-10.366.35-3.753-.09-7.507-1.06-11.143-2.704-10.147-9.21-18.171-14.19-27.192-1.979-3.597-3.919-7.364-5.044-11.337-.66-2.316-1.397-5.966 1.06-7.545 3.053-1.967 6.377 1.307 8.447 3.274 3.091 2.951 5.898 6.264 8.459 9.694 4.475 6.005 8.485 12.476 11.357 19.413s5.109 14.223 6.958 21.6c.311 1.217-1.565 1.735-1.875.518-2.872-11.415-6.247-22.7-9.947-33.869a779 779 0 0 0-5.626-16.269c-1.32-3.688-3.053-7.428-3.816-11.298-.479-2.472-.543-6.303 2.716-6.756 2.846-.4 5.213 2.615 6.726 4.582 2.173 2.821 4.075 5.914 6.067 8.865 3.039 4.478 5.885 9.098 8.2 14.003 5.601 11.894 7.05 25.147 10.658 37.688l-1.19-.673c6.261-.893-7.127-31.061-8.601-34.53-.893-2.083-1.85-4.154-2.613-6.29-1.035-2.886-1.992-6.652-1.41-9.706.246-1.307 1.087-2.576 2.574-2.446 1.488.13 2.665 1.644 3.518 2.743 2.613 3.404 4.579 7.378 6.894 10.988 3.894 6.096 7.619 12.36 10.025 19.206 2.651 7.546 3.078 15.634 5.174 23.322l-.932-.712c2.07-.246 1.63-6.989 1.591-8.412-.155-5.203-.84-10.393-1.513-15.544-.569-4.335-1.358-8.71-1.462-13.084-.077-2.964.815-10.263 5.239-8.697 2.496.88 3.182 3.921 3.712 6.199.686 2.951 1.113 5.979 1.695 8.956 1.875 9.655 3.544 19.348 4.811 29.107 1.242 9.564 1.915 19.167 1.397 28.809-.504 9.603-1.655 19.18-1.319 28.809.194 5.526.854 11.065 2.6 16.346 1.539 4.633 3.686 9.046 5.057 13.744 1.035 3.507 1.604 6.575-.698 9.642-1.32 1.747-2.781 3.417-4.463 4.827-1.94 1.631-4.061 2.99-5.95 4.685-.931.829-2.302-.53-1.371-1.372 3.156-2.834 6.675-4.969 9.417-8.27.866-1.048 1.849-2.2 2.069-3.584.272-1.761-.401-3.741-.892-5.41-1.216-4.155-3.04-8.076-4.502-12.14s-2.392-8.503-2.858-12.942c-.944-9.215-.142-18.468.517-27.67.66-9.202.776-18.753-.142-28.175s-2.419-18.869-4.126-28.214c-.724-3.986-1.604-7.959-2.264-11.971-.452-2.692-.737-5.733-2.018-8.205-.452-.88-1.552-2.006-2.509-1.1-.866.815-1.035 2.743-1.242 3.83-.258 1.424-.297 2.667-.194 4.168.311 4.374 1.009 8.723 1.566 13.071.698 5.436 1.448 10.962 1.371 16.463-.039 2.614-.065 7.674-3.545 8.101-.413.052-.827-.336-.931-.711-1.824-6.653-2.38-13.564-4.216-20.203-1.734-6.303-4.825-12.179-8.214-17.731-2.445-4.012-4.928-7.998-7.386-12.01-.944-1.54-1.992-3.494-3.505-4.568-1.513-1.075-1.203 1.94-1.138 2.77.401 5.331 2.858 10.107 4.902 14.947 2.872 6.795 5.704 13.667 7.748 20.772.866 3.003 4.204 13.331-1.358 14.12-.531.078-1.035-.116-1.19-.673-3.014-10.457-4.463-21.393-8.149-31.656-3.169-8.827-8.524-16.268-13.569-24.072-1.642-2.537-3.337-5.5-5.833-7.3-.931-.66-2.251-1.203-2.975.013-.724 1.217-.207 3.249.116 4.53.867 3.533 2.38 6.95 3.596 10.353a722 722 0 0 1 5.239 15.104c3.867 11.557 7.373 23.218 10.347 35.034l-1.875.518c-1.5-5.992-3.156-11.907-5.381-17.679a92.4 92.4 0 0 0-8.925-17.394c-2.548-3.883-5.316-7.571-8.407-11.04-1.539-1.734-3.143-3.429-4.89-4.93-.97-.829-2.47-2.266-3.867-2.11-5.2.582 2.975 15.09 4.023 16.98 4.462 8.011 10.102 15.22 13.141 23.981 1.255 3.611 2.096 7.403 2.238 11.221.129 3.417-.453 6.795-1.138 10.121-1.514 7.364-3.829 15.349.09 22.377l-1.772.75c-1.436-5.474-3.221-10.845-4.889-16.255-1.462-4.737-2.445-9.668-4.152-14.314-2.277-6.199-7.502-15.453-15.457-12.567l.582-1.423c4.45 10.082 6.454 20.875 8.886 31.565 1.164 5.087 2.522 10.056 4.618 14.845 1.837 4.193 4.087 8.192 6.545 12.049 4.98 7.817 10.787 15.078 15.896 22.804 5.575 8.412 9.559 17.692 14.966 26.195 2.871 4.516 6.157 9.396 11.706 10.599 4.863 1.048 9.921-.712 14.124-3.08 1.087-.621 2.07 1.061.983 1.682z"/><path fill="#fff" stroke="#000" stroke-miterlimit="10" stroke-width=".75" d="m24.654 53.438 211.818-1.282c.879 0 1.694-.465 2.108-1.203l22.713-39.655c.893-1.553-.297-3.455-2.16-3.442l-256.08 2.51c-1.824.014-2.975 1.89-2.108 3.43l21.549 38.438c.427.764 1.255 1.23 2.16 1.23z"/><path stroke="#000" stroke-miterlimit="10" stroke-width=".5" d="m222.835 113.108-3.269.006a2.677 2.677 0 0 0-2.677 2.679v6.781a2.677 2.677 0 0 0 2.677 2.679l4.793-.172"/><path fill="#000" d="M.169 12.489C.129 9.241-1.111 2.64 3.79 2.498c1.19-.04 2.393-.026 3.583-.04l17.346-.167 28.068-.272 35.492-.35 39.166-.388 39.516-.388C179.145.776 191.33.66 203.514.53c9.947-.104 19.881-.195 29.827-.298l19.803-.194 5.084-.04c1.694-.012 3.466 0 4.423 1.787.595 1.113.285 2.407.117 3.598-.246 1.734-.311 3.494-.699 5.202-.142.609-1.073.35-.931-.258.388-1.657.466-3.417.685-5.112.065-.531.169-1.075.182-1.605.064-1.553-.893-2.563-2.458-2.64h-.556c-1.294 0-2.6.025-3.894.038l-17.565.169-27.706.271c-11.55.117-23.088.22-34.639.337-12.831.13-25.662.246-38.493.375-12.831.13-25.844.26-38.765.376l-35.946.349-29.892.298-20.579.207c-2.625.026-5.406-.22-8.02.077-2.004.233-2.25 1.993-2.34 3.611-.04.854-.233 1.683-.181 2.537.051.958.18 1.902.194 2.86 0 .621-.958.621-.97 0z"/><path stroke="#000" stroke-miterlimit="10" stroke-width=".75" d="M52.54 52.804h157.79c.722 0 1.307.585 1.307 1.307V62.2c0 .721-.585 1.307-1.307 1.307H52.54a1.307 1.307 0 0 1-1.306-1.307v-8.09c0-.721.585-1.306 1.307-1.306Z"/></g><defs><clipPath id="a"><path fill="#fff" d="M263 0H0v258h263z"/></clipPath></defs></svg>
