<svg viewBox="0 0 20 17" fill="none" xmlns="http://www.w3.org/2000/svg">
<path d="M5.25575 4.83177C4.97961 4.83177 4.75575 5.05563 4.75575 5.33177C4.75575 5.60792 4.97961 5.83177 5.25575 5.83177V5.33177V4.83177ZM14.1446 5.83177C14.4208 5.83177 14.6446 5.60792 14.6446 5.33177C14.6446 5.05563 14.4208 4.83177 14.1446 4.83177V5.33177V5.83177ZM5.00353 5.26867L5.23802 4.82707L5.00353 5.26867ZM4.76075 5.01566L4.31156 5.23529L4.76075 5.01566ZM14.6396 5.01566L15.0888 5.23529L14.6396 5.01566ZM14.3969 5.26867L14.1624 4.82707L14.3969 5.26867ZM14.3969 3.07909L14.1624 3.52069L14.3969 3.07909ZM14.6396 3.3321L15.0888 3.11247L14.6396 3.3321ZM5.00353 3.07909L5.23802 3.52069L5.00353 3.07909ZM4.76075 3.3321L4.31156 3.11247L4.76075 3.3321ZM9.7002 3.01598L9.22973 3.18528L9.7002 4.49268L10.1707 3.18528L9.7002 3.01598ZM11.6371 2.60536C11.4104 2.76291 11.3542 3.07448 11.5118 3.30126C11.6693 3.52805 11.9809 3.58417 12.2077 3.42661L11.9224 3.01598L11.6371 2.60536ZM7.19269 3.42661C7.41948 3.58417 7.73105 3.52805 7.8886 3.30126C8.04616 3.07448 7.99004 2.76291 7.76325 2.60536L7.47797 3.01598L7.19269 3.42661ZM5.25575 5.33177V5.83177H14.1446V5.33177V4.83177H5.25575V5.33177ZM5.58908 3.01598V3.51598H13.8113V3.01598V2.51598H5.58908V3.01598ZM14.7002 3.9423H14.2002V4.40546H14.7002H15.2002V3.9423H14.7002ZM13.8113 5.33177V4.83177H5.58908V5.33177V5.83177H13.8113V5.33177ZM4.7002 4.40546H5.2002V3.9423H4.7002H4.2002V4.40546H4.7002ZM5.58908 5.33177V4.83177C5.42492 4.83177 5.33313 4.83135 5.26661 4.82569C5.20658 4.82058 5.21342 4.814 5.23802 4.82707L5.00353 5.26867L4.76905 5.71028C4.91249 5.78644 5.05654 5.81142 5.18178 5.82208C5.30055 5.8322 5.44211 5.83177 5.58908 5.83177V5.33177ZM4.7002 4.40546H4.2002C4.2002 4.55966 4.19984 4.70417 4.20929 4.82479C4.21916 4.95067 4.24199 5.09298 4.31156 5.23529L4.76075 5.01566L5.20993 4.79604C5.21896 4.8145 5.2115 4.81383 5.20623 4.74663C5.20055 4.67417 5.2002 4.5755 5.2002 4.40546H4.7002ZM5.00353 5.26867L5.23802 4.82707C5.2291 4.82233 5.21806 4.81267 5.20993 4.79604L4.76075 5.01566L4.31156 5.23529C4.40996 5.43653 4.5689 5.604 4.76905 5.71028L5.00353 5.26867ZM14.7002 4.40546H14.2002C14.2002 4.5755 14.1998 4.67417 14.1942 4.74663C14.1889 4.81383 14.1814 4.8145 14.1905 4.79604L14.6396 5.01566L15.0888 5.23529C15.1584 5.09298 15.1812 4.95067 15.1911 4.82479C15.2006 4.70417 15.2002 4.55966 15.2002 4.40546H14.7002ZM13.8113 5.33177V5.83177C13.9583 5.83177 14.0998 5.8322 14.2186 5.82208C14.3439 5.81142 14.4879 5.78644 14.6313 5.71028L14.3969 5.26867L14.1624 4.82707C14.187 4.814 14.1938 4.82058 14.1338 4.82569C14.0673 4.83135 13.9755 4.83177 13.8113 4.83177V5.33177ZM14.6396 5.01566L14.1905 4.79604C14.1823 4.81267 14.1713 4.82233 14.1624 4.82707L14.3969 5.26867L14.6313 5.71028C14.8315 5.604 14.9904 5.43653 15.0888 5.23529L14.6396 5.01566ZM13.8113 3.01598V3.51598C13.9755 3.51598 14.0673 3.51641 14.1338 3.52207C14.1938 3.52718 14.187 3.53375 14.1624 3.52069L14.3969 3.07909L14.6313 2.63748C14.4879 2.56132 14.3439 2.53634 14.2186 2.52568C14.0998 2.51556 13.9583 2.51598 13.8113 2.51598V3.01598ZM14.7002 3.9423H15.2002C15.2002 3.7881 15.2006 3.64359 15.1911 3.52297C15.1812 3.39709 15.1584 3.25477 15.0888 3.11247L14.6396 3.3321L14.1905 3.55172C14.1814 3.53326 14.1889 3.53393 14.1942 3.60113C14.1998 3.67359 14.2002 3.77226 14.2002 3.9423H14.7002ZM14.3969 3.07909L14.1624 3.52069C14.1713 3.52543 14.1823 3.53509 14.1905 3.55172L14.6396 3.3321L15.0888 3.11247C14.9904 2.91123 14.8315 2.74376 14.6313 2.63748L14.3969 3.07909ZM5.58908 3.01598V2.51598C5.44211 2.51598 5.30055 2.51556 5.18178 2.52568C5.05654 2.53634 4.91249 2.56132 4.76905 2.63748L5.00353 3.07909L5.23802 3.52069C5.21342 3.53375 5.20658 3.52718 5.26661 3.52207C5.33313 3.51641 5.42492 3.51598 5.58908 3.51598V3.01598ZM4.7002 3.9423H5.2002C5.2002 3.77226 5.20055 3.67359 5.20623 3.60113C5.2115 3.53393 5.21896 3.53326 5.20993 3.55172L4.76075 3.3321L4.31156 3.11247C4.24199 3.25477 4.21916 3.39709 4.20929 3.52297C4.19984 3.64359 4.2002 3.7881 4.2002 3.9423H4.7002ZM5.00353 3.07909L4.76905 2.63748C4.5689 2.74376 4.40996 2.91123 4.31156 3.11247L4.76075 3.3321L5.20993 3.55172C5.21806 3.53509 5.2291 3.52543 5.23802 3.52069L5.00353 3.07909ZM9.7002 3.01598L10.1707 3.18528C10.2959 2.83733 10.5501 2.30938 10.8908 1.87897C11.2459 1.43047 11.6031 1.2002 11.9224 1.2002V0.700195V0.200195C11.1307 0.200195 10.5156 0.74185 10.1068 1.25826C9.68364 1.79277 9.3823 2.42271 9.22973 2.84669L9.7002 3.01598ZM11.9224 0.700195V1.2002C12.3239 1.2002 12.4526 1.39169 12.4704 1.50284C12.4937 1.64884 12.4158 2.06437 11.6371 2.60536L11.9224 3.01598L12.2077 3.42661C13.0957 2.8097 13.5733 2.06734 13.4578 1.34492C13.3367 0.587647 12.6321 0.200195 11.9224 0.200195V0.700195ZM9.7002 3.01598L10.1707 2.84669C10.0181 2.42271 9.71675 1.79277 9.29361 1.25826C8.88478 0.74185 8.26972 0.200195 7.47797 0.200195V0.700195V1.2002C7.79734 1.2002 8.1545 1.43047 8.50956 1.87897C8.8503 2.30938 9.10452 2.83733 9.22973 3.18528L9.7002 3.01598ZM7.47797 0.700195V0.200195C6.76831 0.200195 6.06369 0.587647 5.94258 1.34492C5.82704 2.06734 6.30472 2.8097 7.19269 3.42661L7.47797 3.01598L7.76325 2.60536C6.98456 2.06437 6.90668 1.64884 6.93003 1.50284C6.94781 1.39169 7.07653 1.2002 7.47797 1.2002V0.700195Z" fill="currentColor"/>
<path d="M0.700195 5.77372H18.7002M1.7002 5.77372L4.7002 0.700195M14.7002 0.700195L17.7002 5.77372M7.7002 9.74431H11.7002M1.72412 5.89246L3.37864 14.1042C3.56561 15.0322 4.38644 15.7002 5.3398 15.7002H14.0606C15.014 15.7002 15.8348 15.0322 16.0217 14.1042L17.6763 5.89246C17.6887 5.83103 17.6413 5.77372 17.5782 5.77372H1.82218C1.75907 5.77372 1.71174 5.83103 1.72412 5.89246Z" stroke="currentColor" stroke-width="1.4" stroke-linecap="round"/>
</svg>
