<svg viewBox="0 0 28 28" fill="none" xmlns="http://www.w3.org/2000/svg">
<path d="M22.8894 10.6667L20.6672 4M5.11114 10.6667L7.33343 4M10.528 15.25H17.4726M6.22255 10.6667H21.7774C22.0979 10.6666 22.4145 10.7359 22.7057 10.8697C22.9968 11.0035 23.2556 11.1986 23.4642 11.4418C23.6729 11.6849 23.8265 11.9703 23.9145 12.2784C24.0025 12.5865 24.0229 12.91 23.9742 13.2267L22.5797 21.1733C22.4586 21.9605 22.0597 22.6783 21.4552 23.1968C20.8507 23.7153 20.0805 24.0002 19.284 24H8.71485C7.9186 24 7.14867 23.7149 6.54437 23.1964C5.94008 22.678 5.54134 21.9603 5.42031 21.1733L4.02582 13.2267C3.97712 12.91 3.99748 12.5865 4.0855 12.2784C4.17352 11.9703 4.32712 11.6849 4.53578 11.4418C4.74443 11.1986 5.0032 11.0035 5.29435 10.8697C5.5855 10.7359 5.90213 10.6666 6.22255 10.6667Z" stroke="currentColor" stroke-width="1.75" stroke-linecap="round" stroke-linejoin="round"/>
</svg>
