<svg viewBox="0 0 25 25" fill="none" xmlns="http://www.w3.org/2000/svg">
<path d="M6.17845 18.4041L4.52392 10.1923C4.51155 10.1308 4.55888 10.0735 4.62198 10.0735H20.378C20.4411 10.0735 20.4885 10.1308 20.4761 10.1923L18.8216 18.4041C18.6346 19.332 17.8138 20 16.8604 20H8.13961C7.18625 20 6.36542 19.332 6.17845 18.4041Z" fill="none"/>
<path d="M3.5 10.0735H21.5M4.5 10.0735L7.5 5M17.5 5L20.5 10.0735M10.5 14.0441H14.5M4.52392 10.1923L6.17845 18.4041C6.36542 19.332 7.18625 20 8.13961 20H16.8604C17.8138 20 18.6346 19.332 18.8216 18.4041L20.4761 10.1923C20.4885 10.1308 20.4411 10.0735 20.378 10.0735H4.62198C4.55888 10.0735 4.51155 10.1308 4.52392 10.1923Z" stroke="currentColor" stroke-width="1.4" stroke-linecap="round"/>
</svg>
