<svg viewBox="0 0 28 28" fill="none" xmlns="http://www.w3.org/2000/svg">
<path d="M22.8894 10.6667L20.6672 4M5.11114 10.6667L7.33343 4M10.528 15.25H17.4726M6.22255 10.6667H21.7774C22.0979 10.6666 22.4145 10.7359 22.7057 10.8697C22.9968 11.0035 23.2556 11.1986 23.4642 11.4418C23.6729 11.6849 23.8265 11.9703 23.9145 12.2784C24.0025 12.5865 24.0229 12.91 23.9742 13.2267L22.5797 21.1733C22.4586 21.9605 22.0597 22.6783 21.4552 23.1968C20.8507 23.7153 20.0805 24.0002 19.284 24H8.71485C7.9186 24 7.14867 23.7149 6.54437 23.1964C5.94008 22.678 5.54134 21.9603 5.42031 21.1733L4.02582 13.2267C3.97712 12.91 3.99748 12.5865 4.0855 12.2784C4.17352 11.9703 4.32712 11.6849 4.53578 11.4418C4.74443 11.1986 5.0032 11.0035 5.29435 10.8697C5.5855 10.7359 5.90213 10.6666 6.22255 10.6667Z" stroke="currentColor" stroke-width="1.75" stroke-linecap="round" stroke-linejoin="round"/>
<path d="M11.1626 8.12527C10.7482 8.12527 10.3508 7.96065 10.0577 7.66763C9.76472 7.3746 9.6001 6.97717 9.6001 6.56277C9.6001 6.14837 9.76472 5.75094 10.0577 5.45792C10.3508 5.16489 10.7482 5.00027 11.1626 5.00027C11.7655 4.98977 12.3564 5.28231 12.8581 5.83975C13.3598 6.39719 13.749 7.19365 13.9751 8.12527C14.2012 7.19365 14.5904 6.39719 15.0921 5.83975C15.5938 5.28231 16.1847 4.98977 16.7876 5.00027C17.202 5.00027 17.5994 5.16489 17.8925 5.45792C18.1855 5.75094 18.3501 6.14837 18.3501 6.56277C18.3501 6.97717 18.1855 7.3746 17.8925 7.66763C17.5994 7.96065 17.202 8.12527 16.7876 8.12527M8.3501 8.75027C8.3501 8.58451 8.41595 8.42554 8.53316 8.30833C8.65037 8.19112 8.80934 8.12527 8.9751 8.12527H18.9751C19.1409 8.12527 19.2998 8.19112 19.417 8.30833C19.5343 8.42554 19.6001 8.58451 19.6001 8.75027V10.0003C19.6001 10.166 19.5343 10.325 19.417 10.4422C19.2998 10.5594 19.1409 10.6253 18.9751 10.6253H8.9751C8.80934 10.6253 8.65037 10.5594 8.53316 10.4422C8.41595 10.325 8.3501 10.166 8.3501 10.0003V8.75027Z" stroke="currentColor" stroke-width="1.75" stroke-linecap="round" stroke-linejoin="round"/>
</svg>
