<svg viewBox="0 0 4 18" fill="none" xmlns="http://www.w3.org/2000/svg">
<path d="M1.37494 9.12524L1.37494 8.37524M2.12494 9.12524L2.12494 8.37524M1.37494 16.1252L1.37494 15.3752M2.12494 16.1252L2.12494 15.3752M1.37494 2.12524L1.37494 1.37524M2.12494 2.12524L2.12494 1.37524M1.75 7.75C2.30228 7.75 2.75 8.19772 2.75 8.75C2.75 9.30228 2.30228 9.75 1.75 9.75C1.19771 9.75 0.75 9.30228 0.75 8.75C0.75 8.19772 1.19771 7.75 1.75 7.75ZM1.75 14.75C2.30228 14.75 2.75 15.1977 2.75 15.75C2.75 16.3023 2.30228 16.75 1.75 16.75C1.19772 16.75 0.75 16.3023 0.75 15.75C0.75 15.1977 1.19772 14.75 1.75 14.75ZM1.75 0.75C2.30228 0.75 2.75 1.19772 2.75 1.75C2.75 2.30228 2.30228 2.75 1.75 2.75C1.19771 2.75 0.749999 2.30228 0.749999 1.75C0.749999 1.19772 1.19771 0.75 1.75 0.75Z" stroke="currentColor" stroke-width="1.5" stroke-linecap="round"/>
</svg>
