<svg viewBox="0 0 20 20" fill="none" xmlns="http://www.w3.org/2000/svg">
<path d="M14.975 7.5C14.975 7.85899 15.266 8.15 15.625 8.15C15.984 8.15 16.275 7.85899 16.275 7.5H15.625H14.975ZM12.5 3.725C12.141 3.725 11.85 4.01601 11.85 4.375C11.85 4.73399 12.141 5.025 12.5 5.025V4.375V3.725ZM9.54038 9.54038C9.28654 9.79422 9.28654 10.2058 9.54038 10.4596C9.79422 10.7135 10.2058 10.7135 10.4596 10.4596L10 10L9.54038 9.54038ZM15.5909 4.54563L15.0118 4.84072L15.0118 4.84072L15.5909 4.54563ZM15.4544 4.40906L15.1593 4.98822V4.98822L15.4544 4.40906ZM10 6.275C10.359 6.275 10.65 5.98399 10.65 5.625C10.65 5.26601 10.359 4.975 10 4.975V5.625V6.275ZM15.025 10C15.025 9.64102 14.734 9.35 14.375 9.35C14.016 9.35 13.725 9.64102 13.725 10H14.375H15.025ZM5.74002 15.3525L6.03512 14.7734H6.03512L5.74002 15.3525ZM4.64748 14.26L4.06833 14.5551L4.64748 14.26ZM13.01 15.3525L12.7149 14.7734H12.7149L13.01 15.3525ZM14.1025 14.26L13.5234 13.9649V13.9649L14.1025 14.26ZM4.64748 6.99002L4.06833 6.69493H4.06833L4.64748 6.99002ZM5.74002 5.89748L5.44493 5.31833H5.44493L5.74002 5.89748ZM15.625 7.5H16.275V4.875H15.625H14.975V7.5H15.625ZM15.125 4.375V3.725H12.5V4.375V5.025H15.125V4.375ZM15.5335 4.46653L15.0739 4.00691L9.54038 9.54038L10 10L10.4596 10.4596L15.9931 4.92615L15.5335 4.46653ZM15.625 4.875H16.275C16.275 4.79822 16.2755 4.70154 16.2686 4.61682C16.261 4.52451 16.2416 4.39086 16.1701 4.25053L15.5909 4.54563L15.0118 4.84072C14.9935 4.80474 14.9833 4.77261 14.9779 4.74968C14.973 4.72881 14.9725 4.71737 14.9729 4.72268C14.9734 4.72824 14.9741 4.74159 14.9745 4.76932C14.975 4.79702 14.975 4.82976 14.975 4.875H15.625ZM15.125 4.375V5.025C15.1702 5.025 15.203 5.02502 15.2307 5.02545C15.2584 5.02589 15.2718 5.02664 15.2773 5.0271C15.2826 5.02753 15.2712 5.02698 15.2503 5.02206C15.2274 5.01666 15.1953 5.00655 15.1593 4.98822L15.4544 4.40906L15.7495 3.82991C15.6091 3.75841 15.4755 3.73896 15.3832 3.73142C15.2985 3.72449 15.2018 3.725 15.125 3.725V4.375ZM15.5909 4.54563L16.1701 4.25054C16.124 4.15998 16.0641 4.07789 15.9931 4.00691L15.5335 4.46653L15.0739 4.92615C15.049 4.90127 15.028 4.87247 15.0118 4.84072L15.5909 4.54563ZM15.5335 4.46653L15.9931 4.00691C15.9221 3.93593 15.84 3.87604 15.7495 3.82991L15.4544 4.40906L15.1593 4.98822C15.1275 4.97204 15.0987 4.95103 15.0739 4.92615L15.5335 4.46653ZM10.375 15.625V14.975H8.375V15.625V16.275H10.375V15.625ZM4.375 11.625H5.025V9.625H4.375H3.725V11.625H4.375ZM8.375 5.625V6.275H10V5.625V4.975H8.375V5.625ZM14.375 10H13.725V11.625H14.375H15.025V10H14.375ZM8.375 15.625V14.975C7.66421 14.975 7.17021 14.9745 6.78594 14.9431C6.40925 14.9123 6.1956 14.8551 6.03512 14.7734L5.74002 15.3525L5.44493 15.9317C5.81922 16.1224 6.223 16.2014 6.68007 16.2388C7.12956 16.2755 7.68566 16.275 8.375 16.275V15.625ZM4.375 11.625H3.725C3.725 12.3143 3.72449 12.8704 3.76122 13.3199C3.79856 13.777 3.87762 14.1808 4.06833 14.5551L4.64748 14.26L5.22664 13.9649C5.14487 13.8044 5.08768 13.5907 5.0569 13.2141C5.02551 12.8298 5.025 12.3358 5.025 11.625H4.375ZM5.74002 15.3525L6.03512 14.7734C5.68702 14.596 5.404 14.313 5.22664 13.9649L4.64748 14.26L4.06833 14.5551C4.37033 15.1478 4.85222 15.6297 5.44493 15.9317L5.74002 15.3525ZM10.375 15.625V16.275C11.0643 16.275 11.6204 16.2755 12.0699 16.2388C12.527 16.2014 12.9308 16.1224 13.3051 15.9317L13.01 15.3525L12.7149 14.7734C12.5544 14.8551 12.3407 14.9123 11.9641 14.9431C11.5798 14.9745 11.0858 14.975 10.375 14.975V15.625ZM14.375 11.625H13.725C13.725 12.3358 13.7245 12.8298 13.6931 13.2141C13.6623 13.5907 13.6051 13.8044 13.5234 13.9649L14.1025 14.26L14.6817 14.5551C14.8724 14.1808 14.9514 13.777 14.9888 13.3199C15.0255 12.8704 15.025 12.3143 15.025 11.625H14.375ZM13.01 15.3525L13.3051 15.9317C13.8978 15.6297 14.3797 15.1478 14.6817 14.5551L14.1025 14.26L13.5234 13.9649C13.346 14.313 13.063 14.596 12.7149 14.7734L13.01 15.3525ZM4.375 9.625H5.025C5.025 8.91421 5.02551 8.42021 5.0569 8.03594C5.08768 7.65925 5.14487 7.4456 5.22664 7.28512L4.64748 6.99002L4.06833 6.69493C3.87762 7.06922 3.79856 7.473 3.76122 7.93007C3.72449 8.37956 3.725 8.93566 3.725 9.625H4.375ZM8.375 5.625V4.975C7.68566 4.975 7.12956 4.97449 6.68007 5.01122C6.223 5.04856 5.81922 5.12762 5.44493 5.31833L5.74002 5.89748L6.03512 6.47664C6.1956 6.39487 6.40925 6.33768 6.78594 6.3069C7.17021 6.27551 7.66421 6.275 8.375 6.275V5.625ZM4.64748 6.99002L5.22664 7.28512C5.404 6.93702 5.68702 6.654 6.03512 6.47664L5.74002 5.89748L5.44493 5.31833C4.85222 5.62033 4.37033 6.10222 4.06833 6.69493L4.64748 6.99002Z" fill="currentColor"/>
</svg>
