<svg viewBox="0 0 24 24" fill="none" xmlns="http://www.w3.org/2000/svg">
<path d="M7 8H21C21.2652 8 21.5196 8.10536 21.7071 8.29289C21.8946 8.48043 22 8.73478 22 9V11C22 11.2652 21.8946 11.5196 21.7071 11.7071C21.5196 11.8946 21.2652 12 21 12H10" stroke="currentColor" stroke-width="1.75" stroke-linecap="round" stroke-linejoin="round"/>
<path d="M13 8V21" stroke="currentColor" stroke-width="1.75" stroke-linecap="round" stroke-linejoin="round"/>
<path d="M20 12V19C20 19.5304 19.7893 20.0391 19.4142 20.4142C19.0391 20.7893 18.5304 21 18 21H8C7.46957 21 6.96086 20.7893 6.58579 20.4142C6.21071 20.0391 6 19.5304 6 19V17" stroke="currentColor" stroke-width="1.75" stroke-linecap="round" stroke-linejoin="round"/>
<path d="M8.5 7.99995C7.83696 7.99995 7.20107 7.73656 6.73223 7.26772C6.26339 6.79887 6 6.16299 6 5.49995C6 4.83691 6.26339 4.20102 6.73223 3.73218C7.20107 3.26334 7.83696 2.99995 8.5 2.99995C9.46469 2.98314 10.41 3.45121 11.2127 4.34311C12.0154 5.23501 12.6383 6.50935 13 7.99995C13.3617 6.50935 13.9846 5.23501 14.7873 4.34311C15.59 3.45121 16.5353 2.98314 17.5 2.99995C18.163 2.99995 18.7989 3.26334 19.2678 3.73218C19.7366 4.20102 20 4.83691 20 5.49995C20 6.16299 19.7366 6.79887 19.2678 7.26772C18.7989 7.73656 18.163 7.99995 17.5 7.99995" stroke="currentColor" stroke-width="1.75" stroke-linecap="round" stroke-linejoin="round"/>
<path d="M5.22556 9.3999C5.22556 8.93046 4.845 8.5499 4.37556 8.5499C3.90612 8.5499 3.52556 8.93046 3.52556 9.3999H4.37556H5.22556ZM3.52556 14.7332C3.52556 15.2027 3.90612 15.5832 4.37556 15.5832C4.845 15.5832 5.22556 15.2027 5.22556 14.7332H4.37556H3.52556ZM6.95132 12.9166C7.42076 12.9166 7.80132 12.536 7.80132 12.0666C7.80132 11.5971 7.42076 11.2166 6.95132 11.2166V12.0666V12.9166ZM1.7998 11.2166C1.33036 11.2166 0.949805 11.5971 0.949805 12.0666C0.949805 12.536 1.33036 12.9166 1.7998 12.9166V12.0666V11.2166ZM4.37556 9.3999H3.52556V12.0666H4.37556H5.22556V9.3999H4.37556ZM4.37556 12.0666H3.52556V14.7332H4.37556H5.22556V12.0666H4.37556ZM6.95132 12.0666V11.2166H4.37556V12.0666V12.9166H6.95132V12.0666ZM4.37556 12.0666V11.2166H1.7998V12.0666V12.9166H4.37556V12.0666Z" fill="currentColor"/>
</svg>
