<svg viewBox="0 0 19 17" fill="none" xmlns="http://www.w3.org/2000/svg">
<path d="M17.0221 6.96569C17.0221 6.60671 16.7311 6.31569 16.3721 6.31569C16.0131 6.31569 15.7221 6.60671 15.7221 6.96569H16.3721H17.0221ZM4.77703 15.4778L5.07563 14.9005L5.07563 14.9005L4.77703 15.4778ZM4.09723 14.7878L4.67814 14.4962L4.67814 14.4962L4.09723 14.7878ZM16.2026 14.7878L16.7835 15.0794L16.7835 15.0794L16.2026 14.7878ZM15.5228 15.4778L15.2242 14.9005L15.2242 14.9005L15.5228 15.4778ZM5.53095 3.1578H4.88095V4.4578H5.53095V3.8078V3.1578ZM7.6499 6.31569H6.9999V7.61569H7.6499V6.96569V6.31569ZM17.0651 6.53463L16.4842 6.24302L16.4842 6.24303L17.0651 6.53463ZM16.7252 6.87964L16.4266 6.30229L16.4266 6.30229L16.7252 6.87964ZM16.7252 3.89384L17.0238 3.31649L17.0238 3.31649L16.7252 3.89384ZM17.0651 4.23886L16.4842 4.53046L16.4842 4.53047L17.0651 4.23886ZM3.7999 4.1499C3.7999 3.79092 3.50889 3.4999 3.1499 3.4999C2.79092 3.4999 2.4999 3.79092 2.4999 4.1499H3.1499H3.7999ZM2.4999 9.1499C2.4999 9.50889 2.79092 9.7999 3.1499 9.7999C3.50889 9.7999 3.7999 9.50889 3.7999 9.1499H3.1499H2.4999ZM5.6499 7.2999C6.00889 7.2999 6.2999 7.00889 6.2999 6.6499C6.2999 6.29092 6.00889 5.9999 5.6499 5.9999V6.6499V7.2999ZM0.649902 5.9999C0.290917 5.9999 -9.76324e-05 6.29092 -9.76324e-05 6.6499C-9.76324e-05 7.00889 0.290917 7.2999 0.649902 7.2999V6.6499V5.9999ZM16.3721 6.96569H15.7221V13.1236H16.3721H17.0221V6.96569H16.3721ZM13.8832 15.6499V14.9999H11.7055V15.6499V16.2999H13.8832V15.6499ZM11.7055 15.6499V14.9999H8.59435V15.6499V16.2999H11.7055V15.6499ZM8.59435 15.6499V14.9999H6.41657V15.6499V16.2999H8.59435V15.6499ZM6.41657 15.6499V14.9999C5.97009 14.9999 5.6749 14.9994 5.4486 14.9806C5.23018 14.9625 5.13425 14.9308 5.07563 14.9005L4.77703 15.4778L4.47843 16.0552C4.75256 16.1969 5.0408 16.2513 5.34116 16.2762C5.63365 16.3004 5.99186 16.2999 6.41657 16.2999V15.6499ZM3.92768 13.1236H3.27768C3.27768 13.5552 3.27719 13.9174 3.30097 14.2128C3.32534 14.5155 3.3783 14.8045 3.51631 15.0794L4.09723 14.7878L4.67814 14.4962C4.6466 14.4333 4.6148 14.3323 4.59678 14.1085C4.57817 13.8773 4.57768 13.5763 4.57768 13.1236H3.92768ZM4.77703 15.4778L5.07563 14.9005C4.906 14.8127 4.76629 14.6718 4.67814 14.4962L4.09723 14.7878L3.51631 15.0794C3.72644 15.498 4.06267 15.8401 4.47843 16.0552L4.77703 15.4778ZM16.3721 13.1236H15.7221C15.7221 13.5763 15.7216 13.8773 15.703 14.1085C15.685 14.3323 15.6532 14.4333 15.6217 14.4962L16.2026 14.7878L16.7835 15.0794C16.9215 14.8045 16.9745 14.5155 16.9988 14.2128C17.0226 13.9174 17.0221 13.5552 17.0221 13.1236H16.3721ZM13.8832 15.6499V16.2999C14.3079 16.2999 14.6662 16.3004 14.9586 16.2762C15.259 16.2513 15.5472 16.1969 15.8214 16.0552L15.5228 15.4778L15.2242 14.9005C15.1656 14.9308 15.0696 14.9625 14.8512 14.9806C14.6249 14.9994 14.3297 14.9999 13.8832 14.9999V15.6499ZM16.2026 14.7878L15.6217 14.4962C15.5335 14.6718 15.3938 14.8127 15.2242 14.9005L15.5228 15.4778L15.8214 16.0552C16.2371 15.8401 16.5734 15.498 16.7835 15.0794L16.2026 14.7878ZM5.53095 3.8078V4.4578H7.03879V3.8078V3.1578H5.53095V3.8078ZM7.03879 3.8078V4.4578H10.1499V3.8078V3.1578H7.03879V3.8078ZM10.1499 3.8078V4.4578H13.261V3.8078V3.1578H10.1499V3.8078ZM13.261 3.8078V4.4578H15.9055V3.8078V3.1578H13.261V3.8078ZM17.1499 5.07095H16.4999V5.70253H17.1499H17.7999V5.07095H17.1499ZM15.9055 6.96569V6.31569H11.7055V6.96569V7.61569H15.9055V6.96569ZM11.7055 6.96569V6.31569H8.59435V6.96569V7.61569H11.7055V6.96569ZM8.59435 6.96569V6.31569H7.6499V6.96569V7.61569H8.59435V6.96569ZM17.1499 5.70253H16.4999C16.4999 5.93417 16.4994 6.06939 16.4914 6.1689C16.484 6.26112 16.4734 6.26463 16.4842 6.24302L17.0651 6.53463L17.646 6.82624C17.7417 6.63576 17.7734 6.44429 17.7872 6.27321C17.8004 6.10943 17.7999 5.91303 17.7999 5.70253H17.1499ZM15.9055 6.96569V7.61569C16.1124 7.61569 16.3072 7.61621 16.47 7.60271C16.6407 7.58856 16.8329 7.55575 17.0238 7.457L16.7252 6.87964L16.4266 6.30229C16.4512 6.28958 16.4513 6.2998 16.3626 6.30716C16.266 6.31517 16.1341 6.31569 15.9055 6.31569V6.96569ZM17.0651 6.53463L16.4842 6.24303C16.4706 6.27007 16.4499 6.29025 16.4266 6.30229L16.7252 6.87964L17.0238 7.457C17.2932 7.31766 17.5105 7.09629 17.646 6.82624L17.0651 6.53463ZM15.9055 3.8078V4.4578C16.1341 4.4578 16.266 4.45832 16.3626 4.46633C16.4513 4.47369 16.4512 4.4839 16.4266 4.4712L16.7252 3.89384L17.0238 3.31649C16.8329 3.21774 16.6407 3.18493 16.47 3.17078C16.3072 3.15728 16.1124 3.1578 15.9055 3.1578V3.8078ZM17.1499 5.07095H17.7999C17.7999 4.86045 17.8004 4.66406 17.7872 4.50028C17.7734 4.3292 17.7417 4.13773 17.646 3.94725L17.0651 4.23886L16.4842 4.53047C16.4734 4.50886 16.484 4.51237 16.4914 4.60458C16.4994 4.7041 16.4999 4.83932 16.4999 5.07095H17.1499ZM16.7252 3.89384L16.4266 4.4712C16.4499 4.48324 16.4706 4.50342 16.4842 4.53046L17.0651 4.23886L17.646 3.94725C17.5105 3.6772 17.2932 3.45583 17.0238 3.31649L16.7252 3.89384ZM8.59435 6.96569H7.94435V15.6499H8.59435H9.24435V6.96569H8.59435ZM11.7055 6.96569H11.0555V15.6499H11.7055H12.3555V6.96569H11.7055ZM10.1499 3.8078L10.7596 4.03305C10.9354 3.55721 11.2925 2.83445 11.7724 2.24408C12.2691 1.63298 12.7829 1.2999 13.261 1.2999V0.649902V-9.76324e-05C12.1836 -9.76324e-05 11.3363 0.719459 10.7636 1.42414C10.1739 2.14956 9.75327 3.00576 9.54018 3.58254L10.1499 3.8078ZM13.261 0.649902V1.2999C13.8522 1.2999 14.0511 1.57841 14.0779 1.74206C14.1119 1.94903 13.997 2.52492 12.8967 3.26947L13.261 3.8078L13.6253 4.34613C14.8584 3.51172 15.5212 2.50867 15.3608 1.53143C15.1932 0.510868 14.2253 -9.76324e-05 13.261 -9.76324e-05V0.649902ZM10.1499 3.8078L10.7596 3.58254C10.5465 3.00576 10.1259 2.14956 9.53625 1.42414C8.9635 0.719459 8.11619 -9.76324e-05 7.03879 -9.76324e-05V0.649902V1.2999C7.51695 1.2999 8.03075 1.63298 8.52744 2.24408C9.00728 2.83445 9.36438 3.55721 9.54018 4.03305L10.1499 3.8078ZM7.03879 0.649902V-9.76324e-05C6.07446 -9.76324e-05 5.10662 0.510868 4.93905 1.53143C4.77859 2.50867 5.44145 3.51172 6.67451 4.34613L7.03879 3.8078L7.40307 3.26947C6.3028 2.52492 6.18788 1.94903 6.22187 1.74206C6.24874 1.57841 6.44757 1.2999 7.03879 1.2999V0.649902ZM3.92768 13.1236H4.57768V11.0446H3.92768H3.27768V13.1236H3.92768ZM3.1499 4.1499H2.4999V6.6499H3.1499H3.7999V4.1499H3.1499ZM3.1499 6.6499H2.4999V9.1499H3.1499H3.7999V6.6499H3.1499ZM5.6499 6.6499V5.9999H3.1499V6.6499V7.2999H5.6499V6.6499ZM3.1499 6.6499V5.9999H0.649902V6.6499V7.2999H3.1499V6.6499Z" fill="currentColor"/>
</svg>
