<svg viewBox="0 0 20 20" fill="none" xmlns="http://www.w3.org/2000/svg">
<path d="M2.83333 8.70559V8.05559H2.18333V8.70559H2.83333ZM16.1667 8.70559H16.8167V8.05559H16.1667V8.70559ZM3.74335 17.7852L4.0409 17.2073L3.74335 17.7852ZM3.01499 17.0492L2.43459 17.3418L3.01499 17.0492ZM15.985 17.0492L16.5654 17.3418L15.985 17.0492ZM15.2567 17.7852L14.9591 17.2073L15.2567 17.7852ZM2.45501 8.61381L2.75256 8.03591L2.45501 8.61381ZM2.09083 8.24579L1.51043 8.53844L2.09083 8.24579ZM16.9092 8.24579L17.4896 8.53844L16.9092 8.24579ZM16.545 8.61381L16.2474 8.03591L16.545 8.61381ZM16.545 5.42895L16.2474 6.00685L16.545 5.42895ZM16.9092 5.79697L17.4896 5.50432L16.9092 5.79697ZM2.45501 5.42895L2.75256 6.00685L2.45501 5.42895ZM2.09083 5.79697L1.51043 5.50432L2.09083 5.79697ZM8.48333 8.70559C8.48333 8.34661 8.19232 8.05559 7.83333 8.05559C7.47435 8.05559 7.18333 8.34661 7.18333 8.70559H7.83333H8.48333ZM7.18333 17.9688C7.18333 18.3277 7.47435 18.6187 7.83333 18.6187C8.19232 18.6187 8.48333 18.3277 8.48333 17.9688H7.83333H7.18333ZM11.8167 8.70559C11.8167 8.34661 11.5257 8.05559 11.1667 8.05559C10.8077 8.05559 10.5167 8.34661 10.5167 8.70559H11.1667H11.8167ZM10.5167 17.9688C10.5167 18.3277 10.8077 18.6187 11.1667 18.6187C11.5257 18.6187 11.8167 18.3277 11.8167 17.9688H11.1667H10.5167ZM9.5 5.33717L8.89061 5.56331L9.5 7.20547L10.1094 5.56331L9.5 5.33717ZM12.4702 4.79809C12.1724 4.99866 12.0937 5.40262 12.2943 5.70034C12.4948 5.99807 12.8988 6.07682 13.1965 5.87625L12.8333 5.33717L12.4702 4.79809ZM5.8035 5.87625C6.10122 6.07682 6.50517 5.99807 6.70575 5.70034C6.90632 5.40262 6.82756 4.99866 6.52984 4.79809L6.16667 5.33717L5.8035 5.87625ZM2.83333 8.70559V9.35559H16.1667V8.70559V8.05559H2.83333V8.70559ZM16.1667 8.70559H15.5167V15.274H16.1667H16.8167V8.70559H16.1667ZM13.5 17.9688V17.3188H5.5V17.9688V18.6187H13.5V17.9688ZM2.83333 15.274H3.48333V8.70559H2.83333H2.18333V15.274H2.83333ZM5.5 17.9688V17.3188C5.02245 17.3188 4.70379 17.3182 4.45882 17.298C4.22164 17.2784 4.11166 17.2437 4.0409 17.2073L3.74335 17.7852L3.4458 18.3631C3.73156 18.5102 4.03319 18.5673 4.35185 18.5936C4.66272 18.6193 5.04413 18.6187 5.5 18.6187V17.9688ZM2.83333 15.274H2.18333C2.18333 15.735 2.18284 16.1195 2.20815 16.4326C2.23407 16.7531 2.29017 17.0554 2.43459 17.3418L3.01499 17.0492L3.59538 16.7565C3.55815 16.6827 3.52343 16.569 3.50393 16.3278C3.48383 16.0792 3.48333 15.7563 3.48333 15.274H2.83333ZM3.74335 17.7852L4.0409 17.2073C3.85014 17.1091 3.69379 16.9517 3.59538 16.7565L3.01499 17.0492L2.43459 17.3418C2.65577 17.7805 3.00935 18.1384 3.4458 18.3631L3.74335 17.7852ZM16.1667 15.274H15.5167C15.5167 15.7563 15.5162 16.0792 15.4961 16.3278C15.4766 16.569 15.4418 16.6827 15.4046 16.7565L15.985 17.0492L16.5654 17.3418C16.7098 17.0554 16.7659 16.7531 16.7918 16.4326C16.8172 16.1195 16.8167 15.735 16.8167 15.274H16.1667ZM13.5 17.9688V18.6187C13.9559 18.6187 14.3373 18.6193 14.6481 18.5936C14.9668 18.5673 15.2684 18.5102 15.5542 18.3631L15.2567 17.7852L14.9591 17.2073C14.8883 17.2437 14.7784 17.2784 14.5412 17.298C14.2962 17.3182 13.9775 17.3188 13.5 17.3188V17.9688ZM15.985 17.0492L15.4046 16.7565C15.3062 16.9517 15.1499 17.1091 14.9591 17.2073L15.2567 17.7852L15.5542 18.3631C15.9906 18.1384 16.3442 17.7805 16.5654 17.3418L15.985 17.0492ZM3.33333 5.33717V5.98717H15.6667V5.33717V4.68717H3.33333V5.33717ZM17 6.68454H16.35V7.35822H17H17.65V6.68454H17ZM15.6667 8.70559V8.05559H3.33333V8.70559V9.35559H15.6667V8.70559ZM2 7.35822H2.65V6.68454H2H1.35V7.35822H2ZM3.33333 8.70559V8.05559C3.08914 8.05559 2.9455 8.05508 2.83949 8.04632C2.74126 8.03821 2.73419 8.02645 2.75256 8.03591L2.45501 8.61381L2.15746 9.1917C2.35409 9.29295 2.55282 9.32708 2.73252 9.34191C2.90443 9.35611 3.11082 9.35559 3.33333 9.35559V8.70559ZM2 7.35822H1.35C1.35 7.58342 1.3495 7.791 1.36347 7.9637C1.37803 8.14379 1.41142 8.34207 1.51043 8.53844L2.09083 8.24579L2.67122 7.95315C2.67941 7.96938 2.66739 7.95969 2.65924 7.85893C2.6505 7.75078 2.65 7.60465 2.65 7.35822H2ZM2.45501 8.61381L2.75256 8.03591C2.7186 8.01843 2.68973 7.98985 2.67122 7.95315L2.09083 8.24579L1.51043 8.53844C1.65171 8.81864 1.87781 9.04772 2.15746 9.1917L2.45501 8.61381ZM17 7.35822H16.35C16.35 7.60465 16.3495 7.75078 16.3408 7.85893C16.3326 7.95969 16.3206 7.96938 16.3288 7.95315L16.9092 8.24579L17.4896 8.53844C17.5886 8.34207 17.622 8.14378 17.6365 7.9637C17.6505 7.791 17.65 7.58342 17.65 7.35822H17ZM15.6667 8.70559V9.35559C15.8892 9.35559 16.0956 9.35611 16.2675 9.34191C16.4472 9.32708 16.6459 9.29295 16.8425 9.1917L16.545 8.61381L16.2474 8.03591C16.2658 8.02645 16.2587 8.03821 16.1605 8.04632C16.0545 8.05508 15.9109 8.05559 15.6667 8.05559V8.70559ZM16.9092 8.24579L16.3288 7.95315C16.3103 7.98985 16.2814 8.01843 16.2474 8.03591L16.545 8.61381L16.8425 9.1917C17.1222 9.04772 17.3483 8.81864 17.4896 8.53844L16.9092 8.24579ZM15.6667 5.33717V5.98717C15.9109 5.98717 16.0545 5.98769 16.1605 5.99644C16.2587 6.00455 16.2658 6.01631 16.2474 6.00685L16.545 5.42895L16.8425 4.85106C16.6459 4.74982 16.4472 4.71568 16.2675 4.70085C16.0956 4.68665 15.8892 4.68717 15.6667 4.68717V5.33717ZM17 6.68454H17.65C17.65 6.45934 17.6505 6.25176 17.6365 6.07906C17.622 5.89898 17.5886 5.70069 17.4896 5.50432L16.9092 5.79697L16.3288 6.08961C16.3206 6.07338 16.3326 6.08307 16.3408 6.18383C16.3495 6.29198 16.35 6.43811 16.35 6.68454H17ZM16.545 5.42895L16.2474 6.00685C16.2814 6.02433 16.3103 6.05291 16.3288 6.08961L16.9092 5.79697L17.4896 5.50432C17.3483 5.22412 17.1222 4.99505 16.8425 4.85106L16.545 5.42895ZM3.33333 5.33717V4.68717C3.11082 4.68717 2.90443 4.68665 2.73252 4.70085C2.55282 4.71568 2.35409 4.74982 2.15746 4.85106L2.45501 5.42895L2.75256 6.00685C2.73419 6.01631 2.74126 6.00455 2.83949 5.99644C2.9455 5.98769 3.08914 5.98717 3.33333 5.98717V5.33717ZM2 6.68454H2.65C2.65 6.43811 2.6505 6.29198 2.65924 6.18383C2.66739 6.08307 2.67941 6.07338 2.67122 6.08961L2.09083 5.79697L1.51043 5.50432C1.41142 5.70069 1.37803 5.89898 1.36347 6.07906C1.3495 6.25176 1.35 6.45934 1.35 6.68454H2ZM2.45501 5.42895L2.15746 4.85106C1.87781 4.99505 1.65171 5.22412 1.51043 5.50432L2.09083 5.79697L2.67122 6.08961C2.68973 6.05291 2.7186 6.02433 2.75256 6.00685L2.45501 5.42895ZM7.83333 8.70559H7.18333V17.9688H7.83333H8.48333V8.70559H7.83333ZM11.1667 8.70559H10.5167V17.9688H11.1667H11.8167V8.70559H11.1667ZM9.5 5.33717L10.1094 5.56331C10.2989 5.05255 10.6836 4.27724 11.2014 3.64298C11.7358 2.98843 12.2984 2.61875 12.8333 2.61875V1.96875V1.31875C11.7016 1.31875 10.8059 2.07188 10.1944 2.82084C9.56639 3.59009 9.11773 4.49898 8.89061 5.11103L9.5 5.33717ZM12.8333 1.96875V2.61875C13.4824 2.61875 13.7212 2.92542 13.7545 3.12716C13.7948 3.37181 13.6546 4.00015 12.4702 4.79809L12.8333 5.33717L13.1965 5.87625C14.5121 4.98998 15.2052 3.93411 15.0372 2.91561C14.8621 1.85418 13.8509 1.31875 12.8333 1.31875V1.96875ZM9.5 5.33717L10.1094 5.11103C9.88227 4.49898 9.43361 3.59009 8.80559 2.82084C8.19414 2.07188 7.29838 1.31875 6.16667 1.31875V1.96875V2.61875C6.70162 2.61875 7.2642 2.98843 7.79857 3.64298C8.31639 4.27724 8.70107 5.05255 8.89061 5.56331L9.5 5.33717ZM6.16667 1.96875V1.31875C5.1491 1.31875 4.13789 1.85418 3.96283 2.91561C3.79485 3.93411 4.48794 4.98998 5.8035 5.87625L6.16667 5.33717L6.52984 4.79809C5.3454 4.00015 5.20515 3.37181 5.2455 3.12716C5.27877 2.92542 5.51757 2.61875 6.16667 2.61875V1.96875Z" fill="currentColor"/>
</svg>
