<svg viewBox="0 0 28 28" fill="none" xmlns="http://www.w3.org/2000/svg">
<path fill-rule="evenodd" clip-rule="evenodd" d="M12.808 11.2563C10.9498 11.2563 10.113 10.8368 9.6426 10.4812C9.57122 10.4273 9.48389 10.2918 9.48389 10.0551L9.48389 4.91039C9.48389 4.57349 9.695 4.30637 9.97119 4.22807C11.9727 3.66059 15.0348 3.07628 18.2503 3.66091C20.177 4.01123 21.3964 4.65525 22.1906 5.32395C22.9845 5.99241 23.404 6.72794 23.6679 7.3438C24.3102 8.84254 24.0955 9.61756 23.9169 9.88788C23.8272 10.0238 23.739 10.0585 23.7016 10.0664C23.6656 10.0739 23.6422 10.0669 23.6191 10.0484C23.065 9.60517 22.6489 9.21711 22.2933 8.8757C22.2364 8.82106 22.1797 8.7663 22.1233 8.71175C21.8403 8.43829 21.5628 8.17011 21.2862 7.94884C20.9327 7.66601 20.548 7.43045 20.0586 7.27384C19.5796 7.12058 19.0451 7.05725 18.4068 7.05725L14.2077 7.05725C13.7244 7.05725 13.3327 7.449 13.3327 7.93225C13.3327 8.4155 13.7244 8.80725 14.2077 8.80725L17.195 8.80725C17.1678 8.88465 17.1395 8.96719 17.1101 9.05525C16.8631 9.79633 16.5062 10.2995 15.9288 10.6444C15.3199 11.0081 14.3653 11.2564 12.808 11.2563ZM19.0561 8.84213C18.984 9.00982 18.8889 9.25278 18.7703 9.60865C18.4272 10.6381 17.851 11.5346 16.8263 12.1468C15.833 12.7401 14.5167 13.0064 12.808 13.0064C10.6561 13.0063 9.42454 12.5101 8.58738 11.8773C7.9676 11.4088 7.73389 10.6847 7.73389 10.0551L7.73389 4.91039C7.73389 3.84123 8.41727 2.84966 9.49383 2.54443C11.6165 1.94259 14.9744 1.28661 18.5633 1.93914C20.7423 2.33532 22.2557 3.091 23.3178 3.9853C24.3802 4.87984 24.9405 5.8706 25.2764 6.65444C26.0338 8.42166 26.0152 9.88617 25.3773 10.8522C24.7352 11.8246 23.4616 12.1635 22.5258 11.4149C21.9134 10.925 21.4547 10.4966 21.0814 10.1381C21.0128 10.0723 20.9486 10.0104 20.8879 9.95177C20.6059 9.67968 20.3999 9.48089 20.193 9.31536C19.9633 9.13163 19.7648 9.01726 19.5252 8.94059C19.397 8.89955 19.245 8.86554 19.0561 8.84213Z" fill="currentColor"/>
<path fill-rule="evenodd" clip-rule="evenodd" d="M2.13525 11.6647C2.13525 13.1787 3.36256 14.406 4.87652 14.406L6.74278 14.406C8.25674 14.406 9.48405 13.1787 9.48405 11.6647L9.48405 4.19968C9.48405 2.68572 8.25675 1.45841 6.74279 1.45841L4.87652 1.45841C3.36256 1.45841 2.13525 2.68572 2.13525 4.19968L2.13525 11.6647ZM4.87652 12.656C4.32906 12.656 3.88525 12.2122 3.88525 11.6647L3.88525 4.19968C3.88525 3.65222 4.32906 3.20841 4.87652 3.20841L6.74279 3.20841C7.29025 3.20841 7.73405 3.65222 7.73405 4.19968L7.73405 11.6647C7.73405 12.2122 7.29025 12.656 6.74278 12.656L4.87652 12.656Z" fill="currentColor"/>
<path fill-rule="evenodd" clip-rule="evenodd" d="M19.5154 21.0835C18.0973 21.0835 16.9478 19.9339 16.9478 18.5159C16.9478 17.0978 18.0973 15.9483 19.5154 15.9483C20.9334 15.9483 22.083 17.0978 22.083 18.5159C22.083 19.9339 20.9334 21.0835 19.5154 21.0835ZM15.1978 18.5159C15.1978 20.9004 17.1308 22.8335 19.5154 22.8335C21.8999 22.8335 23.833 20.9004 23.833 18.5159C23.833 16.1313 21.8999 14.1983 19.5154 14.1983C17.1308 14.1982 15.1978 16.1313 15.1978 18.5159Z" fill="currentColor"/>
<path fill-rule="evenodd" clip-rule="evenodd" d="M13.79 21.7455C13.79 23.111 14.897 24.218 16.2626 24.218C17.5226 24.218 18.5625 23.2755 18.7157 22.057C19.0024 22.1268 19.3019 22.1639 19.6101 22.1639C19.9071 22.1639 20.1961 22.1295 20.4733 22.0645C20.3102 24.2475 18.4873 25.968 16.2626 25.968C13.9305 25.968 12.04 24.0775 12.04 21.7455C12.04 19.5208 13.7605 17.6979 15.9435 17.5348C15.8785 17.812 15.8441 18.1009 15.8441 18.3979C15.8441 18.7061 15.8811 19.0057 15.951 19.2924C14.7325 19.4456 13.79 20.4855 13.79 21.7455Z" fill="currentColor"/>
</svg>
