<svg viewBox="0 0 24 24" fill="none" xmlns="http://www.w3.org/2000/svg">
<path d="M6.1665 12.8337C6.1665 12.3916 6.3421 11.9677 6.65466 11.6551C6.96722 11.3426 7.39114 11.167 7.83317 11.167H16.1665C16.6085 11.167 17.0325 11.3426 17.345 11.6551C17.6576 11.9677 17.8332 12.3916 17.8332 12.8337V17.8337C17.8332 18.2757 17.6576 18.6996 17.345 19.0122C17.0325 19.3247 16.6085 19.5003 16.1665 19.5003H7.83317C7.39114 19.5003 6.96722 19.3247 6.65466 19.0122C6.3421 18.6996 6.1665 18.2757 6.1665 17.8337V12.8337Z" stroke="currentColor" stroke-width="1.75" stroke-linecap="round" stroke-linejoin="round"/>
<path d="M8.6665 11.1667V7.83333C8.6665 6.94928 9.01769 6.10143 9.64281 5.47631C10.2679 4.85119 11.1158 4.5 11.9998 4.5C12.8839 4.5 13.7317 4.85119 14.3569 5.47631C14.982 6.10143 15.3332 6.94928 15.3332 7.83333V11.1667" stroke="currentColor" stroke-width="1.75" stroke-linecap="round" stroke-linejoin="round"/>
</svg>
