<svg viewBox="0 0 19 19" fill="none" xmlns="http://www.w3.org/2000/svg">
<path d="M5.46011 13.063L1 17.5231M1.2523 7.96313L10.5599 17.2708C10.6639 17.3747 10.8419 17.3154 10.8627 17.1699L11.6202 11.8676C11.6748 11.4855 11.8518 11.1314 12.1248 10.8584L14.0309 8.95227C14.2596 8.72363 14.546 8.56142 14.8597 8.483L17.1842 7.90188C17.5205 7.8178 17.6365 7.39895 17.3914 7.15381L11.3693 1.13167C11.1241 0.886525 10.7053 1.00254 10.6212 1.33887L10.0401 3.66334C9.96165 3.97703 9.79945 4.26352 9.5708 4.49216L7.66466 6.3983C7.39171 6.67126 7.03759 6.84832 6.65545 6.90291L1.35322 7.66037C1.20769 7.68116 1.14835 7.85918 1.2523 7.96313Z" stroke="currentColor" stroke-width="2" stroke-linecap="round"/>
</svg>
