<svg viewBox="0 0 24 24" fill="none" xmlns="http://www.w3.org/2000/svg">
<g>
<path d="M3.375 11.1563C3.375 12.2068 3.58193 13.2471 3.98396 14.2177C4.386 15.1883 4.97528 16.0702 5.71815 16.8131C6.46101 17.556 7.34293 18.1453 8.31353 18.5473C9.28414 18.9493 10.3244 19.1563 11.375 19.1563C12.4256 19.1563 13.4659 18.9493 14.4365 18.5473C15.4071 18.1453 16.289 17.556 17.0319 16.8131C17.7747 16.0702 18.364 15.1883 18.766 14.2177C19.1681 13.2471 19.375 12.2068 19.375 11.1563C19.375 10.1057 19.1681 9.06539 18.766 8.09478C18.364 7.12418 17.7747 6.24226 17.0319 5.4994C16.289 4.75653 15.4071 4.16725 14.4365 3.76521C13.4659 3.36318 12.4256 3.15625 11.375 3.15625C10.3244 3.15625 9.28414 3.36318 8.31353 3.76521C7.34293 4.16725 6.46101 4.75653 5.71815 5.4994C4.97528 6.24226 4.386 7.12418 3.98396 8.09478C3.58193 9.06539 3.375 10.1057 3.375 11.1563Z" stroke="currentColor" stroke-width="1.75" stroke-linecap="round" stroke-linejoin="round"/>
<path d="M21 21L16.875 17.1562" stroke="currentColor" stroke-width="1.75" stroke-linecap="round" stroke-linejoin="round"/>
</g>
</svg>
