<svg viewBox="0 0 18 19" fill="none" xmlns="http://www.w3.org/2000/svg">
<path d="M13.7498 18.0001C15.1582 18.0001 16.2999 16.8584 16.2999 15.4501C16.2999 14.0418 15.1582 12.9001 13.7498 12.9001C12.3414 12.9001 11.1997 14.0418 11.1997 15.4501C11.1997 16.8584 12.3414 18.0001 13.7498 18.0001Z" stroke="currentColor" stroke-width="2" stroke-linecap="round" stroke-linejoin="round"/>
<path d="M3.55008 12.0494C4.95845 12.0494 6.10015 10.9077 6.10015 9.49943C6.10015 8.09112 4.95845 6.94946 3.55008 6.94946C2.14171 6.94946 1 8.09112 1 9.49943C1 10.9077 2.14171 12.0494 3.55008 12.0494Z" stroke="currentColor" stroke-width="2" stroke-linecap="round" stroke-linejoin="round"/>
<path d="M5.75244 10.7837L11.5581 14.1666" stroke="currentColor" stroke-width="2" stroke-linecap="round" stroke-linejoin="round"/>
<path d="M13.7498 6.09993C15.1582 6.09993 16.2999 4.95827 16.2999 3.54996C16.2999 2.14166 15.1582 1 13.7498 1C12.3414 1 11.1997 2.14166 11.1997 3.54996C11.1997 4.95827 12.3414 6.09993 13.7498 6.09993Z" stroke="currentColor" stroke-width="2" stroke-linecap="round" stroke-linejoin="round"/>
<path d="M11.5496 4.83301L5.75244 8.21596" stroke="currentColor" stroke-width="2" stroke-linecap="round" stroke-linejoin="round"/>
</svg>
