<svg viewBox="0 0 20 20" fill="none" xmlns="http://www.w3.org/2000/svg">
<path d="M9.61609 1.74183C9.75946 1.40246 10.2404 1.40246 10.3837 1.74183L12.6564 7.12171C12.6987 7.22165 12.7782 7.30117 12.8781 7.34339L18.258 9.61609C18.5974 9.75946 18.5974 10.2404 18.258 10.3837L12.8781 12.6564C12.7782 12.6987 12.6987 12.7782 12.6564 12.8781L10.3837 18.258C10.2404 18.5974 9.75946 18.5974 9.61609 18.258L7.34339 12.8781C7.30117 12.7782 7.22165 12.6987 7.12171 12.6564L1.74183 10.3837C1.40246 10.2404 1.40246 9.75946 1.74183 9.61609L7.12171 7.34339C7.22165 7.30117 7.30117 7.22165 7.34339 7.12171L9.61609 1.74183Z" stroke="currentColor" stroke-width="1.7"/>
</svg>
