<svg viewBox="0 0 21 14" fill="none" xmlns="http://www.w3.org/2000/svg">
<path d="M6.3463 8.75V4.75M10.3463 8.75L10.3463 4.75M14.3463 8.75L14.3463 4.75M3.00371 0.75L17.6889 0.75C18.8248 0.75 19.5023 2.01597 18.8722 2.9611C18.5538 3.43882 18.5538 4.06118 18.8722 4.5389L19.6067 5.6406C20.0546 6.3124 20.0546 7.1876 19.6067 7.8594L18.8722 8.9611C18.5538 9.43882 18.5538 10.0612 18.8722 10.5389C19.5023 11.484 18.8248 12.75 17.6889 12.75L3.00372 12.75C1.86781 12.75 1.19028 11.484 1.82037 10.5389C2.13885 10.0612 2.13885 9.43882 1.82037 8.9611L1.0859 7.8594C0.638033 7.1876 0.638034 6.3124 1.0859 5.6406L1.82037 4.5389C2.13885 4.06118 2.13885 3.43882 1.82037 2.9611C1.19028 2.01597 1.86781 0.75 3.00371 0.75Z" stroke="currentColor" stroke-width="1.5" stroke-linecap="round"/>
</svg>
