<svg viewBox="0 0 25 25" xmlns="http://www.w3.org/2000/svg">
<g>
<path d="M12.1348 3.01074C12.4246 3.01074 12.7118 3.06843 12.9795 3.17969C13.2472 3.29102 13.4909 3.45456 13.6953 3.66016L14.3945 4.36035C14.8065 4.77035 15.3653 5 15.9453 5H16.9453C17.5287 5.00009 18.0885 5.23203 18.501 5.64453C18.9134 6.05708 19.1445 6.61685 19.1445 7.2002V8.2002C19.1446 8.78012 19.3752 9.33805 19.7852 9.75L20.4854 10.4502C20.6908 10.6545 20.8536 10.8975 20.9648 11.165C21.0762 11.4327 21.1338 11.7199 21.1338 12.0098C21.1338 12.2997 21.0761 12.5868 20.9648 12.8545C20.8535 13.1222 20.6909 13.3659 20.4854 13.5703L19.7852 14.2695C19.3756 14.6814 19.1449 15.2394 19.1445 15.8203V16.8203C19.1444 17.4037 18.9135 17.9635 18.501 18.376C18.0885 18.7885 17.5287 19.0194 16.9453 19.0195H15.9453C15.3644 19.0199 14.8064 19.2506 14.3945 19.6602L13.6953 20.3604C13.4909 20.5659 13.2472 20.7285 12.9795 20.8398C12.7118 20.9511 12.4247 21.0088 12.1348 21.0088C11.8449 21.0088 11.5577 20.9512 11.29 20.8398C11.0225 20.7286 10.7795 20.5658 10.5752 20.3604L9.875 19.6602C9.46314 19.2506 8.90601 19.0199 8.3252 19.0195H7.3252C6.74185 19.0195 6.18208 18.7884 5.76953 18.376C5.35703 17.9635 5.12509 17.4037 5.125 16.8203V15.8203C5.12467 15.2394 4.89495 14.6814 4.48535 14.2695L3.78516 13.5703C3.57956 13.3659 3.41602 13.1222 3.30469 12.8545C3.19343 12.5868 3.13574 12.2996 3.13574 12.0098C3.13577 11.7199 3.19338 11.4327 3.30469 11.165C3.41602 10.8974 3.57959 10.6546 3.78516 10.4502L4.48535 9.75C4.89479 9.33816 5.12461 8.78093 5.125 8.2002V7.2002C5.125 6.61672 5.35695 6.05711 5.76953 5.64453C6.18211 5.23195 6.74172 5 7.3252 5H8.3252C8.90593 4.99961 9.46316 4.76979 9.875 4.36035L10.5752 3.66016C10.7796 3.45459 11.0224 3.29102 11.29 3.17969C11.5577 3.06838 11.8449 3.01077 12.1348 3.01074ZM15.7441 9.38086C15.4024 9.03915 14.8476 9.03915 14.5059 9.38086L11.125 12.7617L9.74414 11.3809C9.40243 11.0392 8.84757 11.0392 8.50586 11.3809C8.16415 11.7226 8.16415 12.2774 8.50586 12.6191L10.5059 14.6191C10.8476 14.9608 11.4024 14.9608 11.7441 14.6191L15.7441 10.6191C16.0858 10.2774 16.0858 9.72257 15.7441 9.38086Z" fill="currentColor"/>
</g>
</svg>
