<svg viewBox="0 0 17 17" fill="none" xmlns="http://www.w3.org/2000/svg">
<path d="M7.32053 1.02113C7.95337 0.32629 9.0466 0.32629 9.67945 1.02113L10.4932 1.91466C10.813 2.26584 11.2726 2.45623 11.7471 2.43406L12.9544 2.37764C13.8931 2.33376 14.6662 3.10685 14.6224 4.04564L14.5659 5.25287C14.5437 5.72732 14.7341 6.18698 15.0853 6.50679L15.9788 7.32053C16.6737 7.95337 16.6737 9.0466 15.9788 9.67945L15.0853 10.4932C14.7341 10.813 14.5437 11.2726 14.5659 11.7471L14.6224 12.9544C14.6662 13.8931 13.8931 14.6662 12.9544 14.6224L11.7471 14.5659C11.2726 14.5437 10.813 14.7341 10.4932 15.0853L9.67945 15.9788C9.0466 16.6737 7.95337 16.6737 7.32053 15.9788L6.50679 15.0853C6.18698 14.7341 5.72732 14.5437 5.25287 14.5659L4.04563 14.6224C3.10685 14.6662 2.33376 13.8931 2.37764 12.9544L2.43406 11.7471C2.45623 11.2726 2.26584 10.813 1.91466 10.4932L1.02113 9.67945C0.32629 9.0466 0.32629 7.95337 1.02113 7.32053L1.91466 6.50679C2.26584 6.18698 2.45623 5.72732 2.43406 5.25287L2.37764 4.04563C2.33376 3.10685 3.10685 2.33376 4.04564 2.37764L5.25287 2.43406C5.72732 2.45623 6.18698 2.26584 6.50679 1.91466L7.32053 1.02113Z" fill="currentColor" stroke="currentColor"/>
<path d="M5.5 9L7.83333 11.5L12.5 6.5" stroke="white" stroke-width="1.7" stroke-linecap="round" stroke-linejoin="round"/>
</svg>
