<svg viewBox="0 0 24 24" fill="none" xmlns="http://www.w3.org/2000/svg">
<path d="M22 10.8333V16.1667C22 19.3667 20 21.5 17 21.5H7C4 21.5 2 19.3667 2 16.1667V10.8333C2 7.932 3.64 5.90533 6.19 5.564C6.45 5.52133 6.72 5.5 7 5.5H17C17.26 5.5 17.51 5.51065 17.75 5.55332C20.33 5.87332 22 7.91067 22 10.8333Z" stroke="currentColor" stroke-width="1.75" stroke-linecap="round" stroke-linejoin="round"/>
<path d="M3.35658 6.98037C3.15964 5.20289 4.35617 3.61171 6.02908 3.42636L15.8736 2.33566C17.5465 2.15031 19.0623 3.44098 19.2593 5.21846L19.3484 6.02306" stroke="currentColor" stroke-width="1.75"/>
<path d="M18 11.5H21.1429C21.6162 11.5 22 11.8838 22 12.3571V14.6429C22 15.1162 21.6162 15.5 21.1429 15.5H18C16.8954 15.5 16 14.6046 16 13.5C16 12.3954 16.8954 11.5 18 11.5Z" stroke="currentColor" stroke-width="1.75" stroke-linecap="round"/>
</svg>
