<svg width="24" height="24" viewBox="0 0 24 24" fill="none" xmlns="http://www.w3.org/2000/svg">
<path d="M12 0C5.3728 0 0 5.3728 0 12C0 18.6272 5.3728 24 12 24C18.6272 24 24 18.6272 24 12C24 5.3728 18.6272 0 12 0ZM17.7808 18.9272C17.224 18.9272 16.668 18.9272 16.1112 18.9288C16.048 18.9288 16.0136 18.9072 15.9792 18.8536C15.34 17.8616 14.6992 16.8712 14.0584 15.8816C13.6248 15.2112 13.1904 14.54 12.7568 13.8688C12.7416 13.8464 12.7256 13.8232 12.6952 13.7784V18.9208H11.2424V13.6912L11.2184 13.6872C11.0512 13.9512 10.8848 14.216 10.7176 14.48C9.7928 15.9416 8.868 17.404 7.9416 18.864C7.9232 18.8928 7.8808 18.9248 7.8496 18.9248C7.2848 18.928 6.7192 18.9272 6.1536 18.9272C6.148 18.9272 6.1424 18.9248 6.1264 18.92C6.1392 18.8968 6.1488 18.8744 6.1624 18.8544C6.8072 17.8704 7.4528 16.8864 8.1 15.904C8.1384 15.8448 8.1416 15.8032 8.1072 15.7408C7.472 14.5672 6.8376 13.3928 6.2064 12.2176C6.1456 12.1048 6.1464 11.9784 6.2064 11.864C6.9008 10.5464 7.5976 9.2296 8.2952 7.9144C8.3256 7.8576 8.308 7.824 8.2776 7.7816C7.7136 6.968 7.1512 6.1552 6.5872 5.3416C6.5296 5.2584 6.4728 5.1744 6.4048 5.076H6.5128C7.0752 5.076 7.6376 5.0776 8.1992 5.0744C8.2656 5.0744 8.3032 5.0928 8.34 5.1496C9.276 6.5832 10.2152 8.0152 11.1536 9.448C11.1752 9.4808 11.1968 9.5128 11.2352 9.5392V5.0816H12.6864V9.5752C12.6928 9.5776 12.6992 9.5816 12.7056 9.584C12.7232 9.56 12.7408 9.5368 12.7568 9.512C13.7048 8.0616 14.6536 6.612 15.5992 5.1592C15.6416 5.0944 15.6848 5.072 15.7608 5.0728C16.3144 5.076 16.868 5.0752 17.4216 5.0752H17.5432C17.4296 5.2384 17.3264 5.3864 17.224 5.5336C16.6992 6.284 16.1744 7.0352 15.6472 7.7856C15.6112 7.8368 15.612 7.8728 15.64 7.9256C16.3368 9.2384 17.032 10.5528 17.7256 11.868C17.7832 11.9784 17.784 12.104 17.7256 12.2136C17.2016 13.1912 16.6728 14.1664 16.1464 15.1424C16.0336 15.3504 15.9224 15.56 15.808 15.7672C15.7856 15.808 15.7856 15.8376 15.8128 15.8776C16.4352 16.796 17.0552 17.716 17.6752 18.6352C17.7376 18.7272 17.7992 18.8184 17.8696 18.9232C17.832 18.9256 17.8048 18.9288 17.7776 18.9288L17.7808 18.9272Z" fill="black"/>
</svg>